<?xml version="1.0" encoding="UTF-8"?>
<svg id="Layer_2" data-name="Layer 2" xmlns="http://www.w3.org/2000/svg" viewBox="0 0 2664.28 2819.78">
  <defs>
    <style>
      .cls-1 {
        fill: #1c7aea;
      }

      .cls-2 {
        opacity: .7;
      }

      .cls-3 {
        fill: #fff;
      }

      .cls-4 {
        fill: #d8d8d8;
      }

      .cls-5 {
        opacity: .5;
      }

      .cls-6 {
        opacity: .2;
      }

      .cls-7 {
        fill: #220f2d;
      }

      .cls-8 {
        fill: #22a7f0;
      }

      .cls-9 {
        fill: #371a45;
      }
    </style>
  </defs>
  <g id="Layer_1-2" data-name="Layer 1">
    <g>
      <g class="cls-6">
        <ellipse class="cls-9" cx="706.97" cy="2689.68" rx="602.39" ry="130.1"/>
      </g>
      <path class="cls-3" d="m1558.12,1462.62s-305.53,45.53-528.02,179.88c-30.86,18.57-60.12,38.91-86.74,61.07l-7.37-55.09-11.72-87.92-32.29-241.74s468.51-140.59,694.63-71.39c48.67,14.9,81.64,37.17,100.51,61.82,52.07,67.84-2.23,153.71-128.98,153.37Z"/>
      <g class="cls-6">
        <path class="cls-9" d="m1075.68,1272.83c-32.44,58.1-92.84,107.71-170.86,142.09l-12.85-96.12s77.05-23.11,183.71-45.98Z"/>
      </g>
      <path class="cls-4" d="m1616.73,1291.86c-.57-2.67-.81-4.2-.81-4.2,0,0,.4,1.49.81,4.2Z"/>
      <g class="cls-6">
        <path class="cls-9" d="m1558.12,1462.62s-305.53,45.53-528.02,179.88l-94.12,5.97-68.06,4.31,56.34-92.23,85.65-140.17s112.95,76.95,394.54,36.91c172.62-24.54,167.97-119.15,164.83-139.72,3.18,15.47,17.28,70.98,57.59,78.99,70.98,14.14,79.48-33.28,60.24-87.31,52.07,67.84-2.23,153.71-128.98,153.37Z"/>
      </g>
      <path class="cls-9" d="m943.36,1719.7c-4.63,0-9.22-1.98-12.42-5.82-5.7-6.86-4.77-17.03,2.08-22.73,219.54-182.7,606.36-242.07,622.72-244.51.81-.12,1.71-.32,2.42-.18h.76c82.73,0,125.41-37.45,131.04-74.67,6.65-44.05-35.77-86.81-108.08-108.94-218.87-66.96-680.66,70.01-685.3,71.41-8.53,2.57-17.53-2.28-20.1-10.82-2.56-8.54,2.29-17.54,10.82-20.1,19.32-5.8,475.81-141.2,704.02-71.36,107.51,32.9,137.52,98.47,130.55,144.62-7.67,50.83-60.91,101.99-162.53,102.14-23.66,3.72-398.88,65.12-605.69,237.22-3.02,2.51-6.68,3.74-10.31,3.74Z"/>
      <g>
        <path class="cls-3" d="m556.36,1278.64l6.45,89.61,3.31,45.64,56.81,787.13s-53.89.83-126.24-3.87c-14.15-.92-29.02-2.04-44.31-3.43-114.02-10.26-252.44-34.9-305-93.51-78.57-87.64-91.67-515.57-21.52-685.24,32.13-77.79,195.44-111.66,311.41-126.09,12.96-1.64,25.34-3.01,36.87-4.15,48.6-4.91,82.23-6.09,82.23-6.09Z"/>
        <g class="cls-6">
          <path class="cls-9" d="m562.81,1368.25l3.31,45.64,45.11,624.99,11.7,162.14s-1.13.01-3.26.03c-.61,0-1.33,0-2.1,0-.61,0-1.29,0-1.98,0-.52.02-1.05,0-1.57.03-.2-.02-.44.01-.65,0-.97,0-2.06,0-3.19-.02-.24.03-.48.02-.77.01-.93,0-1.9-.01-2.95,0-1.41,0-2.87-.02-4.4-.04-1.09-.03-2.26-.01-3.43-.03-1.21-.02-2.42-.03-3.68-.04-1.58-.01-3.23-.05-4.93-.05-3.44-.07-7.08-.12-10.92-.22-3.39-.04-6.96-.13-10.68-.25-4.29-.13-8.78-.24-13.44-.4-17.22-.59-36.94-1.49-58.29-2.88-4.15-.27-8.38-.57-12.65-.86-2.97-.21-6.03-.45-9.08-.68-7.37-.57-14.95-1.19-22.58-1.89-114.06-10.26-252.44-34.9-304.96-93.52-64.72-72.16-85.07-375.05-51.02-574.52-5.86,173.45,17.67,358.82,66.46,413.2,24.12,26.89,116.86-71.6,114.04-127.11-7.28-143.16,11.63-328.02,141.23-440.55,3.37-2.92,80.72,5.21,144.7-2.97Z"/>
        </g>
        <path class="cls-9" d="m610.24,2217.26c-69.15,0-384.65-5.62-474.88-106.25-82.55-92.08-97.62-525.21-24.44-702.21,23.33-56.44,106.22-98.17,246.34-124.02,101.27-18.69,197.58-22.21,198.54-22.24l15.54-.54,68.94,954.93-17.08.26c-1.46.02-5.94.08-12.96.08Zm-68.85-921.79c-112.43,5.83-363.96,36.95-400.63,125.65-31.66,76.59-48.44,217.11-43.78,366.73,4.55,145.98,29.05,264.37,62.43,301.6,78.48,87.53,371.97,95,446.2,95.46l-64.21-889.44Z"/>
        <path class="cls-3" d="m111.48,1777.34l154.99,7.57c13.84.68,25.48,10.58,28.31,24.14,10.33,49.67,28.24,165.62-19.29,205.3-39.46,32.94-104.97,30.91-144.15-.53-43.83-35.17-51-149.16-51.78-205.67-.24-17.57,14.38-31.67,31.92-30.81Z"/>
        <g class="cls-6">
          <path class="cls-9" d="m294.77,1809.07c10.36,49.65,28.25,165.61-19.3,205.28-39.46,32.96-104.96,30.92-144.16-.53-26.93-21.65-40.02-73.1-46.28-122.63,7.62,24.63,19.08,44.5,33.04,57.36,79.95,73.71,135.81-17.12,135.81-17.12,0,0,10.67,21.42,18.75,22.44,33.79,4.26,24.08-100.94,17.79-155.25,2.05,3.09,3.56,6.6,4.35,10.46Z"/>
        </g>
        <path class="cls-9" d="m204.58,2054.43c-29.9,0-60.08-9.34-83.34-28.02-45.8-36.75-56.72-138.85-57.82-218.03-.18-12.81,5-25.25,14.21-34.15,9.21-8.9,21.82-13.59,34.64-13.01l154.99,7.57c21.2,1.04,39.01,16.25,43.32,36.98,13.26,63.74,27.68,177.21-24.75,220.98-22.11,18.46-51.55,27.68-81.25,27.68Zm-94.61-260.98c-3.72,0-7.22,1.41-9.91,4.01-2.86,2.77-4.41,6.48-4.36,10.47,1.37,99.16,18.47,171.42,45.74,193.31,34.43,27.63,91.08,27.97,123.7.73,28.43-23.73,33.6-94.62,13.84-189.62-1.32-6.34-6.78-10.99-13.29-11.3l-154.99-7.57c-.24-.01-.49-.02-.73-.02Z"/>
        <path class="cls-9" d="m192.63,2025.53c.58-.23,2.54-1.37,3.9-2.28,1.51-1.01,3.02-2.07,4.5-3.27,2.98-2.31,5.87-4.92,8.59-7.73,5.4-5.64,10.52-11.84,14.65-18.79,8.61-13.69,14.65-29.39,18.24-45.86,1.61-8.28,3.16-16.64,3.79-25.19,1.04-8.44,1.19-17.34,1.48-25.99.2-8.71.08-17.41-.47-26.05-.31-4.31-.66-8.62-1.24-12.87-.55-4.15-1.34-8.66-2.35-12.17l-.14-.48c-.65-2.26.65-4.61,2.91-5.26,2.13-.62,4.36.53,5.15,2.56,3.57,9.33,5.06,17.92,6.63,26.97,1.42,8.95,2.38,17.93,3.03,26.92.54,9.04,1.24,17.86,1,27.08.17,9.17-.61,18.37-1.54,27.6-2.24,18.43-7.27,36.9-15.93,54.14-4.15,8.7-9.58,16.88-15.72,24.61-3.09,3.86-6.46,7.55-10.16,11.04-1.8,1.77-3.76,3.45-5.79,5.11-2.19,1.72-3.88,3.1-7.14,5.07l-.69.42c-6.77,4.1-15.58,1.93-19.68-4.84-4.1-6.77-1.93-15.58,4.84-19.68.68-.41,1.45-.78,2.15-1.07Z"/>
        <path class="cls-9" d="m358.72,1405.22c-18.77-.77-37.78-1.06-56.65-1.08-18.9,0-37.79.31-56.59,1.16-18.79.85-37.56,2-56.02,4.15-18.42,2.13-36.79,4.86-53.85,9.43l-.12.03c-8.62,2.31-17.48-2.8-19.79-11.42-2.31-8.62,2.8-17.48,11.42-19.79.35-.09.74-.18,1.09-.25,20.06-3.91,39.6-5.37,59.07-6.3,19.46-.91,38.75-.77,57.98-.32,19.24.45,38.39,1.45,57.51,2.76,19.14,1.34,38.13,2.92,57.29,5.03,4.57.51,7.86,4.62,7.36,9.19-.48,4.37-4.26,7.57-8.59,7.4h-.12Z"/>
      </g>
      <path class="cls-3" d="m700.1,1933.66c-3.14,47.23-9.53,191.26-16.52,337.52-8.43,176.74-17.73,356.73-23.37,372.91-16.9,48.55-60.8,52.79-60.8,52.79h-172.09s-52.6-.08-75.74-28.06c-38-45.98.64-96.01.64-96.01,0,0-2.91-208.5-4.8-399.35-.79-82.02-1.4-160.82-1.51-218.37l354.2-21.44Z"/>
      <g class="cls-6">
        <path class="cls-9" d="m700.1,1933.66c-3.14,47.23-9.53,191.26-16.52,337.52-131.93,8.43-238.98-59.82-336.16-97.71-.79-82.02-1.4-160.82-1.51-218.37l354.2-21.44Z"/>
      </g>
      <g class="cls-6">
        <path class="cls-9" d="m666.07,2590.89c-2.19,29.23-4.2,48.4-5.86,53.2-16.9,48.55-60.8,52.79-60.8,52.79h-172.09s-52.6-.08-75.74-28.06c-18.98-22.95-18.83-46.93-13.92-65.15,0,.04.04.08.08.11,25.07,30.29,82.06,30.36,82.06,30.36h186.46s38.83-3.74,59.82-43.26Z"/>
      </g>
      <path class="cls-9" d="m599.4,2713.01h-172.09c-6.18,0-60.99-1.02-88.16-33.91-34-41.13-18.43-88.17-3.14-111.31-.68-49.62-5.92-434.83-6.24-612.65-.01-8.92,7.2-16.16,16.11-16.17h.03c8.9,0,16.13,7.21,16.14,16.11.33,189.11,6.25,613.26,6.31,617.52.05,3.65-1.14,7.21-3.37,10.09-1.2,1.58-30.1,40.59-.96,75.83,14.89,18.02,50.76,22.13,63.33,22.19h171.04c4.5-.68,34.24-6.49,46.57-41.94,6.38-22.5,19.48-302.73,28.14-488.15,4.61-98.64,8.59-183.83,10.88-218.06.6-8.9,8.31-15.63,17.18-15.03,8.89.59,15.62,8.29,15.03,17.18-2.27,33.91-6.24,118.95-10.84,217.41-15.04,321.92-23.35,478.44-29.9,497.26-20.06,57.67-72.29,63.33-74.51,63.55-.51.05-1.03.07-1.55.07Z"/>
      <path class="cls-3" d="m1093.7,2589.98c20.12,24.92,22.8,60.95-4.73,86.29-27.57,25.33-131.29,20.15-131.29,20.15h-150.08s-43.9-4.23-60.8-52.79c-13.08-37.66-5.33-193.15-10.02-370.68-.98-37.7-2.53-76.38-4.95-115.14l377.38-183.85c-5.86,69.24-12.29,137-18.79,200.49-22.23,217.96-44.81,385.13-44.81,385.13,0,0,30.86,9,48.1,30.4Z"/>
      <g class="cls-6">
        <path class="cls-9" d="m1088.98,2676.28c-27.55,25.31-131.27,20.14-131.27,20.14h-150.08s-43.91-4.25-60.81-52.77c-2.12-6.08-3.7-15.23-4.87-27.09,19.23,14.9,38.71,16.77,38.71,16.77h169.69s117.24,5.83,148.42-22.81c1.66-1.54,3.25-3.08,4.66-4.7,10.28,22.85,7.66,50.11-14.44,70.46Z"/>
      </g>
      <g class="cls-6">
        <path class="cls-9" d="m1109.2,1973.97c-5.86,69.24-12.29,137-18.79,200.49-25.33,8.77-53.96,20.76-85.27,37.25-109.7,57.82-226.24,61.94-268.36,61.26-.98-37.7-2.53-76.38-4.95-115.14l377.38-183.85Z"/>
      </g>
      <path class="cls-9" d="m981.71,2713.14c-11.06,0-19.8-.33-24.41-.56h-149.68c-.52,0-1.03-.02-1.55-.07-2.21-.21-54.45-5.88-74.51-63.55-9.11-26.2-9.12-91.96-9.14-191.49-.01-85.65-.03-192.26-6.7-298.62-.56-8.9,6.2-16.56,15.1-17.12,8.89-.64,16.56,6.2,17.12,15.1,6.73,107.38,6.75,214.54,6.76,300.64.01,85.77.03,159.83,7.35,180.89,12.26,35.25,41.72,41.19,46.61,41.94h149.04c.27,0,.53,0,.8.02,40.3,2.02,104-1.63,119.54-15.92,21.79-20.03,17.26-46.72,3.11-64.28-13.69-16.99-39.79-24.96-40.05-25.03-7.67-2.24-12.55-9.74-11.48-17.66.38-2.78,37.86-281.86,63.52-584.8.75-8.88,8.51-15.46,17.45-14.72,8.88.75,15.47,8.56,14.72,17.45-22.62,267.03-54.39,515.55-62.01,573.67,12.24,5.33,30.39,15.21,42.99,30.84,27.47,34.08,24.79,79.63-6.39,108.3-23.43,21.54-82.72,24.98-118.17,24.98Z"/>
      <path class="cls-3" d="m1127.67,1905.36c-5.45,77.21-27.43,146.98-73.33,197.93-165.85,184.27-610.06,148.23-699.15-84.2-11.6-30.34-17.37-69.53-18.75-113.73-4.48-148.19,40.85-352.75,82.86-468.7,0,0,.04-3.03.28-8.52,2.63-52.24,27.68-328.71,267.74-380.26,212.47-45.69,286.12,211.1,307.01,315.17,5.17,25.86,7.11,42.3,7.11,42.3,69.21,120.03,138.46,328.38,126.21,500.01Z"/>
      <g class="cls-6">
        <path class="cls-9" d="m994.35,1363.05c-83.67,63.27-208.75,103.43-348.46,103.43-82.34,0-159.59-13.94-226.29-38.34,2.63-52.24,27.68-328.71,267.74-380.26,212.47-45.69,286.12,211.1,307.01,315.17Z"/>
      </g>
      <path class="cls-4" d="m494.5,1281.84l-52.81,153.81c-57.33-18.34-107.75-44.2-148.15-75.59,61.73-35.67,130.54-63.03,200.96-78.22Z"/>
      <g class="cls-6">
        <path class="cls-9" d="m1127.66,1905.34c-5.44,77.21-27.41,147.02-73.32,197.95-165.85,184.26-610.04,148.23-699.13-84.21-11.61-30.33-17.39-69.54-18.76-113.74h791.2Z"/>
      </g>
      <path class="cls-9" d="m358.83,2046.81c-7.8-11.04-13.99-23.11-19.16-35.87-4.88-12.72-8.82-25.79-11.54-38.95-5.56-26.35-7.85-53-8.31-79.42-1.03-52.89,3.1-105.3,10.07-157.15,3.41-25.94,7.67-51.73,12.51-77.4,4.79-25.68,10.25-51.22,16.37-76.6,6.02-25.41,12.86-50.63,20.34-75.69,7.47-25.07,15.58-49.99,25-74.58,3.19-8.33,12.53-12.49,20.85-9.29,8.1,3.1,12.25,12.02,9.54,20.16l-.04.12c-8.06,24.06-15.49,48.47-22.3,73.08-6.78,24.62-12.91,49.46-18.74,74.37-5.73,24.93-11,49.97-15.81,75.09-4.75,25.13-8.96,50.35-12.67,75.61-3.69,25.27-6.6,50.61-8.81,75.96-2.21,25.34-3.55,50.71-3.57,75.96.05,25.25,1.21,50.35,4.12,75,1.2,12.4,3.48,24.48,5.95,36.52,2.72,11.85,6.3,23.8,10.53,35.65,1.51,4.24-.69,8.9-4.93,10.41-3.52,1.26-7.34-.06-9.39-2.97Z"/>
      <path class="cls-9" d="m868.42,2213.92c-19.16,8-39.28,13.32-59.66,16.95-20.39,3.62-41.07,5.64-61.78,5.89-20.7.32-41.42-1.05-61.89-4.03-20.45-2.97-40.7-7.56-60.15-14.74h-.03c-4.23-1.57-6.4-6.27-4.84-10.51,1.25-3.39,4.52-5.45,7.94-5.34l59.56,2.01c19.69.53,39.31.61,58.91.32,19.6-.35,39.19-.99,58.83-2.17l59.36-4.11c4.51-.32,8.42,3.08,8.73,7.58.25,3.59-1.87,6.8-5.01,8.12Z"/>
      <path class="cls-9" d="m1008.47,1401.29c36.17,51.07,62.18,108.38,82.97,167.03,20.79,58.73,36.93,119.3,46.08,181.3,9.04,61.9,11.83,125.43,2.56,188.35-4.74,31.37-12.91,62.55-25.92,91.87-12.93,29.26-30.79,56.73-53.81,78.86-3.22,3.1-8.34,3-11.44-.23-2.8-2.92-2.99-7.39-.61-10.51l.05-.06c36.17-47.5,53.76-105.32,60.46-164.12,6.82-59.03,2.84-119.43-6.22-178.86-9.17-59.51-23.76-118.4-42.34-175.99-18.91-57.54-41.12-113.84-65.76-169.57l-.04-.1c-1.81-4.09.04-8.88,4.13-10.69,3.59-1.59,7.71-.36,9.89,2.73Z"/>
      <path class="cls-3" d="m1455.75,1235.47s69.16-83.41,108.33-54.88c27.62,20.12-5.71,66.78-10,82.5-.48,5.48,21.79,26.43,14.64,112.85"/>
      <path class="cls-9" d="m1443.32,1225.17c6.34-8.09,12.58-15.01,19.51-21.98,6.84-6.91,14.03-13.58,21.8-19.87,7.87-6.17,16.25-12.04,25.86-17.01,9.62-4.8,20.61-9.12,34.16-9.4,6.69-.12,14.07,1.15,20.77,4.15,6.63,3.07,12.46,7.2,17.48,13.46,4.96,6.15,7.98,13.98,8.84,21,.96,7.08.42,13.53-.66,19.27-2.28,11.51-6.41,21.02-10.55,29.94-2.09,4.44-4.26,8.68-6.28,12.71l-2.83,5.76c-.84,1.74-1.59,3.58-1.78,4.13l.51-2.85c.09-.81.08-1.64,0-2.45l-.11-.86-.1-.52c-.22-.89-.26-.92-.33-1.12-.11-.25-.04,0,.12.38l1.31,3.01c1.04,2.35,2.12,4.92,3.09,7.48,1.92,5.17,3.58,10.4,4.73,15.63,2.28,10.48,3.57,20.82,3.82,31.04.36,10.2-.11,20.28-1.09,30.19-1.09,9.92-2.56,19.7-4.83,29.32-1.03,4.39-5.43,7.11-9.81,6.07-3.55-.84-6.01-3.87-6.27-7.33v-.07c-.71-9.53-1.17-18.94-2.05-28.23-.74-9.29-1.89-18.45-3.29-27.38-1.57-8.9-3.26-17.61-5.96-25.7-1.31-4.05-2.7-7.95-4.38-11.69-.85-1.88-1.73-3.7-2.76-5.69l-1.76-3.5c-.34-.72-.75-1.57-1.25-2.95-.26-.76-.51-1.36-.83-2.84l-.19-.96-.08-.48-.09-.82c-.1-1.11-.11-2.24-.04-3.35.06-.86.2-1.7.41-2.51l.1-.35c1.06-3.88,2.11-6.29,3.12-8.76l2.98-6.76c1.93-4.27,3.79-8.31,5.46-12.27,3.34-7.86,6.03-15.62,7.06-22.26.57-3.3.55-6.16.21-8.2-.34-2.11-.96-3.09-1.79-4.1-.72-.95-2.61-2.3-4.34-3.01-1.75-.65-3.62-1.13-6.13-1.06-4.95,0-11.74,2.19-18.48,5.62-6.82,3.36-13.71,7.94-20.39,13.02-6.75,5.02-13.35,10.59-19.72,16.49-3.18,2.95-6.32,5.99-9.38,9.09-3.06,2.99-6.28,6.29-8.92,9.14l-.29.32c-6.05,6.55-16.27,6.95-22.81.9-6.21-5.74-6.85-15.27-1.74-21.82Z"/>
      <g>
        <g>
          <circle class="cls-3" cx="1084.44" cy="1891.64" r="57.56" transform="translate(-1005.75 2512.46) rotate(-76.72)"/>
          <path class="cls-9" d="m1084.44,1965.34c-40.64,0-73.71-33.07-73.71-73.71s33.07-73.71,73.71-73.71,73.71,33.07,73.71,73.71-33.06,73.71-73.71,73.71Zm0-115.13c-22.84,0-41.42,18.58-41.42,41.42s18.58,41.42,41.42,41.42,41.42-18.58,41.42-41.42-18.58-41.42-41.42-41.42Z"/>
        </g>
        <g>
          <path class="cls-3" d="m1026.31,2060.84l-324.9,6.67c-38.45.8-70.59-30.02-71.39-68.53l-3.54-172.9c-.69-33.71,22.87-62.51,54.58-69.69,4.49-1.05,9.15-1.6,13.95-1.71l324.85-6.67c38.5-.8,70.64,30.03,71.39,68.53l2.84,136.94.75,35.96c.8,38.5-30.07,70.59-68.53,71.39Z"/>
          <path class="cls-3" d="m1026.31,2060.84l-324.9,6.67c-38.45.8-70.59-30.02-71.39-68.53l-3.54-172.9c-.69-33.71,22.87-62.51,54.58-69.69,4.49-1.05,9.15-1.6,13.95-1.71l324.85-6.67c38.5-.8,70.64,30.03,71.39,68.53l2.84,136.94.75,35.96c.8,38.5-30.07,70.59-68.53,71.39Z"/>
          <path class="cls-3" d="m1026.31,2060.84l-324.9,6.67c-38.45.8-70.59-30.02-71.39-68.53l-3.54-172.9c-.69-33.71,22.87-62.51,54.58-69.69,4.49-1.05,9.15-1.6,13.95-1.71l324.85-6.67c38.5-.8,70.64,30.03,71.39,68.53l2.84,136.94.75,35.96c.8,38.5-30.07,70.59-68.53,71.39Z"/>
          <g class="cls-6">
            <path class="cls-9" d="m1026.79,2060.85l-324.9,6.67c-38.45.8-70.59-30.02-71.39-68.53l-3.54-172.89c-.69-33.71,22.87-62.51,54.58-69.69,18.7,11.87,30.58,19.47,30.58,19.47,18.67,138.46,59.61,206.85,232,206.13,74.41-.33,121.14-12.64,150.45-28.51l.75,35.96c.8,38.5-30.07,70.59-68.53,71.39Z"/>
          </g>
          <path class="cls-9" d="m708.7,2083.5c-51.51,0-93.93-41.35-94.99-93.08l-3.19-155.09c-1.08-52.39,40.67-95.88,93.06-96.96l307.05-6.31c52.47-1.3,95.89,40.67,96.97,93.06l3.19,155.09c1.08,52.39-40.67,95.88-93.06,96.96l-307.05,6.31c-.66.01-1.32.02-1.97.02Zm1.64-16.16h.05-.05Zm302.25-303.03c-.44,0-.87,0-1.31.01l-307.05,6.31c-34.59.71-62.16,29.43-61.45,64.02l3.19,155.09c.71,34.59,29.5,62.23,64.02,61.45l307.05-6.31c34.59-.71,62.16-29.43,61.45-64.02l-3.19-155.09c-.7-34.16-28.72-61.46-62.72-61.46Z"/>
          <path class="cls-3" d="m911.37,2062l-.62,1.24-209.35,4.29c-28.19.55-52.95-15.82-64.48-39.83-4.22-8.7-6.67-18.4-6.86-28.7l-1.61-76.81-.53-25.35-.89-44.5-.55-26.23c-.78-38.51,30.04-70.6,68.51-71.4l70.2-1.41c-32.23,6.76-56.27,35.8-55.6,69.82l1.03,51.32.89,42.08,1.6,79.58c.83,38.42,32.96,69.27,71.4,68.51l126.85-2.6Z"/>
          <g class="cls-6">
            <path class="cls-9" d="m944.53,2061.3l-.62,1.24-242.51,4.99c-28.19.55-52.95-15.82-64.48-39.83-4.22-8.7-6.67-18.4-6.86-28.7l-1.61-76.81-.53-25.35-.89-44.5c14.04-2.23,32.75-.68,43.33,19.92,14.67,28.53,29.39,18.63,40.26,2.17l.89,42.08,1.6,79.58c.83,38.42,32.96,69.27,71.4,68.51l160.01-3.3Z"/>
          </g>
          <path class="cls-9" d="m699.89,2083.68c-22.22,0-43.28-8.5-59.47-24.04-16.64-15.97-26.06-37.39-26.52-60.31l-3.55-172.92c-1-47.45,36.82-86.88,84.32-87.88l70.19-1.43,3.65,31.93c-25.31,5.33-43.3,27.93-42.77,53.75l3.55,172.91c.29,14.31,6.18,27.69,16.6,37.69,10.41,10,23.98,15.31,38.29,15.03l202.13-2.96c1.24-.02,2.57-.05,3.91-.02l4.99-.1v.32c8.27.75,16.36,3.82,16.54,15.57l.24,16.14-16.2.24-294.05,6.04c-.62.01-1.23.02-1.84.02Zm10.46-313.17l-15.02.3c-29.69.63-53.34,25.27-52.71,54.93l3.55,172.93c.29,14.3,6.18,27.67,16.6,37.67,10.41,10,24.01,15.44,38.29,15.03l17.07-.35c-13.27-15.21-20.72-34.35-21.12-54.66l-3.55-172.91c-.41-19.61,5.87-38.07,16.9-52.95Z"/>
          <path class="cls-8" d="m839.5,1908.36c.09,6.39-8.13,58.15-8.13,58.15,0,0-16.35.24-36.43.54-25.09.37-45.81-25.3-46.28-57.34-.47-32.04,19.48-58.32,44.56-58.69,16.93-.25,36.43-.54,36.43-.54,0,0,9.69,47.46,9.85,57.88Z"/>
          <path class="cls-1" d="m839.5,1908.36c.09,6.39-8.13,58.15-8.13,58.15,0,0-16.35.24-36.43.54-25.09.37-45.81-25.3-46.28-57.34-.47-32.04,19.48-58.32,44.56-58.69,16.93-.25,36.43-.54,36.43-.54,0,0,9.69,47.46,9.85,57.88Z"/>
          <path class="cls-9" d="m794.39,1979.16c-15.66,0-30.28-7.45-41.24-21.03-10.43-12.92-16.33-30.06-16.59-48.25-.57-38.67,24.77-70.5,56.49-70.97l25.44-.38c.13,0,.26,0,.39,0,12.09,0,22.49,8.54,24.82,20.45,5.16,26.39,7.82,42.94,7.92,49.19h0c.02,1.7.09,6.21-6.56,49.18-1.88,12.22-12.24,21.23-24.63,21.42l-25.31.38c-.24,0-.49,0-.73,0Zm24.47-116.41h-.02l-25.44.38c-18.06.27-33.01,21.52-32.64,46.4.19,12.81,4.18,24.67,11.23,33.4,6.35,7.87,14.58,11.94,22.77,12.02l25.3-.38c.53,0,.98-.39,1.06-.9,4.54-29.33,6.21-42.65,6.27-45.19-.07-3.61-2.07-17.25-7.47-44.85-.1-.52-.55-.88-1.07-.88Z"/>
          <ellipse class="cls-8" cx="830.51" cy="1908.49" rx="45.43" ry="58.02" transform="translate(-28.17 12.51) rotate(-.85)"/>
          <g class="cls-2">
            <path class="cls-3" d="m785.1,1909.18c.04,2.41.18,4.76.44,7.07,4.44-25.5,22.07-44.66,43.47-44.99,23.23-.34,42.66,21.61,45.84,50.26.79-4.4,1.15-9,1.08-13.72-.47-32.05-21.18-57.69-46.28-57.33-25.09.36-45.03,26.66-44.55,58.7Z"/>
          </g>
          <path class="cls-1" d="m785.1,1909.18c.48,32.01,21.18,57.69,46.28,57.33,25.1-.4,45.03-26.66,44.55-58.7-.06-5.05-.64-9.97-1.67-14.6-6.3,21.71-22.54,37.22-41.78,37.51-21.11.34-39.16-17.81-44.61-42.69-1.88,6.56-2.87,13.7-2.77,21.16Z"/>
          <path class="cls-9" d="m830.84,1978.61c-31.4,0-57.29-30.89-57.86-69.27-.57-38.67,24.77-70.5,56.49-70.97,15.97-.4,30.84,7.22,41.97,21.02,10.43,12.92,16.33,30.06,16.59,48.25.57,38.67-24.77,70.5-56.49,70.97-.23,0-.47,0-.71,0Zm-.65-116.03h-.36c-18.06.27-33.01,21.52-32.64,46.4.37,24.73,15.74,45.41,33.65,45.41h.34c18.06-.27,33.01-21.52,32.64-46.4-.19-12.81-4.18-24.67-11.23-33.4-6.26-7.76-14.21-12.01-22.41-12.01Z"/>
          <path class="cls-9" d="m925.28,2073.77h-.04c-6.69-.02-12.09-5.45-12.07-12.14l.27-87.5c.08-24.4,12.29-46.98,32.68-60.4,13.92-9.16,22.06-24.57,21.77-41.22l-2.11-123.32c-.11-6.68,5.21-12.2,11.9-12.31,6.64-.14,12.2,5.21,12.31,11.9l2.11,123.32c.43,25-11.79,48.12-32.67,61.86-13.58,8.94-21.73,23.99-21.78,40.25l-.27,87.5c-.02,6.67-5.44,12.07-12.11,12.07Z"/>
        </g>
        <path class="cls-3" d="m374.81,1827.12s-37.38,13.7-44.31,51.25c-8.04,43.57,24.24,75.38,24.24,75.38,0,0,181.11,45.04,272.29,2.12,0,0,62.75-57.14-.56-117.5,0,0-178.43,23.24-251.66-11.25Z"/>
        <g class="cls-6">
          <path class="cls-9" d="m627.05,1955.86c-91.21,42.92-272.29-2.12-272.29-2.12,0,0-32.29-31.8-24.24-75.36,3.21-17.39,12.89-29.65,22.42-37.81,5.37,28.06,24.09,46.51,24.09,46.51,0,0,181.13,45.04,272.29,2.12,0,0,1.78-1.59,4.42-4.58,7.22,40.35-26.7,71.24-26.7,71.24Z"/>
        </g>
        <path class="cls-9" d="m519.21,1990.55c-81.96,0-163.3-19.88-168.36-21.14l-4.29-1.06-3.15-3.11c-1.57-1.54-38.26-38.41-28.78-89.8,8.5-46.08,52.75-62.79,54.63-63.48l6.33-2.32,6.1,2.87c68.1,32.08,240.96,10.07,242.7,9.85l7.64-1,5.58,5.32c22.37,21.33,33.57,44.95,33.28,70.21-.47,40.83-31.66,69.7-32.99,70.91l-1.8,1.64-2.2,1.04c-31.93,15.03-73.4,20.08-114.7,20.08Zm-155.87-51.36c28.27,6.44,176.6,37.68,254.36,3.2,5.04-5.29,20.76-23.6,20.91-46.08.1-13.98-5.98-27.73-18.08-40.96-35.27,4.04-174.5,17.61-245.48-10.55-8.64,4.65-24.88,15.95-28.67,36.5-5.13,27.84,10.43,50.03,16.96,57.89Z"/>
      </g>
      <path class="cls-3" d="m589.16,1893.92c-.12.65-.28,1.33-.44,2.02-22.87,99.47-151.79,129.12-205.24,98.78-38.83-22.06-33.74-70.02-33.74-70.02,0,0-269.84,14.26-302.08-197.32-6.18-40.4-.48-81.57,14.71-121.81.04-.16.08-.24.08-.24,55.47-146.86,237.48-281.52,432.05-323.5l-89.21,259.74c-15.92,23.55-31.15,56.48-41.78,73.21,16.81,5.29,36.72,12.04,36.72,12.04,109.61,40.6,223.7,111.19,188.92,267.09Z"/>
      <g class="cls-6">
        <path class="cls-9" d="m494.5,1281.84l-52.81,153.81c-57.33-18.34-107.75-44.2-148.15-75.59,61.73-35.67,130.54-63.03,200.96-78.22Z"/>
      </g>
      <g class="cls-6">
        <path class="cls-9" d="m589.16,1893.92c-.12.65-.28,1.33-.44,2.02-22.87,99.47-151.79,129.12-205.24,98.78-38.83-22.06-33.74-70.02-33.74-70.02,0,0-269.84,14.26-302.08-197.32-6.18-40.4-.48-81.57,14.71-121.81-1.98,6.63-43.8,153.73,120.07,228.92,121.2,55.59,192.63,31.96,192.63,31.96,0,0,10.67,98.78,101.25,93.13,51.67-3.23,89.29-32.6,112.84-65.65Z"/>
      </g>
      <path class="cls-9" d="m497.89,1297.62c-85.77,18.72-168.08,54.74-240.64,104.36-36.23,24.87-70.06,53.26-99.77,85.26-29.64,31.97-55.21,67.75-72.89,106.8-17.62,38.92-26.68,81.53-22.02,123.01,2.43,20.76,7.68,41.4,15.99,60.33,8.31,18.98,19.85,36.37,34.09,51.42,28.47,30.29,67.29,50.48,108.35,62.87,20.6,6.22,41.89,10.59,63.43,13.4,10.77,1.41,21.6,2.42,32.44,3.04,10.7.6,21.99.86,31.99.48,9.02-.34,16.62,6.7,16.96,15.72.03.65.01,1.3-.04,1.93v.16c-.07.65-.16,2.63-.14,4.06,0,1.56.07,3.16.18,4.75.23,3.19.65,6.38,1.26,9.48,1.23,6.22,3.27,12.09,6.08,17.29,5.61,10.43,14.47,17.99,26.04,22.27,11.73,4.33,25.61,6.09,39.5,5.56,13.91-.43,28.03-2.83,41.55-6.98,27.07-8.14,52.16-23.23,69.62-44.2,4.5-5.14,8.12-10.89,11.63-16.66,3.13-5.97,6.19-12.02,8.22-18.49,1.23-3.15,1.96-6.48,2.88-9.74.87-3.31,1.49-7.1,2.26-10.62.81-3.58,1.34-7.18,1.86-10.78.53-3.6,1.16-7.2,1.4-10.8,3.22-28.79.36-57.7-10.02-83.82-10.33-26.15-28.1-49.12-49.99-68.1-21.9-19.06-47.61-34.38-74.67-47.25-13.52-6.43-27.53-12.31-41.56-17.68-13.82-5.36-29-9.26-43.39-14.06-8.82-2.94-13.59-12.47-10.65-21.29.38-1.15.88-2.23,1.47-3.23l.15-.25c3.16-5.29,6.86-11.08,10.69-16.85,3.76-5.84,7.62-11.77,11.63-17.66,4-5.91,8.28-11.72,12.6-17.53,4.4-5.77,9.06-11.43,14.19-16.77,3.13-3.26,8.32-3.37,11.58-.23,2.53,2.43,3.16,6.1,1.85,9.14l-.06.13c-2.73,6.31-5.36,12.67-8.01,19.06l-7.88,19.31c-2.67,6.46-5.38,12.96-8.3,19.48-2.87,6.58-5.92,13.13-10.22,19.75l-9.03-24.77c7.48,2.42,14.88,5.1,22.32,7.65,7.46,2.56,14.84,4.9,22.46,7.91,14.93,5.71,29.53,11.84,44.02,18.73,28.87,13.75,57.03,30.36,81.98,52.04,24.88,21.54,46.32,48.87,58.81,80.58,12.6,31.65,15.78,66.33,12.11,99.06-.3,4.14-.98,8.19-1.59,12.26-.59,4.07-1.2,8.14-2.09,12.13-.87,4.05-1.51,7.93-2.59,12.11-1.15,4.21-2.14,8.45-3.7,12.55-2.66,8.33-6.55,16.23-10.67,23.94-4.48,7.49-9.23,14.87-14.93,21.44-22.41,26.78-52.91,44.7-85.04,54.41-8.06,2.47-16.27,4.42-24.61,5.8-8.32,1.46-16.77,2.29-25.31,2.55-17.03.55-34.58-1.26-51.97-7.66-8.7-3.23-17.33-8.13-24.74-14.44-7.41-6.37-13.68-14.15-18.19-22.6-4.57-8.44-7.59-17.4-9.37-26.39-.89-4.5-1.49-9.01-1.81-13.55-.15-2.27-.24-4.55-.25-6.86,0-2.45.02-4.35.3-7.56l16.9,17.81c-12.5.47-23.75.14-35.52-.49-11.64-.66-23.24-1.75-34.79-3.26-23.11-3.02-46.07-7.72-68.59-14.51-22.5-6.82-44.59-15.73-65.41-27.51-20.82-11.72-40.37-26.36-57.06-44.08-16.72-17.65-30.45-38.33-40.18-60.6-9.78-22.33-15.72-45.82-18.53-69.76-5.43-48.37,5.23-96.95,24.67-139.83,19.53-43.1,47.14-81.48,78.65-115.49,31.59-34.02,67.19-63.86,105.19-89.94,76.1-52,161.87-89.57,252.09-109.29,8.71-1.9,17.31,3.61,19.22,12.32,1.9,8.71-3.61,17.31-12.32,19.22h0s-.08.02-.08.02Z"/>
      <g>
        <path class="cls-3" d="m1394.17,626.29c.32,3.29.64,6.59.88,9.91,9.39,110.47-8.42,224.07-55.39,330.59-9.87,22.37-20.95,44.39-33.39,65.98-6.01,10.54-12.44,20.99-19.09,31.41-20.24,31.26-42.58,60.36-66.77,87.28-20.81,23.24-43.02,44.81-66.31,64.67-28.08,24.02-57.9,45.53-89,64.57-11.41,6.86-22.89,13.45-34.56,19.7-213.65,114.19-480.39,114.5-697.9-22.19-111.44-69.98-195.28-166.67-248.52-276.47C-15.83,795.81-8.19,543.78,126.61,335.45c39.82-61.52,87.84-114.83,141.73-159.2,6.25-5.25,12.68-10.3,19.18-15.24,17.39-13.37,35.25-25.81,53.62-37.36,42.51-26.67,87.6-48.54,134.26-65.41,46.65-16.9,94.98-28.84,143.99-35.57,15.59-2.16,31.24-3.79,46.96-4.87,23.62-1.62,47.27-2.09,71.05-1.26,118.33,3.76,236.97,37.8,343.73,104.84,184.34,115.74,293.11,304.56,313.03,504.92Z"/>
        <path class="cls-9" d="m1394.18,626.29c11.26,113.6-6.12,230.78-54.5,340.49-9.9,22.37-20.96,44.4-33.41,66.02-6.04,10.53-12.46,20.96-19.09,31.37-5.02,7.78-10.19,15.41-15.49,22.88-6.86,4.65-13.92,9.13-21.22,13.53-494.63,297.6-902.3-124.95-902.3-124.95,0,0-182.33-558.08,312.3-855.67,9.34-5.62,18.68-10.84,28.03-15.68,123.84-64.08,273.11-57.67,391.32,16.28.43.27.86.54,1.29.81,184.36,115.75,293.17,304.59,313.07,504.92Z"/>
        <g class="cls-6">
          <path class="cls-9" d="m1395.05,636.2c9.39,110.47-8.42,224.07-55.39,330.59-9.87,22.37-20.95,44.39-33.39,65.98-6.01,10.54-12.44,20.99-19.09,31.41-20.24,31.26-42.58,60.36-66.77,87.28-20.81,23.24-43.02,44.81-66.31,64.67-28.08,24.02-57.9,45.53-89,64.57-11.41,6.86-22.89,13.45-34.56,19.7-213.65,114.19-480.39,114.5-697.9-22.19-111.44-69.98-195.28-166.67-248.52-276.47l1310.93-365.54Z"/>
        </g>
        <path class="cls-9" d="m699.63,1384.95c-128.52,0-256.33-35.27-367.86-105.33-154.75-97.17-261.65-248.53-301-426.21-39.67-179.1-6.12-363.36,94.46-518.86,39.28-60.62,87.08-114.3,142.07-159.56,5.95-4.99,12.43-10.14,19.25-15.31,17.3-13.3,35.39-25.89,53.75-37.42,42.19-26.48,87.46-48.54,134.56-65.56,46.62-16.91,95.18-28.9,144.32-35.64,15.79-2.18,31.63-3.82,47.08-4.88,24.12-1.65,48.07-2.07,71.19-1.27,122.11,3.87,241.26,40.21,344.55,105.1,178.61,112.14,292.98,296.61,313.78,506.12,11.53,116.14-7.35,234.17-54.61,341.32-10.01,22.67-21.28,44.92-33.49,66.15-5.56,9.74-11.82,20.02-19.13,31.46-20,30.91-42.52,60.34-66.92,87.48-20.4,22.8-42.76,44.61-66.44,64.83-27.7,23.68-57.73,45.44-89.24,64.71-11.35,6.88-22.99,13.53-34.62,19.78-103.87,55.5-218.05,83.1-331.68,83.1Zm14.96-1367.18c-15.83,0-31.94.55-48.12,1.66-15.38,1.06-31.14,2.7-46.86,4.86-48.92,6.71-97.25,18.65-143.65,35.48-46.88,16.94-91.95,38.9-133.94,65.26-18.27,11.47-36.27,24.01-53.5,37.25-6.78,5.14-13.23,10.26-19.15,15.22-54.75,45.05-102.33,98.48-141.42,158.82C27.85,491.07-5.54,674.46,33.94,852.71c39.16,176.82,145.55,327.46,299.56,424.16,209.15,131.38,475.95,139.86,696.28,22.13,11.58-6.22,23.17-12.84,34.47-19.69,31.36-19.17,61.25-40.84,88.82-64.4,23.57-20.12,45.83-41.84,66.13-64.53,24.3-27.02,46.71-56.31,66.61-87.07,7.28-11.38,13.51-21.63,19.05-31.32,12.16-21.13,23.37-43.29,33.34-65.84,47.03-106.64,65.83-224.1,54.35-339.69-20.7-208.51-134.52-392.09-312.28-503.69-102.8-64.58-221.38-100.75-342.92-104.6-7.5-.26-15.09-.39-22.74-.39Z"/>
        <path class="cls-9" d="m699.63,1395.83c-130.53,0-260.37-35.83-373.65-106.99-157.23-98.73-265.85-252.53-305.84-433.07-40.3-181.96-6.23-369.17,95.95-527.12,39.89-61.57,88.44-116.09,144.3-162.05,6.01-5.04,12.63-10.31,19.59-15.58,17.51-13.46,35.88-26.25,54.53-37.96,42.85-26.89,88.82-49.3,136.65-66.58,47.33-17.17,96.64-29.35,146.54-36.19,16.03-2.21,32.12-3.88,47.81-4.96,24.5-1.66,48.82-2.1,72.32-1.29,124.01,3.93,245.04,40.84,349.96,106.76,181.48,113.94,297.69,301.38,318.83,514.27h0c11.72,118.01-7.47,237.92-55.49,346.79-10.17,23.02-21.61,45.62-34.02,67.19-5.64,9.86-11.99,20.31-19.4,31.89-20.34,31.44-43.21,61.33-68,88.9-20.71,23.14-43.42,45.3-67.47,65.83-28.13,24.04-58.63,46.16-90.63,65.72-11.54,7-23.35,13.75-35.14,20.08-105.49,56.37-221.43,84.38-336.83,84.38Zm14.96-1367.17c-15.59,0-31.44.54-47.38,1.63-15.12,1.04-30.64,2.65-46.11,4.79-48.16,6.61-95.74,18.35-141.43,34.93-46.16,16.68-90.52,38.3-131.86,64.24-17.98,11.29-35.7,23.63-52.66,36.66-6.7,5.08-13,10.09-18.79,14.94-53.96,44.4-100.79,97-139.28,156.4C38.58,494.52,5.72,674.98,44.57,850.35c38.53,173.96,143.2,322.15,294.72,417.29,205.86,129.31,468.47,137.65,685.36,21.74,11.39-6.12,22.82-12.65,33.95-19.39,30.84-18.85,60.26-40.18,87.39-63.37,23.21-19.81,45.11-41.18,65.1-63.52,23.93-26.61,45.99-55.44,65.58-85.72,7.15-11.18,13.29-21.27,18.74-30.81,11.98-20.83,23.02-42.63,32.83-64.84,46.27-104.92,64.77-220.49,53.48-334.21-20.37-205.13-132.35-385.75-307.23-495.55-101.17-63.55-217.87-99.15-337.48-102.94-7.39-.25-14.87-.38-22.4-.38Z"/>
        <path class="cls-9" d="m699.63,1399.45c-131.2,0-261.71-36.02-375.58-107.55-158.06-99.24-267.25-253.86-307.45-435.36-40.52-182.92-6.26-371.1,96.44-529.88,40.09-61.88,88.89-116.68,145.04-162.88,6.03-5.05,12.7-10.36,19.71-15.67,17.59-13.52,36.05-26.37,54.79-38.14,43.07-27.04,89.28-49.55,137.35-66.92,47.57-17.25,97.12-29.49,147.28-36.37,16.11-2.22,32.28-3.9,48.06-4.99,24.62-1.67,49.07-2.11,72.69-1.3,124.65,3.95,246.3,41.06,351.77,107.31,182.44,114.54,299.26,302.97,320.51,516.98,11.78,118.63-7.51,239.18-55.78,348.61-10.22,23.14-21.72,45.86-34.19,67.53-5.66,9.91-12.05,20.41-19.48,32.04-20.46,31.62-43.44,61.66-68.36,89.37-20.81,23.26-43.63,45.53-67.81,66.17-28.28,24.17-58.93,46.4-91.1,66.05-11.6,7.04-23.47,13.81-35.32,20.18-106.03,56.66-222.56,84.81-338.55,84.81Zm14.95-1367.17c-15.51,0-31.27.54-47.12,1.62-15.04,1.04-30.47,2.64-45.86,4.76-47.91,6.57-95.24,18.26-140.69,34.75-45.93,16.6-90.05,38.1-131.17,63.91-17.88,11.23-35.5,23.5-52.38,36.46-6.67,5.06-12.93,10.03-18.67,14.84-53.7,44.19-100.28,96.5-138.56,155.59C42.16,495.67,9.48,675.14,48.11,849.57c38.32,173,142.41,320.39,293.11,415,204.75,128.62,465.97,136.91,681.72,21.62,11.33-6.08,22.7-12.58,33.78-19.3,30.67-18.74,59.93-39.96,86.92-63.02,23.09-19.71,44.87-40.96,64.75-63.17,23.81-26.48,45.75-55.16,65.24-85.28,7.1-11.11,13.21-21.16,18.63-30.64,11.92-20.72,22.9-42.41,32.66-64.51,46.02-104.34,64.41-219.28,53.19-332.38-20.26-204.01-131.63-383.64-305.55-492.83-100.62-63.21-216.69-98.62-335.66-102.39-7.36-.25-14.79-.38-22.29-.38Z"/>
        <path class="cls-9" d="m699.63,1399.45c-131.2,0-261.71-36.02-375.58-107.55-158.06-99.24-267.25-253.86-307.45-435.36-40.52-182.92-6.26-371.1,96.44-529.88,40.09-61.88,88.89-116.68,145.04-162.88,6.03-5.05,12.7-10.36,19.71-15.67,17.59-13.52,36.05-26.37,54.79-38.14,43.07-27.04,89.28-49.55,137.35-66.92,47.57-17.25,97.12-29.49,147.28-36.37,16.11-2.22,32.28-3.9,48.06-4.99,24.62-1.67,49.07-2.11,72.69-1.3,124.65,3.95,246.3,41.06,351.77,107.31,182.44,114.54,299.26,302.97,320.51,516.98,11.78,118.63-7.51,239.18-55.78,348.61-10.22,23.14-21.72,45.86-34.19,67.53-5.66,9.91-12.05,20.41-19.48,32.04-20.46,31.62-43.44,61.66-68.36,89.37-20.81,23.26-43.63,45.53-67.81,66.17-28.28,24.17-58.93,46.4-91.1,66.05-11.6,7.04-23.47,13.81-35.32,20.18-106.03,56.66-222.56,84.81-338.55,84.81Zm14.95-1367.17c-15.51,0-31.27.54-47.12,1.62-15.04,1.04-30.47,2.64-45.86,4.76-47.91,6.57-95.24,18.26-140.69,34.75-45.93,16.6-90.05,38.1-131.17,63.91-17.88,11.23-35.5,23.5-52.38,36.46-6.67,5.06-12.93,10.03-18.67,14.84-53.7,44.19-100.28,96.5-138.56,155.59C42.16,495.67,9.48,675.14,48.11,849.57c38.32,173,142.41,320.39,293.11,415,204.75,128.62,465.97,136.91,681.72,21.62,11.33-6.08,22.7-12.58,33.78-19.3,30.67-18.74,59.93-39.96,86.92-63.02,23.09-19.71,44.87-40.96,64.75-63.17,23.81-26.48,45.75-55.16,65.24-85.28,7.1-11.11,13.21-21.16,18.63-30.64,11.92-20.72,22.9-42.41,32.66-64.51,46.02-104.34,64.41-219.28,53.19-332.38-20.26-204.01-131.63-383.64-305.55-492.83-100.62-63.21-216.69-98.62-335.66-102.39-7.36-.25-14.79-.38-22.29-.38Z"/>
        <path class="cls-9" d="m699.63,1399.45c-131.2,0-261.69-36.01-375.57-107.53-158.06-99.25-267.25-253.87-307.45-435.37-40.52-182.92-6.27-371.09,96.42-529.86,40.08-61.89,88.88-116.68,145.05-162.88,5.63-4.77,11.94-9.79,19.66-15.68,17.92-13.72,36.38-26.56,54.84-38.14,43.17-27.09,89.38-49.6,137.36-66.92,47.68-17.3,97.24-29.55,147.28-36.38,16.42-2.25,32.59-3.93,48.08-4.98,24.46-1.68,48.91-2.11,72.66-1.32,19.5.62,39.03,2.05,58.01,4.22,53.38,6.11,105.96,18.32,156.28,36.29,47.93,17.12,94.18,39.6,137.45,66.81,182.45,114.55,299.28,302.99,320.54,516.99h0c11.75,118.63-7.54,239.17-55.79,348.59-10.36,23.42-21.86,46.14-34.19,67.55-5.55,9.68-11.74,19.85-19.47,31.99-5.19,8.04-10.54,15.94-15.94,23.55-15.96,22.73-33.62,44.91-52.43,65.84-10.45,11.67-21.46,23.17-32.71,34.14-11.44,11.14-23.25,21.91-35.1,32.03-28.22,24.14-58.87,46.37-91.11,66.06-11.77,7.13-23.63,13.91-35.31,20.18-106.03,56.66-222.57,84.81-338.56,84.81Zm15.08-1367.17c-15.59,0-31.39.55-47.21,1.64-14.77,1-30.21,2.6-45.9,4.75-47.79,6.53-95.11,18.22-140.67,34.76-45.84,16.55-89.97,38.05-131.19,63.91-17.61,11.05-35.24,23.32-52.4,36.46-7.31,5.57-13.21,10.27-18.59,14.82-53.77,44.22-100.35,96.53-138.62,155.62C42.17,495.67,9.49,675.15,48.12,849.56c38.32,173.01,142.41,320.4,293.11,415.01,204.76,128.6,465.97,136.88,681.72,21.6,11.16-5.99,22.53-12.48,33.77-19.29,30.72-18.77,59.98-39.99,86.92-63.03,11.34-9.67,22.62-19.97,33.55-30.61,10.72-10.45,21.23-21.41,31.21-32.56,17.98-20,34.82-41.16,50.1-62.91,5.18-7.3,10.26-14.8,15.14-22.36,7.4-11.62,13.34-21.38,18.65-30.64,11.78-20.46,22.76-42.16,32.66-64.52,46-104.32,64.4-219.26,53.2-332.36-20.26-204-131.65-383.63-305.59-492.84-41.3-25.96-85.41-47.41-131.14-63.75-48-17.14-98.16-28.78-149.1-34.62-18.11-2.08-36.75-3.43-55.4-4.03-7.33-.25-14.74-.38-22.19-.38Z"/>
        <path class="cls-9" d="m839.01,1293c-104.65,0-193.89-24.36-262.86-53.19-179.84-75.18-293.5-191.44-298.25-196.35l-15.6-16.17-6.97-21.34c-2.12-6.52-51.58-161.5-33.76-355.49,11.93-129.79,74.63-448.15,398.39-601,6.33-2.99,12.93-5.88,19.64-8.6C726.3,5.69,825.44,1.78,918.76,29.88c11.24,3.38,22.51,7.09,33.5,11.02,47.93,17.12,94.17,39.6,137.45,66.81,182.45,114.55,299.28,302.99,320.54,516.99h0c11.75,118.63-7.54,239.17-55.79,348.59-10.36,23.42-21.86,46.14-34.19,67.55-5.55,9.68-11.74,19.85-19.47,31.99-5.19,8.04-10.54,15.94-15.94,23.55-15.96,22.73-33.62,44.91-52.44,65.84-10.44,11.67-21.46,23.17-32.71,34.14l-1.67,1.63-2.06,1.09c-131.2,69.33-251.86,93.91-356.97,93.91Zm-548.33-282.78l10.44,10.82c4.55,4.71,113.71,116.35,287.49,188.99,131.47,54.95,340.45,92.77,590.23-38.39,10.15-9.97,20.09-20.37,29.55-30.95,17.98-20,34.82-41.16,50.1-62.91,5.18-7.3,10.26-14.8,15.14-22.36,7.4-11.62,13.34-21.38,18.65-30.64,11.78-20.46,22.76-42.16,32.66-64.52,46-104.32,64.4-219.26,53.2-332.35h0c-20.26-204-131.65-383.64-305.59-492.85-41.3-25.96-85.41-47.41-131.14-63.75-10.48-3.75-21.22-7.28-31.94-10.51-86.3-25.98-177.82-22.43-257.73,9.99-6.16,2.5-12.21,5.15-18,7.88-308.7,145.74-368.6,450.49-380.02,574.76-17.22,187.45,30.28,336.29,32.31,342.54l4.66,14.26Z"/>
        <path class="cls-7" d="m1368.22,889.78c-7.88,25.97-17.37,51.7-28.52,77-9.91,22.38-20.99,44.4-33.42,66.03-6.06,10.51-12.49,20.96-19.1,31.37-5.03,7.78-10.19,15.39-15.51,22.87-6.84,4.65-13.9,9.14-21.2,13.54-494.62,297.57-902.32-124.97-902.32-124.97,0,0-71.47-218.67-3.55-455.3.02,1.42.05,2.83.08,4.23,3.27,159.19,91.19,304.56,230.37,381.9,178.57,99.22,462.67,182.46,779.88-8.39,4.51-2.71,8.92-5.49,13.28-8.29Z"/>
        <path class="cls-3" d="m405.25,1207.85c-21.05,12.68-135.23,39.03-135.23,39.03,0,0-102.32-63.09-156.55-153.26-7.31-12.1-15.62-35.14-23.75-61.66-19.74-64.02-38.3-148.41-38.3-148.41,0,0,39.23-65.94,97.8-101.21,90.45-54.44,221.11-3.27,291.78,114.23,7.5,12.47,14,25.18,19.58,37.97,46.89,108.11,25.5,224.63-55.34,273.3Z"/>
        <g class="cls-6">
          <path class="cls-9" d="m405.25,1207.85c-21.05,12.68-135.23,39.03-135.23,39.03,0,0-102.32-63.09-156.55-153.26-7.31-12.1-15.62-35.14-23.75-61.66l275.36-76.78s56.87,38.33,95.51-20.63c46.89,108.11,25.5,224.63-55.34,273.3Z"/>
        </g>
        <path class="cls-9" d="m267.18,1264.11l-5.64-3.48c-4.31-2.66-106.29-66.21-161.91-158.67-25.53-42.43-60.13-197.41-63.99-214.95l-1.37-6.24,3.27-5.49c1.69-2.84,42.02-69.85,103.38-106.77,97.93-58.91,238.76-5.21,313.93,119.73,36.02,59.86,51.91,127.15,44.75,189.46-7.34,63.89-37.89,115.01-86.03,143.98-22.12,13.31-120.43,36.43-139.91,40.93l-6.46,1.49Zm-198.58-377.56c11.38,50.61,40.22,168.09,58.68,198.77,44.5,73.97,124.24,130.02,145.74,144.3,43.7-10.28,110.84-27.74,123.89-35.59,39.35-23.68,64.43-66.29,70.6-120,6.35-55.27-7.97-115.34-40.34-169.14-66-109.68-186.95-158.46-269.63-108.71-45.02,27.08-78.58,74.59-88.94,90.37Z"/>
        <ellipse class="cls-3" cx="214.46" cy="1032.87" rx="174.81" ry="227.1" transform="translate(-501.79 258.4) rotate(-31.03)"/>
        <g class="cls-6">
          <path class="cls-9" d="m331.52,1227.47c-79.31,47.69-192.39,6.7-258.62-91.48,69.02,33.23,143.58,35.78,203.45-.23,59.87-36.01,92.53-103.08,95.52-179.6,55.7,104.5,39,223.61-40.35,271.31Z"/>
        </g>
        <path class="cls-9" d="m258.27,1263.36c-75.58,0-157.37-48.82-207.44-132.04-69.15-114.92-52-252.58,38.22-306.87,44.4-26.71,99.24-29.53,154.42-7.93,53.7,21.02,101.51,62.9,134.6,117.91h0c33.1,55.01,47.7,116.86,41.12,174.16-6.77,58.87-34.94,106-79.35,132.71-24.89,14.98-52.79,22.07-81.58,22.07Zm-87.18-428.88c-23.64,0-45.88,5.89-65.39,17.64-74.97,45.11-87.18,162.89-27.21,262.56,59.97,99.67,169.76,144.07,244.72,98.95,35.62-21.43,58.32-60.04,63.92-108.73,5.77-50.26-7.26-104.89-36.71-153.83h0c-29.45-48.94-71.6-86.05-118.71-104.49-20.64-8.08-41.1-12.1-60.62-12.1Z"/>
        <path class="cls-9" d="m258.27,1263.36c-75.58,0-157.37-48.82-207.44-132.04-69.15-114.92-52-252.58,38.22-306.87,44.4-26.71,99.24-29.53,154.42-7.93,53.7,21.02,101.51,62.9,134.6,117.91h0c33.1,55.01,47.7,116.86,41.12,174.16-6.77,58.87-34.94,106-79.35,132.71-24.89,14.98-52.79,22.07-81.58,22.07Zm-87.18-428.88c-23.64,0-45.88,5.89-65.39,17.64-74.97,45.11-87.18,162.89-27.21,262.56,59.97,99.67,169.76,144.07,244.72,98.95,35.62-21.43,58.32-60.04,63.92-108.73,5.77-50.26-7.26-104.89-36.71-153.83h0c-29.45-48.94-71.6-86.05-118.71-104.49-20.64-8.08-41.1-12.1-60.62-12.1Z"/>
        <g class="cls-5">
          <path class="cls-3" d="m546.67,348.24s255.02-109.1,462.44-37.69c.22.08.44.15.65.23,43.64,15.07,82.27,41.57,112.04,76.42,39.37,46.09,59.62,83.6,76.15,117.31,50.23,102.55,54.27,160.04,54.27,160.04,32.74-82.87,36.01-160.54-4.97-246.38-4.06-8.45-8.57-17.01-13.48-25.66-1.12-2-2.28-3.95-3.48-5.9.04-.04,0-.08-.09-.11-11.19-16.81-26.75-38.34-46.36-61.16-59.11-68.87-154.91-149.64-278.71-148.74-231.48,1.69-372.31,165.08-358.48,171.64Z"/>
        </g>
        <g class="cls-5">
          <ellipse class="cls-3" cx="539.06" cy="706.18" rx="81.28" ry="93.37" transform="translate(-118.76 109.07) rotate(-10.41)"/>
        </g>
        <g class="cls-5">
          <ellipse class="cls-3" cx="571.14" cy="872.75" rx="33.55" ry="38.57" transform="translate(-75.06 54.02) rotate(-5.08)"/>
        </g>
      </g>
      <g>
        <path class="cls-3" d="m246.08,1559.08c35.68,31.6,113.38,54.14,154.16,67.74"/>
        <path class="cls-9" d="m251.43,1553.04c10.27,8.03,22.29,14.44,34.68,20.08,12.43,5.62,25.35,10.48,38.48,14.88,26.32,8.87,53.2,15.87,80.75,23.5,8.6,2.38,13.64,11.29,11.26,19.89-2.38,8.6-11.29,13.64-19.89,11.26-.49-.13-.97-.29-1.44-.47l-.13-.05c-26.07-9.99-53.11-19.85-79.38-31.58-13.16-5.86-26.19-12.22-38.87-19.48-12.65-7.31-25.08-15.44-36.16-25.94-3.24-3.07-3.37-8.18-.3-11.42,2.88-3.04,7.56-3.34,10.8-.83l.21.16Z"/>
      </g>
      <path class="cls-9" d="m89.82,1843.27c-6.4,0-12.45-3.83-14.99-10.13-18.3-45.59-10.36-121.08,40.22-177.17,34.33-38.07,115.38-95.21,272.53-50.25,8.57,2.45,13.53,11.39,11.08,19.96-2.45,8.57-11.38,13.54-19.96,11.08-103.97-29.75-189.1-15.24-239.68,40.83-41.28,45.78-48.45,108.12-34.24,143.53,3.32,8.28-.69,17.68-8.97,21-1.97.79-4.01,1.17-6.01,1.17Z"/>
      <path class="cls-9" d="m1336.7,1529.84c-5.67,0-11.17-2.99-14.12-8.29-76-136.52-72.5-276.44-72.32-282.32.28-8.91,7.81-15.83,16.64-15.62,8.9.28,15.9,7.72,15.62,16.63h0c-.04,1.36-3.24,137.17,68.26,265.62,4.34,7.79,1.54,17.62-6.25,21.95-2.49,1.39-5.18,2.04-7.84,2.04Z"/>
      <path class="cls-9" d="m883.45,2415.84c-79.9,0-143.72-12.98-148.34-13.95-8.73-1.82-14.32-10.37-12.5-19.09,1.82-8.73,10.37-14.36,19.09-12.51,1.91.39,192.06,38.96,322.41-18.61,8.15-3.6,17.68.09,21.29,8.24,3.6,8.15-.09,17.69-8.24,21.29-60.92,26.91-132.09,34.63-193.7,34.63Z"/>
      <path class="cls-9" d="m529.73,2389.75c-111.13,0-182.02-25.51-186.13-27.03-8.36-3.09-12.64-12.37-9.55-20.73,3.08-8.35,12.36-12.63,20.71-9.56h0c1.34.49,135.47,48.4,321.94,9.77,8.72-1.8,17.27,3.8,19.08,12.53,1.81,8.73-3.8,17.28-12.53,19.08-56.63,11.73-108.4,15.94-153.53,15.94Z"/>
      <path class="cls-9" d="m341.87,2560.45c10.44-7.79,21.37-12.11,31.95-15.18,5.29-1.42,10.55-2.51,15.79-3.53,5.19-.69,10.42-1.68,15.55-2.09,20.6-2.06,40.75-1.95,60.72-1.11,19.96.87,39.71,2.7,59.36,4.85,19.64,2.17,39.18,4.77,58.65,7.56,4.42.63,7.48,4.72,6.85,9.14-.61,4.22-4.41,7.21-8.6,6.91-19.5-1.44-38.99-2.68-58.43-3.48-19.44-.78-38.85-1.24-58.09-.75-19.21.5-38.35,1.77-56.63,4.89-4.61.67-8.96,1.87-13.44,2.75-4.31,1.16-8.6,2.37-12.68,3.76-8.07,2.9-15.21,6.75-20.28,11.06l-.59.5c-6.81,5.77-17,4.93-22.77-1.87-5.77-6.81-4.93-17,1.87-22.77.25-.21.53-.43.79-.62Z"/>
      <path class="cls-9" d="m1041.83,2575.28c-17.04-5.46-35.63-8.59-54.43-10.37-18.84-1.76-38.03-2.17-57.2-1.47h-.04c-4.46.16-8.22-3.32-8.38-7.79-.15-4.09,2.76-7.58,6.68-8.26,19.56-3.44,39.37-5.78,59.49-6.69,20.12-.86,40.55-.4,61.45,3.19l.11.02c8.81,1.51,14.73,9.88,13.21,18.69-1.51,8.81-9.88,14.73-18.69,13.21-.73-.12-1.52-.32-2.2-.54Z"/>
      <g>
        <path class="cls-9" d="m2062.01,1162.75l-272.67-14.8c-.45-.02-.79-.41-.76-.85.02-.42.36-.74.76-.76l272.67-14.8c8.62-.47,15.99,6.14,16.46,14.76.47,8.62-6.14,15.99-14.76,16.46-.57.03-1.14.03-1.7,0Z"/>
        <path class="cls-9" d="m2273.19,891.69l-272.67-14.8c-.45-.02-.79-.41-.76-.85.02-.42.36-.74.76-.76l272.67-14.8c8.62-.47,15.99,6.14,16.46,14.76.47,8.62-6.14,15.99-14.76,16.46-.57.03-1.14.03-1.7,0Z"/>
        <path class="cls-9" d="m2210.08,1044.59l-272.67-14.8c-.45-.02-.79-.41-.77-.85.02-.41.36-.74.77-.76l272.67-14.8c8.62-.47,15.99,6.14,16.46,14.76.47,8.62-6.14,15.99-14.76,16.46-.57.03-1.14.03-1.69,0Z"/>
        <path class="cls-4" d="m2116.26,1155.72s18.26,78.49,70.68,121.66l461.73-225.23-532.41,103.57Z"/>
        <path class="cls-9" d="m2186.94,1292.99c-3.55,0-7.08-1.21-9.93-3.56-55.86-46-75.17-126.76-75.96-130.18-.96-4.13-.2-8.47,2.1-12.03,2.3-3.55,5.96-6.03,10.12-6.83l532.41-103.57c7.69-1.51,15.3,2.94,17.79,10.37,2.49,7.43-.92,15.55-7.96,18.99l-461.73,225.23c-2.17,1.06-4.51,1.58-6.84,1.58Zm-50.86-125.22c7.34,22.05,23.92,62.77,53.41,91l345.72-168.64-399.13,77.65Zm-19.82-12.05h.05-.05Z"/>
        <g>
          <path class="cls-3" d="m2140.54,947.91s5.93,71.22,36.15,113.75c30.22,42.52,471.98-9.5,471.98-9.5l-426.57-102.83-81.56-1.41Z"/>
          <path class="cls-9" d="m2287.21,1093.94c-106.74,0-117.38-14.99-123.25-23.24-32.33-45.49-38.72-118.41-38.98-121.49-.37-4.39,1.15-8.75,4.16-11.96,3.02-3.22,7.21-5.05,11.67-4.94l81.56,1.41c1.14.02,2.28.17,3.39.43l426.56,102.83c7.35,1.77,12.38,8.56,11.92,16.11-.45,7.55-6.25,13.69-13.76,14.57-1.11.13-112.14,13.14-225.44,20.77-58.22,3.92-103.12,5.51-137.85,5.51Zm-98.05-41.68c4.34,3.59,35.21,18.72,239.55,4.63,45.85-3.16,91.04-7.16,128.28-10.77l-336.88-81.21-61.76-1.07c3.6,22.47,12.21,62.02,30.8,88.42Z"/>
        </g>
        <g>
          <path class="cls-3" d="m2103.72,1031.18c-44.25,29.38-123.68,160.95-123.68,160.95,0,0,398.94-59.76,668.62-139.98,0,0-332.38-31.67-544.95-20.97Z"/>
          <path class="cls-9" d="m1980.04,1207.74c-5.17,0-10.06-2.57-12.99-6.95-3.36-5.03-3.5-11.55-.38-16.73,8.31-13.77,82.56-135.45,128.41-165.89,2.34-1.55,5.05-2.44,7.85-2.58,211.25-10.64,543.87,20.71,547.21,21.02,7.44.71,13.33,6.59,14.06,14.03.73,7.44-3.92,14.35-11.09,16.48-267.64,79.61-666.76,139.85-670.76,140.45-.77.12-1.55.17-2.31.17Zm129-161.19c-27.2,20.68-70.29,82.57-97.59,124.86,89.45-14.32,340.06-56.5,548.94-110.94-111.8-8.5-308.68-20.63-451.36-13.92Z"/>
        </g>
        <g>
          <path class="cls-3" d="m2140.54,947.91s60.16-64.65,101.62-95.74l406.51,199.98-508.13-104.24Z"/>
          <path class="cls-9" d="m2648.68,1067.77c-1.04,0-2.09-.11-3.15-.32l-508.13-104.24c-5.53-1.13-10.01-5.16-11.73-10.54-1.72-5.38-.4-11.26,3.44-15.39,2.5-2.68,61.59-66.03,103.68-97.59,4.7-3.53,10.99-4.11,16.26-1.52l406.51,199.98c7.05,3.47,10.42,11.63,7.88,19.06-2.19,6.42-8.21,10.56-14.76,10.56Zm-477.28-129.46l361.04,74.07-288.41-141.88c-24.41,19.58-53.74,48.52-72.63,67.82Z"/>
        </g>
      </g>
    </g>
  </g>
</svg>