<?xml version="1.0" encoding="utf-8"?>
<!-- Generator: Adobe Illustrator 27.1.0, SVG Export Plug-In . SVG Version: 6.00 Build 0)  -->
<svg version="1.1" id="Layer_2_00000109751538703133053340000008534287139670352560_"
	 xmlns="http://www.w3.org/2000/svg" xmlns:xlink="http://www.w3.org/1999/xlink" x="0px" y="0px" viewBox="0 0 572.1 562"
	 style="enable-background:new 0 0 572.1 562;" xml:space="preserve">
<style type="text/css">
	.st0{clip-path:url(#SVGID_00000013874265862640007480000006327511808272372653_);}
	.st1{fill-rule:evenodd;clip-rule:evenodd;fill:url(#SVGID_00000158003929104991931370000005157453731245006219_);}
	.st2{fill-rule:evenodd;clip-rule:evenodd;fill:url(#SVGID_00000115484582239630577190000011196515271857062281_);}
	.st3{opacity:0.5;}
	.st4{fill-rule:evenodd;clip-rule:evenodd;fill:#C4B0B8;}
	.st5{opacity:0.63;}
	.st6{opacity:0.47;}
	.st7{fill-rule:evenodd;clip-rule:evenodd;fill:#C4B0FF;}
	.st8{fill:#A7A9B7;}
	.st9{fill:#371A45;}
	.st10{opacity:0.6;}
	.st11{fill:#FFFFFF;}
	.st12{opacity:0.25;}
	.st13{fill:#62ED2E;}
	.st14{fill:#31C418;}
	.st15{opacity:0.7;}
	.st16{opacity:0.35;}
	.st17{fill:#111A28;}
	.st18{opacity:0.2;}
	.st19{fill:#22A7F0;}
	.st20{fill:#E8E8E8;}
	.st21{fill:#220F2D;}
</style>
<g>
	<defs>
		<rect id="SVGID_1_" width="552" height="562"/>
	</defs>
	<clipPath id="SVGID_00000000925859820999445340000006394131835705087149_">
		<use xlink:href="#SVGID_1_"  style="overflow:visible;"/>
	</clipPath>
	<g style="clip-path:url(#SVGID_00000000925859820999445340000006394131835705087149_);">
		
			<radialGradient id="SVGID_00000016798352827534076900000010462731315099408566_" cx="-491.0211" cy="-30.0566" r="1" gradientTransform="matrix(276.01 0 0 275.97 135803.5156 8571.835)" gradientUnits="userSpaceOnUse">
			<stop  offset="0.81" style="stop-color:#008BC4"/>
			<stop  offset="0.98" style="stop-color:#000000;stop-opacity:0"/>
		</radialGradient>
		<path style="fill-rule:evenodd;clip-rule:evenodd;fill:url(#SVGID_00000016798352827534076900000010462731315099408566_);" d="
			M552,276c0,152.4-123.6,276-276,276c-40.6,0-80.6-8.9-117.3-26.1c-7-3.3-13.9-6.9-20.6-10.8c-26.7-15.4-50.7-35.3-70.8-58.6
			c-7.3-8.5-14.2-17.4-20.4-26.7c-8.5-12.7-16-26.1-22.3-40.1C8.3,354,0,315.2,0,276C0,236.7,8.4,197.9,24.6,162.1
			c5-11.1,10.8-21.8,17.2-32.1c13.9-22.3,30.9-42.4,50.5-59.9C142.8,24.9,208.2-0.1,276,0c22.1,0,44,2.6,65.5,7.8
			c28.8,7,56.3,18.6,81.3,34.4c4.8,3,9.5,6.2,14.1,9.5c3.9,2.8,7.6,5.6,11.3,8.6c18.1,14.4,34.3,31.1,48.3,49.6
			c29.8,39.4,48.4,86.2,53.8,135.4C551.4,255.6,552,265.8,552,276L552,276z"/>
		
			<radialGradient id="SVGID_00000085248376401606122960000018336986086801604247_" cx="-491.4073" cy="-30.3866" r="1" gradientTransform="matrix(352.05 0 0 352 173222.2188 10892)" gradientUnits="userSpaceOnUse">
			<stop  offset="0" style="stop-color:#7C83FF"/>
			<stop  offset="0.84" style="stop-color:#482088"/>
			<stop  offset="0.95" style="stop-color:#403B77"/>
			<stop  offset="1" style="stop-color:#4D79D1"/>
		</radialGradient>
		<path style="fill-rule:evenodd;clip-rule:evenodd;fill:url(#SVGID_00000085248376401606122960000018336986086801604247_);" d="
			M532,276c0,141.4-114.7,256-256,256c-37.6,0.1-74.8-8.2-108.9-24.3c-6.5-3-12.9-6.4-19.1-10c-24.8-14.3-47-32.7-65.7-54.4
			c-6.8-7.9-13.1-16.1-18.9-24.8c-7.9-11.8-14.9-24.2-20.8-37.2c-15-33.1-22.7-69.1-22.7-105.4c0-36.4,7.7-72.5,22.8-105.6
			c4.7-10.3,10-20.3,16-29.8c12.9-20.7,28.7-39.4,46.9-55.6c46.8-41.9,107.5-65.1,170.4-65c20.5,0,40.9,2.4,60.8,7.3
			c26.7,6.5,52.2,17.3,75.4,31.9c4.5,2.8,8.9,5.8,13.1,8.9c3.6,2.6,7.1,5.3,10.5,8c16.8,13.4,31.8,28.9,44.8,46.1
			c27.6,36.6,44.9,80,49.9,125.6C531.5,257.1,532,266.5,532,276L532,276z"/>
		<g class="st3">
			<g class="st3">
				<path class="st4" d="M530.5,247.6c-0.9,1.6-1.7,3.4-2.3,5.1c-1,2.6-2.2,5-3.6,7.3c-1.5,3-2.8,6.2-4,9.3
					c-3,6.9-5.2,14.4-7.7,21.5c-2.8,7.9-5.4,15.8-8.7,23.5c-1.5,3.5-3.7,6.6-5.3,10c-1.5,3.4-3.1,6.7-4.9,10
					c-4.7,8-8.9,16.2-13.8,24.1c-8.9,14.2-19.6,26.8-29.9,39.9c-5.3,6.6-11.4,12.4-17.4,18.3c-6.8,6.7-12.7,14.2-19.8,20.7
					c-5.4,5.3-11.1,10.2-17.3,14.5c-3.5,2.3-6.9,4.9-10.5,7.2c-4.5,2.9-9.8,4.6-14.7,7c-16,7.7-33.2,12.5-50.1,18
					c-16.5,5.3-32.5,12.5-49.3,16.7c-3.5,0.9-7,1.2-10.5,1.9c-3.8,0.8-7.4,1.9-11.3,2.2c-7.8,0.9-15.2,3.5-23.1,4
					c-5.5,0.3-10.5-0.8-15.9-1c-6.9-0.1-13.7,0.2-20.5,0.9c-7.6,0.5-15.2,0.2-22.7-0.9c-6.5-3-12.9-6.4-19.1-10l0.7,0.2
					c4.5,1.4,8.6,4,13.1,5c4.8,1.1,9.8,1.9,14.7,2.7c6.5,1.1,13.1,1.2,19.6,0.1c3.5-0.6,7-1,10.4-1.7c3.8-0.8,7.6,0.2,11.3-0.7
					c5.3-1.3,11-0.3,16.4-0.5c9.2-0.3,18.2-3.7,27.1-5.5c9.9-2,19.2-5.6,29.3-6.8c5.7-0.7,10.2-2.6,15.7-4.3c4.7-1.4,7.6-4,11.5-7
					c7.5-5.6,15-11.3,23.7-14.9c8.7-3.5,17.8-6.2,27-7.9c8-1.5,15.4-5.1,21.6-10.3c2.6-2.3,5-4.7,7.5-7c3.2-2.7,6.3-5.5,9.2-8.6
					c3.2-3.6,6.8-6.9,9.9-10.5c3.5-4,6.3-8.5,9.7-12.6c5.5-6.4,13.8-9.8,19.2-16.3c1.1-1.3,1.9-3,3.1-4.3c1.2-1.3,2.5-2.1,3.3-3.8
					c0.9-2.1,3.1-7.1,1.9-9.5c-2.4-4.9-15.2,7.6-17.2,9.6c-3.2,3-5.8,6-9.6,8.2c-2.2,1.4-4.6,2.6-7,3.7c-4.1,1.7-8.8,1.9-13.1,2.8
					c-11.9,2.6-24.1,4-36.1,5.8c-16.3,2.5-32.8,5.9-48.9,9.9c-15,3.7-29.9,7.9-44.9,11.5c-8,1.9-16,4-24,5.7
					c-9.8,2.2-19.4,5.2-29.2,7.1c-16.2,2.9-32.5,6.5-49,7c-13,0.3-25.8,1-38.8,1c-17.5,0-36.2,1.8-53.3-2.3c-0.2,0-0.4-0.1-0.7-0.2
					c-6.8-7.9-13.1-16.1-18.9-24.8c6.3,2.8,12.8,4.9,19.6,6.1c4.9,0.9,10.1,2,14.2,4.9c2.5,2,5.4,3.7,8.5,4.8
					c11.2,3.6,21.1,3.4,32.2,0.1c4.2-1.2,8.3-2.5,12.4-3.9c3-1,5.8-2.8,8.9-3.7c8.6-2.2,17.6-3.9,26.3-5.9c4.1-1,8.5-1.7,12.6-3
					c4.6-1.4,8.9-3.8,13.3-5.6c8.4-3.5,16.3-7,25.3-8.6c5.7-0.9,12.3-1.6,17.5-4.3c1.7-0.8,4.2-2,3.9-4.3c-0.3-2.8-3.9-2-6-1.7
					c-5.8,1-11.8,1.5-17.6,3.1c-10.2,2.7-20.7,4.3-31.3,4.8c-15.9,1-32.1,2-48,1.2c-12.6-0.6-25.4-1.8-38-1.7
					c-12.2,0.1-24.2-0.9-35.8-4.8c-13.1-4.3-26.5-8.3-38.7-15C27.6,348.3,19.9,312.3,20,276c0-36.4,7.7-72.5,22.8-105.6
					c-1.7,4.7-3.1,9.5-5.1,14c-4,8.7-6.1,18.1-6.2,27.7c0.2,3.7,0.2,7.5-0.1,11.2c-0.6,4.7-1,7.8,0.3,12.6c1,3.5,1.3,6.9,2.9,10.3
					c0.5,1.1,1.2,2,2,2.8c0.8,1.1,1.4,2.2,2,3.4c2.1,3.4,5,7.9,8.6,9.9c2.4,1.2,4.9,2.1,7.5,2.8c3,0.9,4.2,1.2,7.2,0.1
					c2.4-1,5-1.6,7.6-2c1.4,0.2,2.8,0.5,4.2,0.9c1.8,0.3,3.6,0.1,5.4,0.5c7.5,1.6,14.9,3.4,22.6,3.4c6.1-0.1,12,1,18.2,1
					c7.4,0,14.7,0.2,22-0.7c4.9-0.6,10.2-1.9,15.2-2.2s10.2,0.1,15.2,0.1c17.5-0.3,35.6-4.5,50.8-13.3c8.1-4.8,16.8-8.5,25.9-11.1
					c11.7-3.4,23.6-6.7,35.6-8.9c11.1-2.1,21.9-5.6,32.2-10.4c4.5-2.1,8.9-4.7,13-7.6c3.8-2.6,7.9-4.5,11.5-7.2
					c10.5-7.8,19.8-16.9,29-26.2c5.3-5.3,10.6-10.5,16.1-15.6c4.5-4.1,9.4-6,15.2-7.4c9.3-2.2,14.5-12.7,19.5-20.2
					c6.3-9.4,11.6-20.3,11.9-31.9c0.1-4.8-0.2-9.6-1.1-14.3c-0.3-2.1-0.9-4.2-1.8-6.1c-0.7-1.2-1.4-2.5-1.9-3.8
					c-0.3-1.1-0.3-2.3-0.5-3.3s-0.8-2-1-2.9c-0.5-2.2-1.6-5.2-1.5-7.6V68c3.6,2.6,7.1,5.3,10.5,8c0.1,1,0,2-0.1,3
					c-0.2,1.2-0.6,2.2-0.9,3.4c-0.3,1.8-1,2.8-0.9,4.7c-0.1,1.9,0.1,3.9,0.5,5.8c1.2,4.7,4.3,9.2,4.3,14.2
					c-0.1,5.1-1.3,10.1-3.3,14.8c-1.8,4.5-3.8,8.7-5.9,13c-1.4,2.9-3.1,5.6-5,8.1c-2,2.3-3.7,4.8-5.3,7.4c-1.1,2.1-2.1,4.2-3.1,6.4
					c-1.7,3.9-4.3,6-7.3,9c-6.2,6-13.9,10.8-20.5,16.5c-5.5,4.5-10.4,9.6-14.7,15.2c-1.9,2.6-11.5,10.1-8.9,14.1
					c1.2,1.7,4.8,1.2,6.5,1.2c3.8,0,7.5-0.9,11-2.4c9.4-4.3,18.7-9.3,28.6-12.2c4.4-1.3,9.2-2,13.4-3.9c5.1-2.4,10-5.1,14.7-8.1
					c3.7-2.3,6-5.3,8.7-8.6c1.6-1.9,3.8-2.9,5.5-4.7c2-2,3.3-4.4,5.6-6.2c5.5-4.4,10.4-9.6,14.4-15.5c3.7-5.3,5-11.9,6.6-17.9
					c0.5-1.5,0.9-3.1,1-4.8c0.1-2,0-4.1,0-6.2V122C508.3,158.6,525.5,202,530.5,247.6L530.5,247.6z"/>
			</g>
			<g class="st3">
				<path class="st4" d="M413.8,80.8c-1,5.8-1.5,11.5-2.6,17.3c-1.1,5.8-1.4,12.2-3.8,17.6c-4,9.2-5.2,19.5-11.4,27.6
					c-2.6,3.5-4.7,7.2-8.1,10.1c-1.3,0.9-2.6,1.6-4.1,2.2c-1.3,0.9-2.7,2.2-4,3.1c-6.7,4.9-13.8,9.9-19.8,15.8
					c-6.4,6.3-12.4,12.4-20,17.3c-2.3,1.5-4.6,2.5-7,3.8c-1.8,1.2-3.7,2.3-5.6,3.2c-2.4,0.7-4.6,1.8-6.7,3.2
					c-1.8,1.4-3.8,2.5-5.9,3.4c-3.6,1.4-7.1,3.1-10.7,4.5c-1.7,0.7-3.4,1.1-5.1,1.6c-4.8,1.8-8.3,1.7-14.5,2.1
					c-2-0.9-0.3-0.9,1.3-1.6c1-0.4,1.9-1.1,2.6-2c1.3-1.4,2.8-2.8,4.4-3.9c2.7-2,6.3-2.9,9.2-4.7c3.7-2.3,7.4-5.2,11-7.7
					c3.1-2.1,5.4-5.4,7.9-8.1c2.7-2.9,6-5.4,9-8.1c3.5-3.1,6.4-6.6,10-9.6c3.6-3.1,6.6-6.9,8.8-11.1c1-1.8,2.6-3.1,3.6-5
					c1.1-1.7,2-3.4,2.9-5.2c0.9-2.1,2-4.1,2.9-6.2c1-2.4,1-5.3,1.5-7.8c1.6-7.5,3.1-15.1,4.5-22.7c1-6.4,1.5-12.9,1.4-19.5
					c0.2-6.2,2-12.2,2-18.4c0.2-2.3-0.1-4.6-0.9-6.8c-1.3-2.9-2.8-5.5-3.9-8.5c-3.2-9.4-9.2-17.6-17.1-23.6c-1.2-0.9-5-3.2-8.8-5.9
					c26.7,6.5,52.2,17.3,75.4,31.9C414.3,66.2,414.8,73.6,413.8,80.8L413.8,80.8z"/>
			</g>
			<g class="st3">
				<path class="st4" d="M339.6,81.2c-0.5,3.2-2.5,5.7-3.4,8.8c-1,3.5-1.8,7.1-2.3,10.7c-0.8,5.5-0.3,10.9-0.9,16.5
					c-1.4,10.4-4.5,20.6-9.2,30c-4.6,9.4-12.5,17.1-21.1,22.9c-8.9,6.1-18.8,10.7-28.5,15.2c-5.5,2.5-11.4,3.6-17,5.7
					c-4.8,1.8-9.4,3.8-14.1,5.6s-9,5-13.6,6.5c-2.9,0.9-5.8,1.9-8.7,3c-5,1.8-9.5,4.4-14.4,6.5c-6.9,3-14,5.3-21.2,7
					c-7.2,1.7-14.2,0.6-21.4-0.3c-6.1-0.6-12.1-1.4-18.1-2.6c-10.9-2.6-22.8-1.9-33.9-1.9c-8.5,0-18.3,0.8-25.8-3.8
					c-2.2-1.3-4.5-2.7-5.7-5c-1.5-2.8-1.7-6.3-2.3-9.3c-1.3-6.2-7.2-10.4-11.3-15c-5.3-6-7.3-13.5-8.3-21.2
					c-1-6.6-0.9-13.4,0.5-19.9c12.9-20.7,28.7-39.3,46.9-55.5c-4.3,8.1-7.5,16.8-11.3,25.2c-5.7,12.6-10.7,26.3-10.2,40.3
					c0.2,5.5,0.6,11.7,3.6,16.5c2.3,3.7,6,6.4,9.6,8.6c5.9,3.5,11.9,7.5,18.2,9.9c7.2,2.8,14.4,5.4,21.6,8.1
					c4.2,1.6,8.2,3.4,12.7,3.9c5.6,0.4,11.1,0.5,16.7,0.1c19.7-0.5,37.9-9.8,56.4-15.3c6-1.8,12.1-2.6,18-4.6
					c3.5-1.3,7-2.9,10.2-4.7c8.2-4.3,17.2-7.5,25-12.8c7.7-5.4,14.7-11.7,20.7-18.9c4.6-5.5,6.7-11,8.9-17.8
					c4.4-13.3,6.1-26.2,7.3-40.1c0.5-5.9,2.6-11.2,4-16.9c0.9-3.8,0.4-8.2-2.6-10.9c-6.1-5.4-15.1-8.7-22.9-10.5
					c-4.7-1.1-9.2-2.6-14.2-2.6h-14.4c-4.8,0-9.1-1-13.8-1c-5.5,0-10.5,1.5-15.9,2c-5.6,0.4-11.3,1.1-16.8,2.1
					c-6.6,1.2-13,3.8-19.4,5.7c-12.8,3.8-24.8,9.8-35.4,17.9c-2.6,2-5.5,3.7-8.2,5.5c-2.4,1.6-3.3,3.5-4.8,5.9
					c-3.1,4.8-5.4,10.1-6.8,15.6c-0.8,4-1.1,8.1-0.9,12.2c-0.1,5.5-0.6,11.1-1.6,16.5c-1.3,7.7-8.7,19.1-0.6,25.2
					c1.1,0.8,2.4,1.4,3.8,1.7s2.8,0.4,4.1,0.1c4.1-0.7,8.2-1.6,12.3-2.9c11.3-3.2,23.1-6.9,34.7-8.4c3.6-0.4,6.9-0.2,10.4-1.1
					c2.2-0.6,4.3-1.3,6.5-1.7c5.1-0.9,10.2-4.3,14.3-7.6c1.9-1.5,3.4-3.4,5.3-5c2.6-2.1,5.6-3.5,8.1-5.8c3.5-3.2,6.9-6.7,10.1-10.2
					c6.7-7.1,11.6-15.9,17.3-23.7c3.6-4.9,7.6-10.3,8.6-16.5c0.8-4.7-5-7.3-8.6-8.8c-3.9-1.6-8.1-2.2-12.2-1.7
					c-5.8,1-11,4.5-16.4,6.8c-11.8,5.2-24.9,6.4-35.2,14.7c-3.7,3-3.5,5.8-4.7,10c-0.8,2-1.8,3.9-2.9,5.7c-1.5,2.9-1.7,3.6-0.9,6.6
					c0.8,3,1.5,7,4.9,8.4c3,1.2,7.8,0.2,10.3-1.5c1.4-1.1,3-2.1,4.7-2.9c1.1-0.4,3.8-1.7,4.8-1.3c1.9,0.7,0.5,1.9-0.3,2.9
					c-0.7,0.9-1.2,1.9-1.7,2.9c-0.2,1-0.6,2-1.1,2.9c-3,3.4-9,5.2-13.2,6.6c-3.6,1.3-6.4,2.8-10.4,2.8c-5.4,0-3.2-3.9-4-7.9
					c-1.1-5-6.8-6.9-7.5-12.1c-0.6-5.2,1-10.9,3.1-15.5c1-1.9,2.1-3.7,3.4-5.5c2-3,4.9-4.8,8-6.9c9-5.9,20.1-8.7,30.3-12.2
					c10.2-3.4,21.2-4,31.3-7.6c6.8-2.5,14.1-3.2,21.1-4.5c6.5-1.2,12.2,1.4,15,7.3c2.9,6.3,6.3,13.1,4.3,20.1
					c-2.7,9.6-5.9,19.1-11,27.8c-6.2,10.7-13.8,20.8-25,26.7c-7.9,4.2-16.5,6.5-24.9,9.6c-6.3,2.5-12.9,4.4-19.6,5.5
					c-10.4,1.6-20,7.8-30.2,10.3c-14.1,3.5-28.3,6.3-42.6,8.3c-5,0.9-10.2,1.1-15.3,0.5c-2.4-0.3-4.6-0.1-6.9-1.1
					c-1.6-0.7-3.3-1.5-4.9-2.1c-5.6-2.4-11-6.4-10.3-13.2c0.6-6.4,2.9-12.8,4.1-19c0.8-4.2,0.9-8.2,1.9-12.4
					c0.8-3.2,1.5-6.4,2.3-9.5c0.7-2.7,1.8-5.4,3.3-7.8c3-4.2,5.3-9,8.4-13c1.3-1.4,2.5-3,3.6-4.7c0.7-1.5,1.6-2.9,2.8-4.2
					c1.2-1.3,2-3,3.3-4.4c2.5-2.3,5.2-4.3,8.1-6.1c6.1-4.5,12.7-8.4,19.6-11.6c6.8-2.9,13.8-4.9,20.7-7.2c6.2-2.2,12-5.5,18.2-7.9
					c7-2.6,14.3-4.4,21.7-5.3c14.8-2,29.6-3,44.6-3.1c18.7,0.1,39.4-7,57.1,1.9c4.5,2.1,8.1,5.8,10,10.4c3.1,7.5,4.7,15.6,4.5,23.7
					C339.7,74.3,340.1,77.8,339.6,81.2L339.6,81.2z"/>
			</g>
		</g>
		<g class="st5">
			<g class="st5">
				<path class="st4" d="M50.2,161.6c1.3,3.4,3,6.5,4.1,10c0.7,2.5,1.7,4.9,3,7.1c1.4,2.3,2.2,4.9,3.6,7.2c1.5,2.6,2.7,5.3,3.5,8.2
					c0.5,2.1,0.6,4.3,1.2,6.5c0.7,2.7,1.5,5.5,2.2,8.2c0.5,1.7,1.3,3.3,2.3,4.8c1,1.6,2.2,4.1,3.7,5.3c5.1,3.6,12.3,2.1,18.1,1.4
					c5.3-0.6,10.7-0.6,16-1.3c2.8-0.3,5.6-0.4,8.4-0.2c2.7,0.1,5.4,0.4,8,0.9c2.3,0.4,4.5,0.5,6.8,0.9c3.3,0.5,6.6,1.3,9.9,1.7
					c3.7,0.3,7.5,0.8,11.2,0.9c5.3,0.1,10.7-0.4,16,0.1c4.6,0.7,9.3,1.1,13.9,1.3c6.1,0,12.1-1.8,17.8-3.9
					c9.4-3.4,19.1-6.2,28.5-9.7c3.4-1.5,6.7-3.2,9.8-5.3c2.9-1.7,6-2.8,8.8-4.6c5.3-3.3,11.1-5.5,17.1-6.8
					c5.9-1.3,11.7-3.5,17.5-4.9c4-0.9,7.7-2.9,11.6-3.4c-0.7,3.1-7.5,4.2-9.9,5.1c-5.6,2-11.6,3.1-17,5.5c-3.5,1.6-6,4.6-8.8,7.2
					c-2.6,2.4-4.5,4.8-7.4,6.8c-2.9,2-6.1,3.3-9.6,3.9c-7.6,1.5-15,4.2-22.5,5.9c-7.6,1.7-14.9,3.4-21.9,6.6
					c-1.9,0.9-7.6,3.1-7.8,5.9c-0.2,2.2,2.5,1.4,4.1,1.4c3.4,0,7.8-0.8,11,0.5c2.3,1.1,4.6,2,7.1,2.7c5.8,1,11.7,0.4,17.1-1.8
					c7.2-2.8,15.2-4.3,22.8-5.7c5.3-1,10.4-2.5,15.7-3.6c4-0.7,8.1-1.2,12.2-1.4c6-0.6,11.9-1.2,17.9-2.2c4.7-0.8,9.9-1.3,14.2-3.4
					c3.6-1.8,7.8-2.9,11-5.4c0.8-0.7,5.6-4.8,6.8-3.9c2.3,2-10.9,9.6-11.9,10.2c-4.3,2.7-8.8,5-13.6,6.7c-6,2.5-12.2,3.5-18.5,5.1
					c-7.2,1.8-14.3,3.3-21.5,5.1c-7.1,1.8-14.5,2.7-21.6,5.1c-3.6,1.1-7.1,2.5-10.5,4.1c-3.1,1.6-6.4,2.6-9.4,4.3
					c-6.6,3.5-12.8,8.5-19.9,10.8c-6.2,2.1-12.6,3.6-19.1,4.2c-8.6,0.7-17.1-0.5-25.6-1.4c-8.7-1-17.4-1.5-26.1-1.5
					c-8.1,0.1-16.1,1.8-24.2,2.2c-5.6,0.3-10-1.7-15.1-3.6c-5.6-2.1-10.9-4.9-15.9-8.1c-4.5-2.8-9.7-4.2-15-4.1
					c-1.1,0.2-2.2,0.4-3.3,0.8c-1.3,0.1-2.6-0.2-3.6-1c-4.8-2.2-9.5-5.9-11.9-10.8c-2.3-5.3-3.8-10.9-4.4-16.6
					c-0.2-3.3-0.3-6.6-0.1-9.9c0-4.4-0.8-8.7-0.8-13.1c0-6.9-0.8-14.3,1.4-21c2-6.3,6.2-12.2,10.1-17.5c2.2-3,4-6.3,6.2-9.2
					c0.8,1.6-1.1,4.6-1.5,6.2C52.3,159.6,51.4,163.9,50.2,161.6L50.2,161.6z"/>
			</g>
			<g class="st5">
				<path class="st4" d="M375.7,199.4c-2,2.6-5.7,6-6.3,9.5s3.2,2.9,5.7,2.5c5.3-0.8,10.8-1.3,15.8-3.4c3-1.2,5.7-2.9,8.7-4.2
					c2.5-1,5.1-1.4,7.5-2.4c5.8-2.5,12.1-3.8,17.9-6.4c5.1-2.6,9.7-5.9,13.6-10c2.9-2.7,5.6-4.9,7.5-8.4c1.4-2.6,3.1-5.1,4.3-7.9
					c1.5-3.7,2.4-7.6,2.8-11.5c0.3-2.1,0.3-4.2,0.1-6.3c-0.7-4.8-5.5-5.3-9.6-4.7c-5,0.7-9.1,3.6-12.9,6.9
					c-3.7,3.2-6.6,6.8-10.7,9.2c-4.5,2.7-8.9,5.5-13.2,8.5c-2.3,1.5-4.5,3.2-6.5,5.1c-1.6,1.7-3.2,3.5-5,5c-1.8,1.5-3.8,2.9-5.8,4.1
					c-1.6,1-3.2,2.5-4.9,3.4c-2.2,1.1-4.2,2.6-6,4.3c-1.3,1.1-2.4,2.4-3.3,3.8C374.3,199,374.6,202.2,375.7,199.4L375.7,199.4z"/>
			</g>
			<g class="st5">
				<path class="st4" d="M434.2,129.5c0.9-2.7,1.5-3.7,4-5c1.6-0.8,2.6-1,3.8,0.7c2,3.3,0.6,7.4-0.8,10.6c-1,2.4-4.7,4.7-6.5,1.8
					c-1.2-2-1.1-7.9,1.6-8.7L434.2,129.5L434.2,129.5z"/>
			</g>
			<g class="st5">
				<path class="st4" d="M220.1,228.7c1.3-2.4,1.6-2.7,3.9-3.6c1.5-0.7,3.1-1.2,4.7-1.4c2-0.2,4.2-1.3,6.3-0.6
					c3.1,1.1,2.5,3.9,0.4,5.8c-0.8,0.9-1.9,1.6-3.1,1.9c-1.6,0.4-3.3,0.7-5,0.7c-2.9,0-5.3,0.1-7.8-1.6c-0.1-0.3,0-0.5,0.1-0.8
					C219.7,229,219.9,228.8,220.1,228.7L220.1,228.7L220.1,228.7z"/>
			</g>
			<g class="st5">
				<path class="st4" d="M100.2,409.2c8.2,2.9,16.8,4.3,25.5,4.4c10.3,0.3,20.5,0,30.7-0.9c6.8-0.6,13.6-0.5,20.3-1.4
					c3.3-0.5,6.4-0.3,9.7-0.5c1.9-0.1,3.9-1.2,5.7-0.6c7.1,2.2-5.5,6.3-7,7c-5.1,2.6-10.9,3.4-16.4,5c-2.1,0.6-4.3,1.2-6.3,1.9
					c-1.9,0.9-3.9,1.6-5.9,2.2c-8.4,1.8-16.8,2.6-25.2,4.4c-3.1,0.8-6.4,1-9.7,0.6c-3.3-0.6-6.5-2.6-9.4-4.1
					c-3.7-1.6-7.3-3.6-10.7-5.9c-1.7-1.2-3.4-2.5-4.9-4c-0.6-0.9-1.1-1.9-1.3-2.9c-0.8-2.2-0.8-3,1.1-4.6c0.7-0.6,1.5-1,2.4-1.2
					s1.8-0.2,2.7,0.1C101.5,408.9,101.6,409.1,100.2,409.2z"/>
			</g>
			<g class="st5">
				<path class="st4" d="M317.4,493.5c-4.3,1.2-8.3,3-12,5.5c-1.6,1.1-3.6,3.1-1.2,4.5c3.2,2,8.4,0.9,11.9,0.6
					c6-0.5,11.9-1.6,17.8-2.4c4-0.5,8-1,12-1.8c5.2-1.1,10.3-2.6,15.3-4.4c3.7-1.2,7.2-2.8,10.5-4.9c3.5-2,6.9-4.2,10.1-6.6
					c4.1-3.4,9.5-6.1,11.1-11.6c1.3-4.6-8.6-2.9-10.5-2.6c-7.3,1-14.5,2.9-21.5,5.4c-3,1.1-6.2,1.9-9.2,3.2c-4,1.8-7.7,3.8-11.8,5.4
					c-1.9,0.8-3.6,2-5.5,2.6c-1.7,0.6-3.4,1.2-5.1,1.9c-1.7,0.7-3.8,1.6-5.7,2.2C319.1,491.9,314.7,493.1,317.4,493.5L317.4,493.5z"
					/>
			</g>
			<g class="st5">
				<path class="st4" d="M396.4,460.1c0.8-2.5,2.3-3.6,4.2-5.4c1.4-1.4,2.8-2.9,4.9-3.2c1.5-0.2,4,1.5,3.3,3.3
					c-0.6,1-1.3,1.9-2.1,2.6c-0.7,1.1-1.6,2-2.7,2.6c-2.2,1-4.7,1.2-7,0.5L396.4,460.1L396.4,460.1z"/>
			</g>
			<g class="st5">
				<path class="st4" d="M422.1,400.2c-1.7,1-3.5,1.9-5.4,2.6c-1.4,0.3-2.9,0.6-4.4,0.8c-4.4,0.7-8.9,1-13.3,1.4
					c-5.6,0.5-11.2,1.3-16.9,1.8c-9.9,0.8-20.4,1.6-29.9,4.7c-8,2.5-15.7,5.9-23.1,9.9c-6.5,3.4-12.8,7.4-18.6,11.9
					c-1.9,1.6-3.7,3.3-5.4,5.2c-1.2,1.1-2.2,2.5-3,4c-1,2.4-0.1,4,2,5.3c3.2,2,7.1,2.2,10.8,2.7c5.4,0.8,10.9,1.4,16.3,2.3
					c5.6,0.9,11.2,1.5,16.9,1.9c5.8,0.3,11.9,0.1,17.4-2c3.9-1.4,7.7-3.1,11.4-5.1c3.6-2,7.1-4.1,10.5-6.4c2.5-1.5,4.9-3.2,7.1-5
					c0.9-0.9,1.9-1.6,2.9-2.5c1.5-1.3,2.6-2.9,4.1-4.2c3.4-2.9,6.5-6.1,9.2-9.7c2.1-2.7,4.6-5.1,6.7-7.8c1.2-1.6,2.5-2.5,3.2-4.5
					C421.4,405,421.9,402.6,422.1,400.2L422.1,400.2z"/>
			</g>
			<g class="st5">
				<path class="st4" d="M434,392.1c0.9-1.7,2.2-3.2,3.7-4.4c1.2-1.1,2.8-3.1,4.4-3.6c0.4-0.2,0.9-0.2,1.3-0.1s0.9,0.2,1.2,0.5
					c0.3,0.3,0.5,0.7,0.6,1.2c0.1,0.4,0.2,0.9,0.1,1.3c-0.3,2-2.3,3.6-4,4.4c-2.1,1.1-3.3,0.5-5.5,0.2L434,392.1L434,392.1z"/>
			</g>
			<g class="st5">
				<path class="st4" d="M509.6,321.2c-1.1,0.8-2.1,1.8-3,2.9c-1.3,1.9-2.4,4-4,5.7c-1.5,2-2.9,4-4.1,6.2c-1.6,2.7-3.4,5.3-4.8,8
					c-3.1,6-5.6,12.2-8.4,18.4c-1.4,3.1-2.6,6.2-4,9.2c-1.6,3.2-2.7,6.7-3.4,10.2c-0.4,2.6-1.1,7,2.4,7.4c4.3,0.6,8.6-3.1,11.7-5.5
					c8.1-6.5,15.1-14.4,20.6-23.3c5.5-8.8,10.9-19.3,9.5-29.9c-0.5-4.8-0.4-9.7,0.3-14.5c0.7-5.1,2.2-10.2,2.3-15.4
					c0-3.7,0.7-7.2-0.1-10.9c-0.1-1.2-0.7-2.3-1.5-3.1c-1-0.5-1.6,0-2.5,0.6c-2.6,1.9-4.6,4.3-6,7.2c-1.7,3.5-1.8,7.3-3.2,10.9
					c-0.4,1.3-0.9,2.5-1.4,3.8c-0.5,1-1.2,1.9-1.7,2.9c-0.8,1.8-1.4,3.7-1.8,5.6c-0.3,1.2-0.5,2.3-0.8,3.5c-0.3,0.9-0.7,1.9-0.9,2.9
					C504.8,325.2,505.1,325.9,509.6,321.2L509.6,321.2z"/>
			</g>
			<g class="st5">
				<path class="st4" d="M470.1,384.5c-0.9,0.8-6,5.9-4,7.1c0.5,0.4,2.1,0,2.6-0.2c1-0.5,2-1.2,2.8-2c0.5-0.4,1-0.9,1.2-1.5
					s0.3-1.3,0.2-1.9c0-2.2-1.4-2.2-3.3-1.4L470.1,384.5L470.1,384.5z"/>
			</g>
			<g class="st5">
				<path class="st4" d="M482.5,396.4c1.1-1.5,1.4-2.1,3-2.7c1.1-0.7,2.3-1.2,3.6-1.6c1.6-0.3,2.4,0.4,2.5,2
					c0.2,2.8-3.3,6.5-4.8,8.5c-1.9,2.6-4.1,5-6.6,7.1c-3.6,2.8-6.2-1.7-4.8-5.1c0.8-2,1.1-4.4,2.4-6.2c2-2.8,4.9-2.8,8.1-3.4
					L482.5,396.4L482.5,396.4z"/>
			</g>
			<g class="st5">
				<path class="st4" d="M206.5,88.1c-1.5,0.8-2.8,1.9-3.9,3.3c-1,1.4-1.8,2.9-2.2,4.6c-0.5,1.6-1.1,5.1,0.2,6.5
					c2.3,2.4,8.5-0.2,10.8-1.1c4.4-1.7,8.9-4.2,13.4-5.3c8.6-2,18.1-2.8,25.5-8.1c4.2-3.2,7.8-7,10.7-11.4c1.9-2.7,4.3-4.9,4.6-8.5
					c0.5-7.1-9.5-7.6-14.1-6.5c-10,2.2-19.7,5.5-29,9.8c-5.5,2.6-12.2,6-16.1,10.9c-1,1.4-1.8,2.9-2.3,4.4
					C203.7,88,202.7,91.2,206.5,88.1L206.5,88.1z"/>
			</g>
			<g class="st5">
				<path class="st4" d="M225.1,108.1c-1.2-2.6-1.8-2.9,0.2-4.5c1.6-1.3,3.4-2.4,5.3-3.3c2.2-1.1,4.7-1.7,7.1-1.6
					c5,0.6,2.7,6.2,1.2,8.9c-1,1.7-1.7,3.3-3.3,4.2c-1.9,1.1-3.2,1.6-5.3,0.9c-1.5-0.6-2.8-1.4-3.9-2.5c-0.8-0.8-2.8-2.1-2.6-3.5
					l0.6-0.1L225.1,108.1L225.1,108.1z"/>
			</g>
			<g class="st5">
				<path class="st4" d="M190.1,169.5c0.1-2.4-0.1-2.9,1.4-4.4c2.2-2.2,5.4-3.9,8-5.6c5.9-3.7,12.2-6.7,18.9-8.8
					c5.9-1.9,12-3.3,18.1-4.2c4.6-0.7,8.9-2.2,13.5-2.9c7.1-1,15.8-4.4,21.5,2.3c4.6,5.5-3.9,12.7-7.9,15.6
					c-3.4,2.5-7.3,4.2-11.5,5.1c-4.9,1.2-9.8,2.7-14.7,3.9c-9.1,2.3-17.6,6.6-26.4,10c-6,2.4-10.3,2.1-15.7-1.5
					C192.5,177.1,187.5,172,190.1,169.5L190.1,169.5z"/>
			</g>
			<g class="st5">
				<path class="st4" d="M272.9,128.8c-1.2,2.2-4.1,6.2-0.3,7.6c2.2,0.8,3.7-1,5.3-2.2c1.6-1.2,3.9-2.6,5-4.6
					c0.3-0.4,0.6-0.9,0.7-1.5c0.1-0.5,0.1-1.1-0.1-1.6c-0.2-0.5-0.5-1-0.8-1.4c-0.4-0.4-0.9-0.7-1.4-0.8c-4.5-2-6.6,2.3-9.1,5.3
					L272.9,128.8L272.9,128.8z"/>
			</g>
			<g class="st5">
				<path class="st4" d="M342.9,85.3c-4,4.1-6.3,8.9-5.7,14.7c0.6,5.8,4.5,6.9,9.2,4.6c1.4-0.6,2.8-1.3,4.1-2.1
					c1.3-1,2.1-2.9,3.1-4.3c2.3-2.8,3.5-6.4,3.4-10c0-3.6,0.4-7.4-0.5-10.9c-0.5-1.9-1.3-4.5-3-5.7c-2-1.3-3.5,0.4-5,1.6
					c-1.4,0.9-2.6,2.1-3.6,3.4c-1.6,3-2.8,6.2-3.6,9.4L342.9,85.3L342.9,85.3z"/>
			</g>
			<g class="st5">
				<path class="st4" d="M262.2,208c0.2-2.7,0.1-2.9,2.1-4.4c1.4-1.2,3-2.3,4.5-3.3c3-1.6,6.4-2.7,9.8-3c2.7-0.3,5.5,0.1,7.9,1.3
					c1.5,0.9,1.8,2.6,1.5,4.5c-0.5,2.6-3.1,4.2-5,5.7c-1.9,1.5-4.5,3.5-7,4.1c-2.9,0.9-6,1-9,0.4c-1.8-0.5-5.6-1.2-5.5-3.8
					L262.2,208L262.2,208z"/>
			</g>
			<g class="st5">
				<path class="st4" d="M297.2,183.1c1.8-2.5,2.9-4.7,5.5-6.3c1.2-0.7,4.1-2.9,5.6-2.9c0.6,0.1,1.1,0.4,1.6,0.8s0.7,1,0.9,1.6
					c0.2,1.2-1.1,2.9-1.7,3.9c-1.5,2.3-3.6,4.1-6.1,5.2c-1.1,0.6-2.4,0.7-3.6,0.4c-1.3-0.4-1.8-1.6-2.9-2L297.2,183.1L297.2,183.1z"
					/>
			</g>
			<g class="st5">
				<path class="st4" d="M158,77.4c-3.5,3.5-6.4,7.2-7.5,12.1c-0.3,0.7-0.3,1.5-0.1,2.2c0.2,0.8,0.6,1.4,1.1,1.9
					c1.9,1.7,4.2,0.8,6.4,0c6.1-2.1,11.9-5.7,17.1-9.2c4.9-3.2,11.4-4.1,15.1-8.7c2-2.5,4.1-5.3,2.2-8.6c-1.7-2.8-6-4-9-4.1
					c-4.4,0.1-8.7,1.2-12.5,3.4C165.8,69.3,161.5,73,158,77.4L158,77.4z"/>
			</g>
			<g class="st5">
				<path class="st4" d="M138,62.4c6.8-1.3,12.6-2.7,18.4-6.3c1.2-0.7,2.4-1,3.5-1.7c1.1-0.7,1.3-1.4,2.2-2.2
					c-0.6-2.7-8-1.1-9.7-0.4c-2.3,1-4.6,2.3-6.8,3.4c-1.2,0.5-2.3,1.2-3.4,1.9c-2.2,1.6-3.5,4.5-5,6.7C137.3,63.9,138,62.4,138,62.4
					z"/>
			</g>
		</g>
		<g class="st6">
			<g class="st6">
				<path class="st4" d="M347.8,212.8c-1.9,1.2-4,2.3-6,3.3c-3.4,1.4-6.5,3.3-9.8,4.8c-4,1.7-8.2,2.9-12.3,4.2
					c-5.8,1.9-11.3,4.4-16.5,7.4c-5.3,3.2-10.3,7.9-13,13.5c-1.5,3.2-2.2,7.6-0.3,10.8c1.1,2.1,2.8,3.8,4.9,4.9
					c3.5,1.6,6.8,0.6,10.3-0.2c4.4-1,8.7-2.5,12.7-4.5c2.1-1.1,4.2-2.4,6.3-3.6s4.7-2.1,7.1-3c1.8-0.8,3.7-1.4,5.6-2
					c2.3-0.8,4.5-1.9,6.4-3.4c3.8-2.8,7-6.3,9.4-10.4c2.9-5.3,4.5-10.6,3.5-16.6C355.2,213.6,351.9,211.3,347.8,212.8L347.8,212.8z"
					/>
			</g>
			<g class="st6">
				<path class="st4" d="M283.1,245.6c-1.3-1.8-2.2-1.6-4.3-1.5c-1.6,0.2-3.2,0.5-4.8,0.9c-7.9,1.7-16,2.5-23.8,4.5
					c-4.4,1-8.6,2.4-12.6,4.5c-3.9,2.1-8.1,4.1-12,6.4c-8.9,5.5-18.6,9.5-28.8,11.8c-6.4,1.3-12.7,2.6-19.1,3.8
					c-3.9,0.7-7.8,1.3-11.6,2.1c-3.8,0.8-7.6,1.9-11.5,2.8c-6.9,1.4-13.7,3.3-20.3,5.7c-6.7,2.5-13.6,4.9-18.9,10
					c-2.7,2.6-6.2,6.4-6.2,10.5c0.1,2.8,1.1,5.6,2.6,7.9c5.3,8.7,15.4,13.9,24.2,18.4c12.2,6.2,26.7,7,40.1,8.5
					c17.4,1.9,35.1,1,52.2-2.6c7.7-1.6,15.5-3.1,23.2-4.5c9.3-1.8,18.8-3,28.1-4.9c7.7-1.6,15.4-3.4,22.9-5.6
					c4.1-1.1,8.2-2.6,12.1-4.3c3.4-1.6,6.8-3.5,10-5.5c2.8-1.5,5.4-3.2,7.9-5.1c2.1-1.8,4-3.9,5.6-6.1c2.7-3.5,4.5-7.4,6.7-11.3
					c1.4-2.7,3-5.3,4.7-7.9c1.8-2.4,3.9-4.7,5.8-7c4.1-4.9,9-9.1,12.8-14.2c2.2-3,4.4-6.7,4.7-10.4c0.2-2.5,0.2-5.1-2.4-6.3
					c-2.6-1-5.4-1.3-8.2-0.9c-2.8,0.5-5.5,1.3-8.1,2.3c-4.7,1.4-9.2,3.1-13.5,5.4c-10.9,5.8-21.5,13.1-33.8,15.7
					c-5,1.1-10.1,1.6-15-0.4c-3.6-1.4-7.1-3.2-10.3-5.4c-4.2-3-2.9-6.7-1.1-10.8C281.4,250.1,283.7,246.1,283.1,245.6L283.1,245.6z"
					/>
			</g>
			<g class="st6">
				<path class="st4" d="M517.7,189c0,4.4-0.4,8.9-1.1,13.3c-0.3,2-0.6,3.9-0.9,5.9c-0.4,2.6-1.7,4.9-2.3,7.6
					c-1.1,4.6-3.3,8.7-5.3,13c-2,4.3-3.3,9-5.3,13.5c-5.5,12.6-8.7,25.8-14,38.4c-2.6,6.2-5,12.7-7.9,18.8
					c-2.6,5.5-5.8,10.8-8.5,16.2c-1,2-3.8,5.8-1.7,7.9c1.7,1.7,4.8,0.1,6.6-0.8c7.2-3.8,10.2-12.9,14.6-19.3c2.2-3.2,5.7-5.6,8-8.8
					c3-4.2,6.7-9.1,8.7-13.8c4.2-9.7,6.7-19.8,10.3-29.8c3-8.2,3.4-16.2,3.4-24.8c0-3.6,0.4-7.2-0.7-10.7
					C520.7,212.2,519.9,206.8,517.7,189L517.7,189z"/>
			</g>
			<g class="st6">
				<path class="st4" d="M504.4,201.4c-3,2.9-9.2,10.1-6.3,14.8c1.6,2.6,6.3,1.5,8-0.8c1.4-1.9,1.1-5.1,1.1-7.4c0-1.2,0.4-3.1,0-4.2
					s-1.6-1.3-1.8-2.4L504.4,201.4L504.4,201.4z"/>
			</g>
			<g class="st6">
				<path class="st4" d="M446.3,339.4c-3.9,2.3-7.6,4.9-11.1,7.6c-3.4,2.3-7,4.3-10.7,5.9c-9.4,4.5-19.5,7.6-29.8,9.3
					c-13.2,2.3-26.7,4.1-39.5,8.3c-9.7,3.2-19.4,6.6-29,10c-9.1,3.2-19.4,5.5-27.5,11c-2,1.3-4.7,3.4-4,6.1c1.1,4.3,10,4.5,13.1,4.6
					c9.5,0.4,19.1,0,28.5,0c4.5,0,9.1-0.2,13.6,0.2c5.6,0.6,11.3,0.6,17,0c7.1-0.6,14.5-0.5,21.4-2.6c13.2-4.2,26.3-9.2,39.2-14.3
					c11.6-4.6,28.4-14,27.4-28.5C454.4,350.7,450.6,342,446.3,339.4L446.3,339.4z"/>
			</g>
			<g class="st6">
				<path class="st4" d="M465.4,350.7c-1.9-4-2.4-5-0.4-8.6c1.3-2.3,5.3-5.7,8.2-5.8c5.9,0,6.1,6.8,4.8,10.9c-1.2,3.6-2.6,9-6.9,9.2
					c-0.7,0.1-1.4,0-2-0.1c-0.6-0.2-1.2-0.5-1.8-1c-1.4-1-3.3-4.3-4.8-4.6L465.4,350.7L465.4,350.7z"/>
			</g>
			<g class="st6">
				<path class="st4" d="M50.5,362.1c-1.1,4.5-1.7,8.6,0.5,12.9c3,6,9.7,10,15.8,12c3.9,1.1,7.8,1.7,11.9,1.8c4.5,0.2,9,0.9,13.5,1
					c6.7,0.1,13.4,0.6,20.1,1.6c3.7,0.5,7.3,1.6,11,2.1c2.9,0.3,5.7,0.8,8.5,1.4c6,1.4,12,1.4,18.1,2.3c6.4,0.8,12.9,0.6,19.3-0.5
					c5.6-0.8,11.4-1.6,14.1-6.9c2.1-4.2,0.6-6.5-3.1-9.4c-3.3-2.6-8.8-3.7-12.6-4.9c-5.9-2-11.7-3.8-17.8-5.3
					c-8.4-2-16.6-5-24.9-7.5c-17.1-5-33.6-12.1-51.5-13.7c-7.4-0.7-16.2-0.8-23,2.6c-2.2,1.2-3.9,3.2-4.7,5.5
					C44,360.7,45.8,362.9,50.5,362.1L50.5,362.1z"/>
			</g>
			<g class="st6">
				<path class="st4" d="M49.5,330.8c1,3.1,0.8,4.1,3.7,5c1.9,0.8,3.9,1,5.9,0.6c2.5-0.7,5.4-2.5,5.7-5.1c0.4-2.9-2.2-5-4.5-6.2
					c-4.7-2.5-8.5-2.3-10.8,2.9L49.5,330.8L49.5,330.8z"/>
			</g>
			<g class="st6">
				<path class="st4" d="M250.3,120.5c-0.1-1.7,0.2-3.4,1-4.9c0.9-2.1,2-4.2,3.3-6.1c0.9-1.3,1.5-2.8,2.3-4.2
					c1.2-1.9,2.5-3.7,3.5-5.8c1.5-2.6,3.3-4.9,5.3-7.1c1.3-1.5,2.4-3.1,3.3-4.8c0.8-1.4,1.9-2.5,2.6-3.9c1-1.7,1.7-3.8,2.6-5.6
					c0.9-2,2-3.9,3.2-5.7c0.8-1.4,1.7-2.7,2.9-3.8c0.9-0.9,1.8-1.7,2.8-2.4c2.3-1,3.5-0.2,4.6,1.9c1.8,3.7,2.7,7.9,2.5,12.1
					c-0.2,4.3-1,8.6-2.4,12.7c-1.1,2.8-2.5,5.6-4.1,8.2c-2.8,4.9-6.2,9.5-9.5,14.2c-1.9,2.7-5.2,5-7.9,7.1c-1.6,1.3-3.5,2.3-5.5,2.9
					c-1.1,0.4-2.7,1.2-4,0.9c-1.1-0.4-2.3-0.8-3.4-1.3C250.9,123.8,249.5,121.4,250.3,120.5L250.3,120.5z"/>
			</g>
			<g class="st6">
				<path class="st4" d="M239.8,124.3c-1.6,0.8-3.4,1.4-4.1,3.2c-0.2,0.5-0.5,1.5-0.2,2c1.3,1.9,5.9-0.6,6.9-1.7s2.2-2.9,1.2-4.3
					c-0.2-0.3-0.5-0.5-0.8-0.7s-0.7-0.3-1-0.3c-0.4,0-0.7,0-1.1,0.1s-0.6,0.3-0.9,0.5L239.8,124.3L239.8,124.3z"/>
			</g>
			<g class="st6">
				<path class="st4" d="M324,56.3c-1.1,0.5-2.1,1.2-3,2c-0.4,0.8-0.7,1.6-0.9,2.4c-1.1,3-1.9,6.2-2.2,9.3c-0.3,3.1-0.4,8.7,3.3,10
					c7.1,2.5,17.5-2.6,18.1-10.6c0.3-4.5-2.1-8.8-4.8-12.2c-1.3-1.8-2.8-3.5-4.5-5c-0.6-0.5-1.3-0.8-2-1c-0.7-0.2-1.5-0.3-2.2-0.2
					C323.2,51.5,321.4,54,324,56.3L324,56.3z"/>
			</g>
			<g class="st6">
				<path class="st4" d="M322.6,95.3c0-1.6,0-1.9,1-2.9c0.6-0.7,1.4-1.3,2.3-1.7c1.7-0.6,2.8,0.7,2.9,2.3c0.1,1.2,0.1,3.7-1,4.5
					c-1.1,0.8-5.5,0.1-5.3-1.7L322.6,95.3z"/>
			</g>
			<g class="st6">
				<path class="st4" d="M374.5,62.9c-0.7,3-0.6,6-1.2,9.1c-0.9,5-1.5,10-1.6,15c-0.1,2.6,0,5.2-0.1,7.8c-0.4,3.2-0.5,6.4-0.3,9.6
					c0.4,4.1,0.9,8.5,3.6,11.8c2,2.3,4.7,1.5,7.2,0.5c2-1,4-2.2,5.8-3.7c1.4-0.9,2.8-2,4.1-3.2c5.7-5.3,10.8-11.1,13.1-18.7
					c1.6-5.6,3.3-11.9,1.9-17.6c-0.7-3.7-2.4-7.1-4.8-9.9c-1.9-2.1-4.2-3.8-6.7-5c-2.1-1.1-4.4-1.2-6.6-1.7
					c-1.9-0.4-3.8-0.6-5.7-0.6c-1.8,0-3.5,0.2-5.3,0.5C374.1,57.5,373.2,62.5,374.5,62.9L374.5,62.9z"/>
			</g>
			<g class="st6">
				<path class="st4" d="M380.2,124.8c0.7-2.1,2.1-4.2,4.6-3.1c0.9,0.4,1.5,1.1,1.9,2c0.4,0.9,0.3,1.9,0,2.8
					c-0.3,0.7-0.9,1.2-1.6,1.4s-1.4,0.3-2.1,0.1c-0.9-0.4-1.7-1-2.3-1.8c-0.9-1.2-0.2-2,0-3.3L380.2,124.8L380.2,124.8z"/>
			</g>
			<g class="st6">
				<path class="st4" d="M386.9,175.7c-1.9,0.2-3.7,0.6-5.5,1.2c-0.2,0.4-0.4,0.8-0.7,1.2c-0.4,0.5-1.5,1.2-1.3,1.9
					c2.4,1,5.8-0.6,7.9-1.7c1.1-0.5,2.1-1.2,3-2c0.6-0.5,1.1-1.1,1.6-1.7c0.8-1.4,0-2.1-1.4-2.1s-4.9,1.1-5,2.9L386.9,175.7
					L386.9,175.7z"/>
			</g>
			<g class="st6">
				<path class="st4" d="M465.8,167.6c0,1.6-0.3,3.2-1.1,4.6c-0.7,1.7-1.6,3.7-1.3,5.6c0.7,4.5,6.9,3.6,10,3.2
					c3.7-0.5,7.2-1.3,10-3.9c2-1.7,3.4-4.1,3.6-6.8c0.7-4.8,1.8-12.8-5.3-12.8c-2.9,0.2-5.7,1.2-8.1,3c-1.6,1.1-3,2.5-4.2,4.1
					C467.9,166.6,466.1,168.2,465.8,167.6L465.8,167.6z"/>
			</g>
			<g class="st6">
				<path class="st4" d="M416.4,426.3c2.1-6.7,5.3-12.3,11.4-16.1c1.4-0.9,2.6-2,4.3-1.1c1.4,0.7,1.1,2.4,0.7,3.7
					c-0.8,2.1-2,4.1-3.5,5.9c-1.4,1.6-3,3.1-4.5,4.6c-0.9,1-2,1.7-3.3,2.1C419.7,425.5,418,425.8,416.4,426.3L416.4,426.3z"/>
			</g>
			<g class="st6">
				<path class="st4" d="M174.2,434c0.1-2.6,1.6-3.8,3.6-5.4c4.5-3.5,9.6-6.1,15.1-7.6c4.7-1.5,10.2-2.5,15.1-1.2
					c2.2,0.6,4.9,1.6,5.8,3.9c1.6,3.8-2.5,9.5-5.6,11.6c-3.8,2.6-9.4,3.5-13.8,4.8c-4.1,1.2-8.4,1.6-12.6,1.1
					c-1.5-0.1-3-0.4-4.5-0.8c-1.4-0.3-2.8-0.8-4.1-1.2c-1.2-0.6-2.7-1.6-2.8-3c0-0.9,0.2-1.7,0.6-2.4
					C171.6,432.3,173.2,432.1,174.2,434z"/>
			</g>
		</g>
		<g>
			<path class="st7" d="M458.9,150.4c-1.5,1-4.5,2.5-4,4.9c0.4,1,0.8,2.1,1.2,3.1c0.3,0.9,0.5,1.9,0.6,2.9c0.2,1.6,0.8,3.1,1.8,4.4
				c0.7,0.8,1.5,0,2-0.8c0.6-0.8,1-1.7,1.1-2.6c0-1.2,0.2-2.5,0.4-3.7c0.1-0.5,0.5-0.9,0.6-1.3c0.1-0.7,0.1-1.4,0.1-2
				c0-1.1-0.4-2.1-1.1-3S460,150.7,458.9,150.4L458.9,150.4z"/>
			<path class="st7" d="M434.1,284.2c-0.3,0.1-0.6,0.2-0.8,0.5c-0.1,0.2-0.1,0.3-0.1,0.5c-0.1,0.8,1,1.1,1.5,1.2
				c0.8,0.2,1.5,0.3,2.3,0.2c0.8-0.1,1.5-0.3,2.2-0.7c0.5-0.3,0.9-0.7,1.3-1.2c0.3-0.5,0.6-1,0.7-1.6c0-0.7-0.2-1.4-0.6-2
				c-0.4-0.6-0.9-1.1-1.6-1.4c-0.5-0.4-1.2-0.6-1.9-0.7c-0.7-0.1-1.4,0-2,0.3c-0.5,0.3-0.8,0.7-1,1.1c-0.1,0.4-0.1,0.8-0.2,1.2
				c-0.1,0.4-0.5,0.9-0.4,1.5C433.6,283.6,433.8,284,434.1,284.2L434.1,284.2z"/>
			<path class="st7" d="M442.6,286.8c0-0.2,0-0.3,0.1-0.5c0.1-0.1,0.2-0.3,0.3-0.3c0.1-0.1,0.3-0.2,0.4-0.2c0.2,0,0.3,0,0.5,0.1
				c0.1,0.1,0.2,0.2,0.3,0.3c0.1,0.1,0.1,0.3,0.1,0.4c0,0.1,0,0.3,0,0.5c0,0.1-0.1,0.3-0.2,0.4c-0.1,0.1-0.3,0.2-0.5,0.3
				s-0.4,0.1-0.6,0c-0.2-0.1-0.4-0.2-0.5-0.4s-0.2-0.4-0.2-0.6L442.6,286.8L442.6,286.8z"/>
			<path class="st7" d="M463.4,255.1c-0.5,0-1,0.3-1.3,0.7c-0.1,0.1-0.2,0.2-0.3,0.4c-0.1,0.1-0.1,0.3-0.1,0.5
				c0.1,1,0.6,1.8,1.4,2.5c0.2,0.2,0.5,0.3,0.8,0.4c0.3,0.1,0.6,0,0.9,0c0.5-0.2,1-0.6,1.5-1c0.4-0.3,0.8-0.6,1.2-1
				c0.4-0.2,0.7-0.6,0.9-1s0.2-0.9,0.2-1.3c-0.1-0.4-0.3-0.8-0.6-1.2s-0.7-0.6-1.1-0.7c-0.6-0.1-1.2-0.1-1.7,0.2
				C464.4,253.7,463.9,253.7,463.4,255.1L463.4,255.1z"/>
			<path class="st7" d="M459.5,257.9c0.4,0.1,0.8,0.4,1.1,0.7c-0.1,0.2,0.1,0.4,0,0.6s-0.7,0.1-1,0c-0.3-0.1-0.6-0.4-0.7-0.7
				c0-0.1-0.3-0.6,0-0.6L459.5,257.9z"/>
			<path class="st7" d="M413.2,275c-0.4,0.5-0.9,1-0.6,1.7c0.2,0.3,0.4,0.5,0.7,0.6c0.3,0.1,0.6,0.1,1,0c0.3,0,0.7-0.1,0.8-0.5
				c0.1-0.4,0.2-0.8,0.3-1.2c0.3-0.9,1.3-1.3,0.8-2.4c-0.1-0.2-0.3-0.5-0.5-0.6c-0.2-0.2-0.5-0.3-0.7-0.3c-0.9,0-1.5,0.8-2,1.5
				L413.2,275L413.2,275z"/>
			<path class="st7" d="M287.6,364.5c0.3-0.6,0.6-1.6,1.5-2c0.6-0.2,1.2-0.2,1.8,0c1.5,0.2,2.9,0.7,2,2.1c-0.7,0.8-1.6,1.3-2.6,1.5
				c-0.9,0.1-2.5-0.1-2.4-0.9L287.6,364.5L287.6,364.5z"/>
			<path class="st7" d="M376.1,57.2c-0.3,1.3-0.8,3,0.7,4c1,0.6,2.6,0,3.5-0.7c1.5-1.3,2.5-3.1,2.9-5.1c0.2-1.7-1.9-3.6-3.4-3.8
				c-3.2-0.4-5,4.7-5.1,7.1L376.1,57.2L376.1,57.2z"/>
			<path class="st7" d="M368.9,347.9c-1,1.5-1.4,3.3-1,5.1c0.1,1.1,0.1,2.5,1.5,2.9c3.3,0.8,6.7-5.3,7.6-7.3c0.8-1.6,1.1-3.3,1-5.1
				c-0.1-1-0.8-2.9-2-3.2c-0.8-0.1-1.6-0.1-2.4,0.2c-0.8,0.3-1.5,0.7-2,1.3c-2.5,2.5-2.3,5.3-3.6,8L368.9,347.9L368.9,347.9z"/>
			<path class="st7" d="M367.2,347.7c-0.9,0.1-1.7,0.4-2.5,0.7c-0.4,0.2-1.1,0.6-1.2,1s0.2,1,0.5,1.3c0.2,0.1,0.4,0.2,0.6,0.2
				c0.2,0,0.4,0,0.6,0c0.3-0.2,0.6-0.4,0.8-0.7c0.4-0.4,0.7-0.9,1-1.3c0.2-0.2,0.3-0.4,0.4-0.7c0.1-0.4-0.2-0.5-0.2-0.7L367.2,347.7
				L367.2,347.7z"/>
			<path class="st7" d="M363.4,362.3l1.1,0.3c-0.1,0.4,0,0.8-0.5,1c-0.5,0.2-1,0.3-1.5,0.2c-0.5-0.1-0.8-0.4-0.7-0.8
				s0.7-0.7,1.2-0.9L363.4,362.3L363.4,362.3z"/>
			<path class="st7" d="M307.6,374.6c0,0.4,0,0.7,0.5,0.8c0.4,0.1,0.8,0.1,1.2,0c0.4-0.1,0.8-0.3,1-0.5c0.8-0.8,1.5-2.1,1-2.9
				c-0.3-0.3-0.7-0.5-1.1-0.5s-0.8,0-1.1,0.3c-0.4,0.3-0.8,0.6-1.1,1c-0.2,0.2-0.3,0.5-0.4,0.8c-0.1,0.3-0.1,0.6,0,0.9L307.6,374.6
				L307.6,374.6z"/>
			<path class="st7" d="M249,279.6c-0.4,0.4-0.6,0.5-0.7,1c-0.1,0.3-0.1,0.5-0.1,0.8s0.1,0.5,0.2,0.8c0.9,1,2.1,1.7,3.4,2
				c0.5,0.1,0.9,0.1,1.4,0.1c0.5-0.1,0.9-0.3,1.3-0.6c0.5-0.3,0.9-0.7,1.2-1.2c0.3-0.5,0.5-1,0.6-1.6c0.1-0.5,0.1-1.1-0.1-1.6
				c-0.2-0.5-0.6-1-1.1-1.3c-0.9-0.7-1.9-1.2-3.1-1.5c-0.4-0.1-0.9,0-1.3,0.1c-0.4,0.1-0.8,0.4-1.1,0.7
				C249,277.8,248.2,278.8,249,279.6L249,279.6z"/>
			<path class="st7" d="M257.6,283.5c0-0.3,0-0.7,0.3-0.8c0.3,0,0.6,0,0.9,0.2c0.3,0.1,0.5,0.3,0.7,0.5c0.3,0.3,0.5,0.8,0.5,1.2
				c-0.1,0.3-0.3,0.5-0.5,0.7c-0.2,0.2-0.4,0.2-0.6,0.3c-0.2,0-0.5,0-0.7-0.2c-0.3-0.2-1-0.5-0.8-0.9L257.6,283.5L257.6,283.5z"/>
			<path class="st7" d="M92.2,249.7c-2.5-3.4-3.7-7.5-3.4-11.6c0.1-1.8-0.1-5,2.4-4.7c3.4,0.3,5.1,5.6,6.1,8.2
				c1.4,3.9,2.8,7.9,2.3,12.1c-0.7,5.8-8.3-5.7-9.1-6.8L92.2,249.7L92.2,249.7z"/>
			<path class="st7" d="M99.5,230.6c-0.6,3.4,0.9,8.1,4.5,9.2c1.3,0.4,1.8-0.4,2.5-1.6c0.4-0.6,0.7-1.2,0.8-1.9
				c0.1-0.7,0.1-1.4-0.1-2.1c-0.4-0.9-0.9-1.7-1.6-2.5c-0.4-0.4-0.7-0.9-0.9-1.4c-0.2-0.5-0.2-1-0.6-1.4c-1-1.1-4.9-2.1-4.6,0.6
				L99.5,230.6L99.5,230.6z"/>
			<path class="st7" d="M136.5,469c0.8-2.1,2.2-4,4.1-5.2c2.2-1.5,4.6-2.5,7.1-3.2c2.4-0.5,4.9-0.4,7.2,0.5c2.2,1.2,4.2,3,6.3,4.3
				c1.9,1.2,3.8,2,5.5,3.6c1.5,1.5,2.6,3.4,3.4,5.4c1.2,3.1,2,7.8,0.7,10.9c-1.2,2.8-2.9,2.9-5.7,2.8c-3.9-0.1-7.8-3.3-10.3-6.2
				c-1.1-1.5-2.4-2.9-3.8-4.2c-1.8-1.4-3.7-2.7-5.6-4c-1.9-1-3.7-2.2-5.4-3.4C139.4,469.7,137.1,467.9,136.5,469L136.5,469z"/>
			<path class="st7" d="M205.1,289.3c-0.2,1.5-0.6,2.1,0.4,2.8c0.3,0.2,0.7,0.4,1.1,0.4s0.8-0.1,1.1-0.4c0.8-0.5,2.6-2.2,2.4-3.2
				c-0.5-2.1-5.8-2.2-5.5,0.4L205.1,289.3L205.1,289.3z"/>
			<path class="st7" d="M304.8,357.3c-0.9-4,3.2-9.7,7.7-12.9c6.5-4.6,16.4-5.6,23.6-4.6c6.1,0.8,11.1,4,12.3,8.4
				c0.3,1.2,0.1,2.4,0.4,3.6c0.2,0.9,0.5,1.4-0.9,2.2c-3.3,1.9-8.5,3-12.2,3.6c-4.1,0.8-8.3,1.3-12.5,1.3c-3.5-0.1-6.9-0.6-10.4-0.7
				c-1.7,0-3.4-0.1-5-0.4C307.1,357.5,305.1,357.8,304.8,357.3L304.8,357.3z"/>
			<path class="st7" d="M338.3,333c0.6,0.8,0.6,1.2,1.8,1.3c0.9,0,1.9-0.3,2.6-0.8c1-0.5,2.3-1.9,1.8-2.6c-0.8-1.4-6.6-0.6-6,1.3
				L338.3,333L338.3,333z"/>
			<path class="st7" d="M428.6,256.5c0.2-1.1,0.6-2.1,1.2-3.1c0.3-0.2,0.6-0.3,0.9-0.4c0.3-0.1,0.7-0.1,1,0c0.6,0,1.2,0.2,1.7,0.5
				c0.5,0.3,1,0.7,1.3,1.2c0.6,0.5,1,1.2,1.3,1.9C436.9,260.9,429.6,259.1,428.6,256.5L428.6,256.5L428.6,256.5z"/>
		</g>
	</g>
</g>
<g>
	<g>
		<path class="st8" d="M127,370.9l-0.4,4.8l-16.1-2l-3-0.4c-0.3-0.1-0.7-0.2-1.1-0.3c-11.2-0.6-16-3.6-18-6
			c-0.5-0.6-0.8-1.2-1.1-1.7l30.6,4.3L127,370.9L127,370.9z"/>
		<path class="st8" d="M118,369.7l-30.6-4.3c0.2,0.5,0.6,1.1,1.1,1.7c2,2.4,6.7,5.4,17.9,6c0.4,0,0.7,0.1,1.1,0.3l3,0.4l-1.6,0.9
			l-2.6,1.4c-1,0-1.9-0.1-2.8-0.2c-14.7-1.4-18.4-7.3-19.3-10.9c-0.4-1.7-0.2-3-0.2-3l0.3,0c0.1,0,0.1,0,0.2,0
			c0.5,0.1,1.3,0.2,2.4,0.3c8.9,1.3,35.1,5.1,35.1,5.1L118,369.7L118,369.7z"/>
	</g>
	<path class="st8" d="M129.1,381l49.4,4.1c1.9,0.2,3.7-0.5,5-1.9l46.3-48.8c1-1.1,1.6-2.5,1.6-4.1V327c0-2.9-2.1-5.4-4.9-5.8
		l-91.6-15L129.1,381L129.1,381z"/>
	<path class="st9" d="M227,318.3l-53-8.7l-3.1-0.5l-3.1-0.5l-4.5-0.7l-5.5-0.9l-0.8-0.1l-21.5-3.5c-0.8-0.1-1.6,0.1-2.3,0.6
		s-1.1,1.3-1.1,2.1l-2.8,36.2l-1.8,22.9l-0.2,2.9l-0.2,2.9l-0.4,4.8l-0.4,5c-0.1,1.4,0.8,2.6,2,3c0.2,0.1,0.4,0.1,0.6,0.1l49.4,4.1
		c0.3,0,0.5,0,0.8,0c1.6,0,3.1-0.4,4.5-1.2c0.8-0.4,1.5-1,2.1-1.7l13.4-14.1l32.9-34.6c1.6-1.6,2.4-3.8,2.4-6.1V327
		C234.4,322.7,231.3,319,227,318.3L227,318.3z M177,382.1l-44.7-3.7l0.5-6.6l0.2-2.9l0.2-2.9l2.1-27.2l0,0l2.3-29.1l18.4,3l2.4,0.4
		l6.3,1l4.5,0.7l3.1,0.5l3.1,0.5l45.5,7.5l3.1,0.5l2,0.3c0.3,0.1,0.6,0.2,0.9,0.3c0.9,0.5,1.6,1.5,1.6,2.6v3.4c0,0.8-0.3,1.5-0.8,2
		L182.6,380l-1.1,1.2c-0.1,0.1-0.3,0.3-0.4,0.4c-0.6,0.5-1.4,0.7-2.2,0.6L177,382.1L177,382.1z"/>
	<path class="st8" d="M175.5,374.7L83,361.8c-6.3-0.9-12-4.3-15.6-9.6c-1.2-1.8-2.4-3.6-3.5-5.5c-15.5-25.8-23.8-62.4-20.5-82.5
		c0.7-4.2,4.8-7,9-6.1l103.2,21.7c5.1,1.1,9.2,5,10.6,10.1c0.6,2.3,1.2,4.6,1.7,6.8c6.2,24.6,11.3,48.4,14.7,70.9
		C183.2,371.8,179.7,375.3,175.5,374.7L175.5,374.7z"/>
	<g class="st10">
		<path class="st11" d="M50.2,271.3c-3.6,21.3,5.9,61,23.2,86.9c-2.4-1.6-4.4-3.6-6.1-5.9c-17.8-25.9-27.6-66.4-24-88
			c0.7-4.2,4.8-7,9-6.1l103.2,21.7c4.4,0.9,8.1,4,9.9,8.1c-1-0.5-2-0.8-3.1-1L59.1,265.2C55,264.3,50.9,267.1,50.2,271.3L50.2,271.3
			z"/>
	</g>
	<path class="st9" d="M84.4,359.1c0,0,0.1,0,0.1,0c1.6,0.3,2.6,1.7,2.4,3.3l40.3,5.6l0.2-2.9L84.4,359.1L84.4,359.1z M185.5,367.4
		c0,0,0-0.1,0-0.1c-0.1-1-0.3-2-0.5-3c-0.2-1-0.3-2.1-0.5-3.2c-0.2-1-0.3-1.9-0.5-2.9c-0.3-1.9-0.6-3.8-1-5.8
		c-0.6-3.1-1.2-6.4-1.8-9.6c-0.3-1.5-0.6-3-0.9-4.5c-0.2-1-0.4-2.1-0.6-3.1c-0.3-1.5-0.6-3-1-4.6c-0.5-2.4-1-4.8-1.6-7.2
		c-0.3-1.5-0.7-3.1-1-4.6c-0.2-1-0.4-1.9-0.7-2.9c-0.2-1-0.5-2-0.7-3.1c-0.2-1-0.5-2-0.7-3.1c-1.6-6.6-3.3-13.4-5.1-20.5
		c-1.6-6.2-6.5-10.9-12.8-12.2L52.9,255.3c-2.8-0.6-5.7,0-8,1.6c-2.4,1.6-3.9,4-4.4,6.9c-0.1,0.6-0.2,1.3-0.3,2c0,0,0,0,0,0
		c-3.1,24,8,63.7,24.8,88.1c3.8,5.5,9.6,9.3,16.2,10.6c0.5,0.1,0.9,0.2,1.4,0.2l1.7,0.2l3.2,0.5l30.6,4.3l8.9,1.2l2.9,0.4l2.9,0.4
		l42.3,5.9c0.4,0,0.8,0.1,1.1,0.1c0.1,0,0.1,0,0.2,0c1.2,0,2.5-0.2,3.6-0.7c0.7-0.3,1.3-0.6,1.9-1.1c0.4-0.3,0.7-0.6,1-0.9
		C184.9,373,185.8,370.2,185.5,367.4L185.5,367.4z M133.3,365.9l-2.9-0.4l-2.9-0.4l-43-6l-1.1-0.1c-5.5-0.8-10.5-3.8-13.6-8.3
		c-0.7-1-1.4-2.1-2.1-3.2c-1.3-2-2.6-4.2-3.7-6.4c-12.8-23.3-19.4-53.2-18.2-71.4c0.1-1.8,0.3-3.4,0.5-4.9c0-0.3,0.1-0.6,0.2-0.9
		c0.3-0.9,0.9-1.6,1.7-2.1c1-0.7,2.3-1,3.5-0.7l103.2,21.7c2.6,0.5,4.8,2,6.4,4c0.9,1.1,1.6,2.5,1.9,4c0.6,2.5,1.3,5,1.9,7.5
		c0.9,3.6,1.8,7,2.6,10.5c0.2,1,0.5,2.1,0.7,3.1c0.2,1,0.5,2.1,0.7,3.1c4.6,19.7,8,37.3,10.4,53.3c0.2,1-0.2,2.1-0.9,2.8
		c-0.1,0.1-0.3,0.3-0.4,0.4c-0.7,0.5-1.5,0.7-2.4,0.6l-3.6-0.5L133.3,365.9L133.3,365.9z"/>
	<path class="st9" d="M176.1,377.7c-1.3,0-2.5-0.9-2.8-2.2l-17.4-73.3c-1.3-5.4-5.6-9.6-11-10.8L42.5,268.9
		c-1.6-0.4-2.6-1.9-2.2-3.5c0.3-1.6,1.9-2.6,3.5-2.2l102.4,22.4c7.6,1.7,13.6,7.6,15.4,15.2l17.4,73.3c0.4,1.6-0.6,3.1-2.2,3.5
		C176.6,377.7,176.3,377.7,176.1,377.7L176.1,377.7z"/>
	<path class="st9" d="M109.2,376.2c-0.1,1.6-1.4,2.8-2.9,2.8c-0.1,0-0.1,0-0.2,0c-1.1-0.1-2.2-0.1-3.2-0.2
		c-9.2-0.9-15.6-3.6-19.2-8.1c-1.8-2.2-2.4-4.5-2.7-6.1c-0.2-1.5-0.1-2.7,0-3c0,0,0,0,0-0.1c0.3-1.5,1.8-2.6,3.3-2.4
		c0.1,0,0.1,0,0.1,0c1.6,0.3,2.6,1.7,2.4,3.3c0,0,0,0,0,0c0,0,0,0,0,0.1c0,0.1-0.2,1.4,0.5,2.9c0.2,0.5,0.6,1.1,1.1,1.7
		c2,2.4,6.7,5.4,18,6c0.4,0,0.7,0.1,1.1,0.3c0.6,0.3,1.1,0.7,1.3,1.3C109.2,375.1,109.3,375.6,109.2,376.2L109.2,376.2z"/>
	<path class="st9" d="M182.6,369.2c-0.6,0-1.3-0.2-1.8-0.7c-1-1-1-2.6-0.1-3.6l43.9-45.4c1-1,2.6-1,3.6-0.1c1,1,1,2.6,0.1,3.6
		l-43.9,45.4C183.9,368.9,183.3,369.2,182.6,369.2z"/>
	<g class="st12">
		<polygon class="st9" points="182.6,366.6 226.5,321.2 229.9,323.1 231.5,333 183.6,384.7 181.1,382.2 179.5,374.8 182.6,370.8 		
			"/>
	</g>
	<path class="st9" d="M180.3,387.1c-1.4,0-2.6-1-2.9-2.4l-1.6-9.4c-0.3-1.6,0.8-3.1,2.4-3.4c1.6-0.3,3.1,0.8,3.4,2.4l1.6,9.4
		c0.3,1.6-0.8,3.1-2.4,3.4C180.6,387.1,180.5,387.1,180.3,387.1L180.3,387.1z"/>
	<path class="st9" d="M184.7,335.9c-0.1,0-0.2,0-0.4,0l-8.6-1.4c-0.9-0.1-1.6-0.8-1.8-1.7l-2.6-11.9c-0.2-0.7,0.1-1.5,0.6-2
		c0.5-0.5,1.2-0.8,2-0.6l18.6,3.2c0.8,0.1,1.4,0.6,1.7,1.3c0.3,0.7,0.2,1.5-0.3,2.1l-7.4,10C186.1,335.5,185.4,335.8,184.7,335.9
		L184.7,335.9z M177.9,330.4l5.8,0.9l4.5-6.1l-11.9-2.1L177.9,330.4L177.9,330.4z"/>
	<path class="st9" d="M182.6,358.6c-0.5,0-0.9-0.1-1.4-0.5c-0.9-0.8-1.1-2.1-0.4-3.1l8.9-11.4l-12.3-1.3c-1.2-0.1-2.1-1.2-1.9-2.4
		c0.1-1.2,1.2-2.1,2.4-2l16.2,1.8c0.8,0.1,1.5,0.6,1.8,1.3c0.3,0.7,0.2,1.6-0.3,2.2l-11.3,14.5C183.9,358.3,183.3,358.5,182.6,358.6
		L182.6,358.6z"/>
	<g class="st12">
		<path class="st9" d="M175.5,374.7L83,361.8c-6.3-0.9-12-4.3-15.6-9.6c-1.2-1.8-2.4-3.6-3.5-5.5c90.6,16.7,94.9-45.3,94.9-45.3
			l9.1-4.7c6.2,24.6,11.3,48.4,14.7,70.9C183.2,371.8,179.7,375.3,175.5,374.7L175.5,374.7z"/>
	</g>
	<polygon class="st9" points="129.1,376.1 128.9,383.9 128.3,383.8 103,378.7 103.5,375.9 104,373 107.6,373.4 110.5,373.8 
		126.6,375.8 	"/>
</g>
<g>
	<g>
		<g>
			<path class="st13" d="M503.2,225.3c-2.6,9-8.2,18.6-17.6,29.1l-17.6-15.1L443.2,218l-23.3-23c9.1-13.6,21.2-23,37.4-26.4l26.1-4
				C497.6,183.1,510.1,202,503.2,225.3L503.2,225.3z"/>
			<path class="st14" d="M477.7,203.4c6.8,3.9,8.6,9.5,8,16c-5.4,2.6-10.1,6.4-13.5,12.2l-3.2-1.8L477.7,203.4L477.7,203.4z"/>
			<path class="st14" d="M503.2,225.3c-2.6,9-8.2,18.6-17.6,29.1l-17.6-15.1l11.3-14.8C485.9,240.5,493.8,228.6,503.2,225.3
				L503.2,225.3z"/>
			<path class="st14" d="M491.5,175.8l-1.8-2.6c-9.9-1.4-25.7,0.1-41.1,1.3c-4.4,4.9-15.3,6.5-22.8,12.7c-2.5,2-4.6,4.5-6,7.8
				l23.3,23l7.6-9.9l-2.6,8.1l20.7,10.1c-6.1-11.7-8.4-15.1-1.5-32.4c2.9-7.3,8.9-12.9,16.3-15.4
				C486.3,177.5,488.9,176.7,491.5,175.8L491.5,175.8z"/>
			<g class="st15">
				<path class="st11" d="M483.3,164.6l-3.7,0.6c14.3,18.5,26.7,37.4,19.8,60.6c-2.5,8.4-7.4,17.3-15.7,26.9l1.9,1.6
					c9.4-10.5,14.9-20.1,17.6-29.1C510.1,202,497.6,183.1,483.3,164.6L483.3,164.6z"/>
			</g>
			<path class="st9" d="M485.6,255.9c-0.4,0-0.7-0.1-1-0.4l-42.4-36.3c0,0,0-0.1-0.1-0.1l-23.3-23c-0.5-0.5-0.6-1.4-0.2-2
				c10-14.9,22.5-23.7,38.3-27.1c0,0,0.1,0,0.1,0l26.1-4c0.6-0.1,1.1,0.1,1.5,0.6c20.6,26.7,36.3,53.8,2.2,91.8
				C486.5,255.8,486.1,255.9,485.6,255.9L485.6,255.9z M444.3,216.8l41.2,35.3c30.9-35.2,17.1-59.8-2.8-85.9l-25.1,3.9
				c-14.5,3.1-26.2,11.1-35.6,24.6L444.3,216.8L444.3,216.8z"/>
			<path class="st9" d="M488.5,218.6c-4.4,2.6-9.1,5.3-11.9,9.6c-2.8,4.3-3.2,9.5-2.8,14.5c0.1,2.1-3,2.3-3.1,0.2
				c-0.4-9,2.3-16.7,10.1-21.7c2.3-1.5,4.7-2.8,7-3.9C488.7,216.9,489.3,218.2,488.5,218.6L488.5,218.6L488.5,218.6z"/>
			<path class="st9" d="M480.4,198.9l-10,30c-0.3,0.8-1.2,1.3-2,1c-0.3-0.1-0.5-0.2-0.7-0.4c-5.6-6.1-12.7-11-21-12
				c-0.9-0.1-1.5-1-1.4-1.9c0.5-2.4,1.1-4.8,2.4-7.1c1.2-2.4,3.7-4.6,6.5-4.9l-1.4,1.8c-0.7-5.4,2.3-10.5,5.8-14.3
				c0.4-0.4,1.1,0.1,0.8,0.6c-2.5,3.9-4.7,8.6-3.4,13.2c0.2,0.8-0.3,1.6-1.1,1.8c-4.4,0.6-5.6,5.7-6.5,9.5l-1.4-1.9
				c4.5,0.5,8.9,2.1,12.7,4.4c3.9,2.3,7.2,5.3,10.2,8.5l-2.6,0.6l11-29.6C478.9,197,480.8,197.6,480.4,198.9L480.4,198.9
				L480.4,198.9z"/>
			<path class="st9" d="M454.4,203.6c4.3-0.1,8.9,1.8,11.3,5.5c0.2,0.2,0.1,0.6-0.1,0.8c-0.2,0.1-0.5,0.1-0.7-0.1
				c-2.7-2.9-6.4-3.7-10.2-3C452.3,207.1,452.1,203.7,454.4,203.6L454.4,203.6L454.4,203.6z"/>
			<path class="st9" d="M442.7,185.3c0.2,10.2,1.1,20.5,4.5,30.1c0.6,2-2.2,3-3,1.1c-1.6-5.1-2.5-10.3-3-15.5
				c-0.5-5.2-0.6-10.4-0.5-15.6C440.8,184.1,442.6,184.1,442.7,185.3L442.7,185.3L442.7,185.3z"/>
		</g>
		<g>
			<path class="st13" d="M499.5,168.8c-8.2,3.8-17.4,6-25.9,6.6l-13.9,1c-19.1-0.6-30.2-9-35.9-20.4c-6.6-13.2-6-30.2-2.1-43.5
				c8.7-29.9,38.3-50.4,68.2-41.6c29.9,8.7,43.9,41.9,35.2,71.8C521.6,154.6,511.5,163.3,499.5,168.8L499.5,168.8z"/>
			<path class="st14" d="M499.5,168.8c-8.2,3.8-17.4,6-25.9,6.6l-13.9,1c-19.1-0.6-30.2-9-35.9-20.4c4,4.2,11.7,10.6,24.4,13.7
				C462.5,173.2,483.6,173,499.5,168.8L499.5,168.8z"/>
			<g class="st15">
				<path class="st11" d="M511.3,93.8c0.6,1.4,0.6,2.6,0,3.4c-1.6,2.3-7.5,1-13.2-3c-5.7-4-9-9.1-7.4-11.4c0.8-1.2,2.7-1.4,5.1-0.8
					c-2.6-1.3-5.3-2.3-8.2-3.2c-28.6-8.3-56.8,9.9-66.9,37.6c0.2-1.1,0.5-2.2,0.8-3.2c8.7-29.9,38.3-50.4,68.2-41.6
					c29.9,8.7,43.9,41.9,35.1,71.8c-0.3,1.1-0.7,2.1-1.1,3.2C528,127.2,523.2,107.4,511.3,93.8L511.3,93.8z"/>
			</g>
			<path class="st9" d="M473.5,174.3c3.2-1.7,6.5-1.8,9.8-2.6c3.3-0.8,6.5-1.7,9.6-2.8c12-4.4,24.3-12.2,29.1-24.6
				c11.5-32.5-7.4-71.3-43.9-73.2c-27.3-1.6-50.8,21.3-55.6,47.2c-4,18.6-0.6,42.4,18.1,51.5c3.6,1.8,7.6,3,11.6,3.7
				c2.5,0.3,5,0.7,7.3,1.8c1,0.3,1,1.9,0,2.2c-3.6,1.4-7.1,0.5-10.7-0.1c-7.1-1.4-14-4.6-19.4-9.6c-13.6-12.7-15.2-33.2-11.6-50.4
				c7.1-36.4,45.8-62.7,81.1-45.3c23.1,11.1,34.1,38.9,29.8,63.4c-1.7,11.5-6.5,20.4-15.6,27.7c-8.5,6.7-18.5,10.8-29,12.9
				c-3.5,0.6-7,1.6-10.6,0.4C472.7,176.2,472.6,174.8,473.5,174.3L473.5,174.3L473.5,174.3z"/>
			<path class="st9" d="M424.2,104.8c-3.8,3-8.3,12.2-5.3,24c3,11.8,13.4,15.7,17.7,12.1c3.3-2.8,7.2-11.6,4.1-23.5
				S428.1,101.7,424.2,104.8L424.2,104.8z"/>
			<g class="st15">
				<path class="st11" d="M439.4,137.1c1-4,1.2-9.1-0.3-15c-3-11.8-12.7-15.6-16.6-12.6c-1.3,1-2.6,2.7-3.8,5
					c1.2-4.7,3.4-8.1,5.5-9.7c3.9-3,13.5,0.8,16.6,12.6C443,125.8,441.6,132.8,439.4,137.1L439.4,137.1z"/>
			</g>
			<g class="st16">
				<path class="st17" d="M436.6,140.8c-4.2,3.6-14.6-0.3-17.7-12.1c-2.2-8.6-0.4-15.9,2.2-20.3c-0.7,3.7-0.7,7.9,0.6,12.7
					c3,11.8,13.4,15.7,17.7,12.1c0.7-0.6,1.4-1.4,2-2.5C440.6,135.6,438.5,139.2,436.6,140.8L436.6,140.8z"/>
			</g>
			<path class="st9" d="M489.6,128.6c1.9,4.9,0.4,15.2-10.7,22.1s-24.6,2.7-26.5-3.1c-1.5-4.4,0.4-14,11.5-20.9
				C475,119.8,487.6,123.6,489.6,128.6L489.6,128.6z"/>
			<g class="st15">
				<path class="st11" d="M488.8,139.9c0.4-2.6,0.1-4.8-0.5-6.5c-2-5.1-14.6-8.9-25.7-1.9c-5.5,3.4-8.8,7.5-10.5,11.3
					c0.6-4.8,3.9-11.1,11.9-16.1c11.1-6.9,23.8-3.1,25.7,1.9C490.7,131.3,490.7,135.5,488.8,139.9L488.8,139.9z"/>
			</g>
			<g class="st16">
				<path class="st17" d="M478.9,150.8c-11.1,6.9-24.6,2.7-26.5-3.1c-0.9-2.5-0.6-6.7,1.8-11.2c0,1.3,0.1,2.4,0.4,3.4
					c2,5.8,15.4,10.1,26.5,3.1c4.4-2.8,7.4-6.1,9.1-9.3C490,138.9,487,145.7,478.9,150.8L478.9,150.8z"/>
			</g>
			<path class="st9" d="M432.7,144.1c-1.1,0-2.3-0.2-3.5-0.6c-4.5-1.4-10-5.9-12.2-14.3c-3.3-12.9,1.9-22.8,6-26.1l0,0
				c2-1.6,4.9-1.8,7.9-0.8c4.3,1.4,9.6,6,11.8,14.5c3.3,12.9-1,22.3-4.8,25.5C436.6,143.5,434.8,144.1,432.7,144.1L432.7,144.1z
				 M425.5,106.3c-2.8,2.2-7.5,10.4-4.6,21.9c1.8,6.8,6.1,10.4,9.5,11.5c2,0.6,3.9,0.5,5-0.5c2.4-2.1,6.4-10,3.5-21.5
				c-1.8-6.9-6-10.6-9.2-11.7C427.9,105.5,426.3,105.6,425.5,106.3L425.5,106.3L425.5,106.3z"/>
			<path class="st9" d="M466.4,156.3c-3,0-5.8-0.5-8-1.3c-4.1-1.4-7-3.9-7.9-6.7c-1.7-5,0.2-15.7,12.4-23.3c6.5-4.1,14.5-5.2,21.2-3
				c3.7,1.2,6.4,3.4,7.4,5.9c2.1,5.4,0.9,16.8-11.5,24.5C475.4,155.3,470.6,156.4,466.4,156.3L466.4,156.3z M476.8,124.9
				c-3.7,0-7.9,0.9-11.9,3.5c-10.6,6.6-11.8,15.4-10.7,18.6c0.5,1.6,2.6,3.3,5.5,4.3c4.5,1.6,11.6,1.9,18.1-2.2
				c9.8-6.1,11.7-15.2,9.9-19.7l0,0c-0.4-1.1-1.9-2.5-5-3.5C481.1,125.3,479.1,124.9,476.8,124.9L476.8,124.9z"/>
			<path class="st9" d="M442.9,145.1c0.2,0.8-0.1,1.6-0.5,1.7s-1-0.5-1.1-1.4c-0.2-0.8,0.1-1.6,0.5-1.7S442.7,144.2,442.9,145.1z"/>
			<path class="st9" d="M444.2,145.5c-0.6,0.6-0.9,1.3-0.6,1.7c0.3,0.4,1.1,0.2,1.7-0.4c0.6-0.6,0.9-1.3,0.6-1.7
				C445.6,144.8,444.8,145,444.2,145.5z"/>
			<path class="st13" d="M470.5,107.8l6.1,5.9c1.5-2.4,2.8-4.4,4.1-5.9c5.2-6.1,9.3-5.4,12.1-3.1c3.7,3.1,2.5,10.6,2.5,10.6
				c-4.5,3.1-0.9,7.9,2.8,8.1c3.2,0.1,5.9-4.4,2.5-7.9c0.3-1.5,2.5-14.5-5.8-18.3c-8.1-3.7-15.4,0.9-19.8,5.1
				C472.3,105,470.6,107.6,470.5,107.8L470.5,107.8z"/>
			<g class="st3">
				<path class="st11" d="M472.1,105.6c0.2-0.2,0.4-0.3,0.5-0.5c4.7-4.5,12.2-9.1,20.9-5.4c7.2,3.1,5.1,15,4.8,16.6
					c2.2,2,2.7,4.7,2.9,5.6c1.4-1.6,1.7-4.2-0.5-6.5c0.3-1.5,2.5-14.5-5.8-18.3c-8.1-3.7-15.4,0.9-19.8,5.1
					C473.9,103.5,472.9,104.6,472.1,105.6L472.1,105.6z"/>
			</g>
			<path class="st14" d="M470.5,107.8c0,0-0.1,2.3,2.1,4.2c2.1,1.8,4,1.7,4,1.7c1.5-2.4,2.8-4.4,4.1-5.9c-2.7-0.1-6.5-0.9-5.6-5.5
				C472.3,105,470.6,107.6,470.5,107.8L470.5,107.8z"/>
			<path class="st9" d="M469.8,107.5c0.1-0.3,0.3-0.6,0.5-0.8c3.4-5.2,8.1-9.8,14.1-11.7c4.4-1.3,9.4-0.8,13.2,1.8
				c5.7,4.4,5.9,12.4,4.6,18.9l-0.4-1.4c3.4,3.2,2.3,9.3-2.5,10.4c-6.3,1.1-10.9-7-4.9-10.8l-0.7,1.1c0.2-2.9,0.2-6.2-1.4-8.5
				c-1.8-2.3-4.8-2.6-7.2-0.9c-3.3,2.1-5.6,5.3-7.9,8.6c-0.5,0.8-1.8,0.1-1.4-0.8c2-3.7,4.3-7.4,7.8-10c3.4-2.6,8.3-2.3,11.1,1.1
				c2,2.5,2.4,5.8,2.3,8.8c-0.1,1,0.1,2.6-0.9,3.3c-4.3,2.6,2.5,7.9,4.3,3.4c0.4-1.2,0.1-2.4-0.9-3.5c-0.4-0.4-0.5-0.9-0.4-1.4
				c0.8-5.9,0.8-14.5-5.8-16.9c-2.6-1-5.5-1.2-8.2-0.5c-5.6,1.5-10.2,5.7-13.7,10.2l-0.1,0.1l0,0.1v0
				C471,108.9,469.5,108.7,469.8,107.5L469.8,107.5L469.8,107.5z"/>
			<path class="st13" d="M402.1,81.6c1.7,2.9,6,1.6,7.1-1.6c1.1-0.8,21.2-10.1,25.1,8.8c0.4,2.2,0.7,4.8,0.6,7.8l7.7,0.3
				c0.1-0.2,0.1-3.8-1-8.2c-1.4-5.4-4.3-12-10.7-15.7c-9.7-5.7-23.2,2.1-24.4,2.7C403.4,75.2,399.9,77.9,402.1,81.6L402.1,81.6z"/>
			<path class="st13" d="M402.1,81.6c1.7,2.9,6,1.6,7.1-1.6c1.1-0.8,21.2-10.1,25.1,8.8c0.4,2.2,0.7,4.8,0.6,7.8l7.7,0.3
				c0.1-0.2,0.1-3.8-1-8.2c-1.4-5.4-4.3-12-10.7-15.7c-9.7-5.7-23.2,2.1-24.4,2.7C403.4,75.2,399.9,77.9,402.1,81.6L402.1,81.6z"/>
			<g class="st3">
				<path class="st11" d="M401.4,79.2c1-0.5,4-1.9,5.5-0.8c1.3-0.7,13.7-8.8,24.2-2.7c6.1,3.6,9.3,9.6,11,15
					c-0.1-0.6-0.3-1.3-0.4-1.9c-1.4-5.4-4.3-12-10.7-15.7c-9.7-5.7-23.2,2.1-24.4,2.7C404.1,75.3,401.5,76.8,401.4,79.2L401.4,79.2z
					"/>
			</g>
			<path class="st14" d="M434.3,88.8c0.4,2.2,0.7,4.8,0.6,7.8c0,0,1.8,1.7,4.2,1.8s3.5-1.5,3.5-1.5c0.1-0.2,0.1-3.8-1-8.2
				C440.6,91.7,438.2,93.5,434.3,88.8L434.3,88.8z"/>
			<path class="st9" d="M441.9,96.6c0,0-0.1,0.1-0.1,0.2L441.9,96.6L441.9,96.6c-0.8-8.2-3.9-17-10.9-21.7
				c-5.3-3.6-12.1-2.5-17.8-0.4c-2,0.7-4,1.6-5.9,2.6c-0.3,0.1-0.6,0.2-0.9,0.2c-2-0.3-4.3,1.4-3,3.5c1.1,2.1,3.9,0.4,4.4-1.3
				c0.2-0.5,0.6-0.7,1-0.9c0.7-0.4,1.4-0.7,2.1-1c16.3-6.2,26.1,2.2,24.8,19.2c-0.1,1-1.5,1-1.6,0c-0.2-5.9-1.2-13.3-6.6-16.5
				c-5.2-2.9-12.3-1.1-17.3,1.1l0.5-0.7c-1.1,2.9-4.5,5.1-7.6,3.9c-2.2-1-3.2-3-3.2-5.3c0-2.3,1.9-4.1,3.9-4.8c1-0.3,2-0.4,3-0.3
				l-0.9,0.2c4-2.3,8.4-4,13-4.7c16-2.8,24.9,12.5,24.7,26.5c0,0.1,0,0.6,0,0.7C443.4,98.2,441.5,97.9,441.9,96.6L441.9,96.6
				L441.9,96.6z"/>
			<path class="st9" d="M459.3,118.1c0.8,4.2,7.3,1.3,10,0.5c2.1-0.7,4.4-1.4,6.7-1.6c2.4-0.2,4.8,0.1,6.9,1
				c0.3,0.1,0.5,0.5,0.4,0.8c-0.1,0.3-0.4,0.4-0.7,0.4c-2.1-0.4-4.2-0.5-6.3-0.1c-4.8,0.4-15.2,7.4-18.1,1c-0.2-0.7-0.5-2.7,0.7-2.5
				C459.1,117.5,459.2,117.8,459.3,118.1L459.3,118.1L459.3,118.1z"/>
			<path class="st9" d="M450,114.4c-1.3,2.9-4.5,2.6-6.3,0.3c-2.3-3.1-3.7-6.9-6.2-9.8c-1.2-1.4-2.6-2.5-4.3-3.3
				c-0.7-0.3-0.3-1.4,0.4-1.2c5.1,1.2,8.2,6.1,10.6,10.4c1.2,1.8,2.5,5,4.8,2.9C449.4,113.2,450.3,113.8,450,114.4L450,114.4
				L450,114.4z"/>
			<path class="st9" d="M454.4,156.8c-1.2,3.3-6,4.8-8.5,2.1c-0.6-0.6-2.3-3.2-1.1-3.6c0.3-0.1,0.5,0,0.7,0.2
				c1.1,1.1,2.2,2.3,3.7,2.3c1.5-0.1,2.9-0.9,4.2-1.8C453.9,155.6,454.6,156.2,454.4,156.8L454.4,156.8L454.4,156.8z"/>
		</g>
	</g>
	<g>
		<g>
			<path class="st11" d="M495.2,336.3l12.2-25c2.3-4.8,2.7-10.3,0.9-15.4c-11.1-31.8-26.1-58-47.8-74.7c-2.8-2.1-6.1-3.6-9.6-4.2
				l-25.5-4.8l-23.2,40.1L495.2,336.3L495.2,336.3z"/>
			<path class="st9" d="M495.2,338.9c-0.6,0-1.2-0.2-1.7-0.6l-93-83.9c-0.9-0.8-1.1-2.1-0.5-3.1l23.2-40.1c0.5-0.9,1.6-1.4,2.6-1.2
				l25.5,4.8c3.9,0.7,7.6,2.4,10.6,4.7c20.4,15.7,36.4,40.5,48.6,75.9c2,5.6,1.6,11.9-1,17.3l-12.2,25c-0.4,0.7-1,1.2-1.8,1.4
				C495.6,338.8,495.4,338.8,495.2,338.9L495.2,338.9z M405.5,251.9l89,80.3l10.8-22c2-4.2,2.3-9.1,0.8-13.4
				c-12-34.4-27.3-58.4-46.9-73.5c-2.4-1.9-5.4-3.2-8.5-3.8l-23.8-4.4L405.5,251.9L405.5,251.9z"/>
			<g class="st18">
				<path class="st9" d="M425.5,278.3l23.8-43.1c2.6-4.8,9-5.8,13-2.1c17.5,16,33.1,38,46.9,65.9L491.5,346L425.5,278.3z"/>
			</g>
		</g>
		<g>
			<g>
				<path class="st11" d="M391.2,384.7c26.8,20.1,71.2,20.3,86.7-2.7l-33.7-13L391.2,384.7L391.2,384.7z"/>
				<g class="st18">
					<path class="st9" d="M456.9,392.1l5.9,2.3c6.2-2.9,11.5-7,15.2-12.5l-33.7-13l-53,15.8c6.1,4.5,13.1,8.1,20.4,10.5l14.5-4.3
						C436.3,387.9,447.1,388.3,456.9,392.1L456.9,392.1z"/>
				</g>
				<path class="st11" d="M284.4,323.9c-5.3,25.6,3.5,39.3,24.6,35.6l-4.4-27.7L284.4,323.9L284.4,323.9z"/>
				<g class="st18">
					<path class="st9" d="M284.4,323.9c-5.3,25.6,3.5,39.3,24.6,35.6l-4.4-27.7L284.4,323.9L284.4,323.9z"/>
				</g>
				<path class="st9" d="M437.5,402c-16.9,0-34.7-5.5-47.8-15.3c-0.8-0.6-1.1-1.5-1-2.5s0.9-1.7,1.8-2l53-15.8
					c0.5-0.2,1.1-0.1,1.6,0.1l33.7,13c0.7,0.3,1.3,0.9,1.5,1.6c0.2,0.7,0.1,1.5-0.3,2.2c-6.1,9.1-16.9,15.4-30.5,17.7
					C445.6,401.7,441.6,402,437.5,402L437.5,402z M397,385.6c14.8,9.3,34.5,13.4,51.7,10.4c10.8-1.8,19.7-6.4,25.2-13l-29.8-11.5
					L397,385.6L397,385.6z"/>
				<path class="st9" d="M302.6,362.6c-6.7,0-12.1-2-15.9-5.9c-6.3-6.5-8-18-4.9-33.3c0.1-0.7,0.6-1.4,1.3-1.7
					c0.6-0.4,1.4-0.4,2.1-0.1l20.2,7.9c0.8,0.3,1.4,1.1,1.6,2l4.4,27.7c0.2,1.4-0.7,2.6-2.1,2.9C307,362.4,304.8,362.6,302.6,362.6
					L302.6,362.6z M286.3,327.4c-2,12-0.6,20.9,4.1,25.8c3.5,3.6,8.8,5,15.7,4.2l-3.8-23.8L286.3,327.4L286.3,327.4z"/>
			</g>
			<g>
				<path class="st11" d="M569.6,352.4c0,1.5-0.2,3-0.5,4.5c-0.9,3.4-3.3,6.2-6.5,7.6c-6.5,2.8-13.5,2.5-21-1.3
					c-13.3,29.9-45.7,33.9-97.3,12c-17.8,8-34.5,11.9-50.2,11.9c-0.5,0-1,0-1.5,0c-0.3,0-0.6,0-0.9,0c-0.4,0-0.8,0-1.1,0
					c-0.4,0-0.8,0-1.2,0c-0.8,0-1.5-0.1-2.3-0.1c-0.4,0-0.7-0.1-1-0.1c-0.3,0-0.6-0.1-0.9-0.1c-0.4,0-0.8-0.1-1.2-0.1
					c-0.5,0-1-0.1-1.4-0.2c-0.5-0.1-1-0.1-1.4-0.2c-1.8-0.3-3.6-0.6-5.3-0.9c-0.2,0-0.4-0.1-0.5-0.1c-0.4-0.1-0.8-0.2-1.1-0.2
					c-0.5-0.1-0.9-0.2-1.4-0.3c-0.5-0.1-0.9-0.2-1.4-0.4c-0.7-0.2-1.4-0.4-2.1-0.6c-0.3-0.1-0.6-0.2-0.9-0.2
					c-0.7-0.2-1.4-0.4-2.1-0.7c-0.2-0.1-0.5-0.2-0.8-0.3c-0.3-0.1-0.6-0.2-0.9-0.3c-0.8-0.3-1.6-0.6-2.4-0.9c-0.1,0-0.2-0.1-0.3-0.1
					c-0.4-0.2-0.9-0.4-1.3-0.5c-0.4-0.2-0.9-0.4-1.3-0.5c-0.4-0.2-0.8-0.3-1.1-0.5c-0.1,0-0.1-0.1-0.2-0.1c-0.4-0.2-0.9-0.4-1.3-0.6
					c-0.4-0.2-0.9-0.4-1.3-0.6c-0.4-0.2-0.9-0.4-1.3-0.6c-0.4-0.2-0.9-0.4-1.3-0.7c-3.9-2-7.7-4.3-11.4-6.9
					c-0.4-0.3-0.8-0.6-1.2-0.9c-0.4-0.3-0.8-0.6-1.2-0.9c-1.2-0.9-2.5-1.9-3.7-2.8c-0.4-0.3-0.8-0.6-1.2-1c0,0,0,0,0,0
					c-0.4-0.3-0.8-0.6-1.1-1c-4.4-3.7-8.7-7.9-12.9-12.4c-0.4-0.4-0.8-0.8-1.1-1.2c-1.5-1.7-3-3.4-4.4-5.1c-0.8-0.9-1.5-1.9-2.3-2.8
					c-2.9-0.9-5.7-1.7-8.5-2.6c-0.4-0.1-0.7-0.2-1-0.4c-2.2-0.7-4.4-1.5-6.5-2.2c-1.3-0.5-2.6-0.9-3.9-1.4c-1.3-0.5-2.6-1-3.9-1.4
					c-1.3-0.5-2.6-1-3.8-1.5c-1.2-0.5-2.4-0.9-3.6-1.4c-0.2-0.1-0.5-0.2-0.7-0.3c-1-0.4-1.9-0.8-2.9-1.2c-0.4-0.2-0.9-0.4-1.3-0.5
					c-0.6-0.3-1.3-0.5-1.9-0.8c-0.7-0.3-1.4-0.6-2-0.9c-0.6-0.2-1.1-0.5-1.7-0.8c-0.5-0.2-1-0.4-1.5-0.6c-0.7-0.3-1.4-0.6-2.1-0.9
					c-0.5-0.2-1.1-0.5-1.6-0.8c-0.8-0.4-1.6-0.7-2.4-1.1c-0.3-0.1-0.6-0.3-0.9-0.4c-0.8-0.4-1.5-0.7-2.3-1.1
					c-0.5-0.2-0.9-0.5-1.4-0.7c-0.5-0.3-1.1-0.5-1.6-0.8c-0.7-0.4-1.4-0.7-2.1-1.1c-1-0.5-1.9-1-2.9-1.5c-0.3-0.2-0.6-0.3-0.9-0.5
					c-0.6-0.3-1.2-0.7-1.9-1c-0.2-0.1-0.4-0.2-0.6-0.3c-0.3-0.1-0.5-0.3-0.8-0.5c-0.1-0.1-0.3-0.1-0.4-0.2c-0.7-0.4-1.4-0.8-2.1-1.2
					c-0.1,0-0.2-0.1-0.3-0.2c-0.1,0-0.2-0.1-0.2-0.1c-0.4-0.2-0.8-0.4-1.1-0.7c-0.4-0.2-0.7-0.4-1.1-0.6c-0.2-0.1-0.4-0.2-0.6-0.4
					c-0.8-0.5-1.7-1-2.5-1.5c-0.1-0.1-0.3-0.2-0.4-0.3c-0.6-0.3-1.1-0.7-1.6-1l0,0c-0.4-0.3-0.9-0.5-1.3-0.8c-0.8-0.5-1.6-1-2.3-1.5
					c-0.1-0.1-0.2-0.1-0.3-0.2c-0.3-0.2-0.5-0.4-0.8-0.5c-0.7-0.5-1.4-0.9-2.1-1.4c0,0,0,0-0.1,0c-0.4-0.2-0.7-0.5-1-0.7
					c-0.2-0.1-0.3-0.2-0.5-0.3c-0.6-0.4-1.2-0.9-1.8-1.3c-0.9-0.7-1.9-1.3-2.8-2c0,0-0.1,0-0.1-0.1c-0.9-0.6-1.8-1.3-2.6-2
					c-0.1-0.1-0.2-0.1-0.3-0.2c-2.7-2-5.3-4.1-7.9-6.2c-0.1-0.1-0.3-0.2-0.5-0.4c-0.8-0.7-1.7-1.4-2.5-2.1c-0.9-0.8-1.8-1.5-2.6-2.3
					c-0.6-0.5-1.2-1-1.8-1.6c-0.2-0.2-0.4-0.4-0.6-0.6c-0.1,0-0.1-0.1-0.2-0.2c0,0-0.1-0.1-0.1-0.1c-0.8-0.7-1.6-1.5-2.4-2.3
					c-8.9-1.3-16.3-4-18.3-11.2c-0.4-1.4,0.3-2.8,1.6-3.4l1.7-0.8c-21.7-21-6.1-34.9,9-28c14.8,7.2,33.7,16.4,54.7,26.7h0
					c0.8,0.4,1.7,0.8,2.5,1.2c7.3,3.5,14.7,7.2,22.4,10.9c1.1-0.2,2.3-0.3,3.4-0.5c2-0.3,3.9-0.5,5.9-0.8l0.9-0.1
					c0.7-0.1,1.3-0.2,2-0.3l2.9-0.4c1.3-0.2,2.6-0.4,3.9-0.6c1.4-0.2,2.7-0.4,4-0.6c0.4,0,0.7-0.1,1.1-0.1c3-0.4,6.1-0.9,9.1-1.3
					c3.2-0.5,6.5-0.9,9.7-1.4c2.8-0.4,5.6-0.8,8.4-1.2c6.1-0.9,12.2-1.7,18.3-2.6c1.5-0.2,3-0.4,4.5-0.6c1.5-0.2,3-0.4,4.5-0.6
					c2.4-0.3,4.8-0.7,7.2-1c6.8-1,13.5-1.9,20.2-2.8c1.3-0.2,2.6-0.4,3.8-0.5c5-0.7,10-1.4,15-2.1c2-0.3,4-0.5,6-0.8
					c4.5-0.6,8.9-1.2,13.3-1.8c1.4-0.2,2.8-0.4,4.1-0.5c0.5-0.1,0.9-0.1,1.4-0.2c0.9-0.1,1.8-0.2,2.8-0.4c2.7-0.4,5.3-0.7,7.9-1.1
					c0,0,0.1,0,0.2,0c2-0.3,3.9-0.5,5.9-0.8c0.1,0,0.3,0,0.4-0.1c1.8-0.2,3.6-0.5,5.4-0.7c0.9-0.1,1.8-0.2,2.7-0.3
					c2-0.2,4-0.5,6-0.8c0.8-0.1,1.6-0.2,2.4-0.3c0.8-0.1,1.6-0.2,2.4-0.3c1.7-0.2,3.3-0.4,4.9-0.6c0.8-0.1,1.6-0.2,2.3-0.3
					c0.6-0.1,1.2-0.1,1.8-0.2c1.8-0.2,3.5-0.4,5.2-0.6c0.6-0.1,1.2-0.1,1.8-0.2c1.1-0.1,2.3-0.3,3.4-0.4c2.8-0.3,5.6-0.6,8.2-0.9
					c1.6-0.2,3.2-0.4,4.8-0.5c2.1-0.2,4.1-0.4,6.1-0.6c1-0.1,2-0.2,3-0.3c0.5-0.1,1-0.1,1.4-0.1c1.8-0.2,3.6-0.3,5.4-0.5
					c1.9-0.2,3.7-0.3,5.5-0.5c0.8-0.1,1.5-0.1,2.3-0.2c0.3,0,0.6-0.1,0.9-0.1c1-0.1,2-0.1,2.9-0.2c3.9-0.3,7.5-0.5,10.7-0.6
					c9.3-0.3,15.8,9.5,11.7,17.8c-0.2,0.3-0.3,0.6-0.5,1c-0.1,0.1-0.2,0.3-0.3,0.4c-0.1,0.1-0.2,0.3-0.3,0.5
					c-0.1,0.1-0.2,0.3-0.3,0.5c-0.1,0.1-0.2,0.3-0.3,0.4c-0.3,0.4-0.5,0.7-0.8,1c-0.2,0.3-0.5,0.5-0.7,0.8c-0.1,0.1-0.3,0.3-0.4,0.4
					c-0.1,0.1-0.3,0.3-0.4,0.4c-0.1,0.1-0.3,0.2-0.4,0.4c-0.6,0.5-1.2,1-1.9,1.5c6.3,4.1-3,11.4-19.7,11.8c-1.7,0-3.4,0.5-4.9,1.4
					L479.5,304l-10.6,6.5l12.1,8.1l13.9,9.3c1.8,1.2,4.2,0.7,5.4-1.2c6.1-9.9,13.4-16.1,21.7-19.2c2.4-0.9,5.1-0.9,7.5,0
					c2.2,0.8,4.5,1.9,6.9,3.2c0.3,0.1,0.5,0.3,0.8,0.5c0.2,0.1,0.5,0.3,0.7,0.4c0.5,0.3,1,0.6,1.5,0.9c0.3,0.2,0.6,0.4,1,0.6
					c0.3,0.2,0.7,0.4,1,0.6c1,0.6,1.9,1.3,2.9,2c0.6,0.5,1.3,1,1.9,1.5c0.3,0.2,0.6,0.5,1,0.8c0.6,0.5,1.2,0.9,1.8,1.4
					c0.2,0.2,0.4,0.3,0.6,0.5c0.3,0.3,0.7,0.6,1,0.9c0.3,0.2,0.5,0.5,0.8,0.7c0.5,0.5,1.1,1,1.6,1.5c0.5,0.5,1,1,1.6,1.5
					c0.2,0.2,0.4,0.4,0.6,0.6c0.3,0.3,0.7,0.7,1,1c0.2,0.2,0.5,0.5,0.7,0.7c0.2,0.3,0.5,0.5,0.7,0.8c0.2,0.3,0.5,0.5,0.7,0.8
					c0.2,0.2,0.4,0.5,0.6,0.7c0,0,0.1,0.1,0.1,0.1c0.2,0.3,0.5,0.5,0.7,0.8c0.5,0.5,0.9,1.1,1.3,1.7c0.2,0.3,0.4,0.5,0.6,0.8
					c0.4,0.6,0.8,1.1,1.2,1.7c0.2,0.3,0.4,0.6,0.6,0.9c0.4,0.6,0.8,1.1,1.1,1.7c0.2,0.3,0.3,0.6,0.5,0.9c0.6,1,1.2,2.1,1.7,3.1
					c0.1,0.2,0.2,0.4,0.3,0.6c0.3,0.7,0.7,1.5,0.9,2.2c0.1,0.2,0.2,0.4,0.2,0.6c0,0.1,0,0.1,0.1,0.2c0.1,0.2,0.1,0.4,0.2,0.6
					c0.4,1.1,0.7,2.3,0.9,3.4c0,0.2,0.1,0.4,0.1,0.6c0,0.2,0.1,0.5,0.1,0.7c0,0.1,0,0.2,0,0.3c0,0.2,0,0.3,0,0.5c0,0.1,0,0.2,0,0.3
					c0,0.2,0,0.5,0,0.7v0C569.6,351.9,569.6,352.1,569.6,352.4L569.6,352.4z"/>
				<path class="st9" d="M499.5,391.6c-15.1,0-33.5-4.5-55.2-13.6c-17.5,7.8-34.4,11.7-50.2,11.7c-0.5,0-1,0-1.5,0l-0.9,0
					c-0.4,0-0.8,0-1.2,0c-0.4,0-0.8,0-1.2,0c-0.8,0-1.6-0.1-2.4-0.1l-1-0.1c0,0,0,0-0.1,0c-0.2,0-0.5,0-0.8-0.1l-1.4-0.1
					c-0.5,0-1-0.1-1.5-0.2c-0.5-0.1-1-0.1-1.5-0.2c-1.8-0.3-3.6-0.6-5.5-1l-0.5-0.1c-0.4-0.1-0.8-0.2-1.2-0.3
					c-0.5-0.1-0.9-0.2-1.4-0.3c-0.5-0.1-1-0.2-1.5-0.4c-0.7-0.2-1.4-0.4-2.1-0.6c-0.3-0.1-0.6-0.2-0.9-0.3c-0.7-0.2-1.4-0.4-2.1-0.7
					c-0.2-0.1-0.4-0.1-0.6-0.2l-1.1-0.4c-0.8-0.3-1.6-0.6-2.5-0.9l-0.3-0.1c-0.4-0.2-0.9-0.4-1.4-0.5c-0.4-0.2-0.9-0.4-1.4-0.6
					c-0.4-0.2-0.8-0.3-1.1-0.5c0,0-0.1,0-0.1,0c0,0-0.1,0-0.1,0c-0.5-0.2-0.9-0.4-1.3-0.6l-0.2-0.1c-0.4-0.2-0.8-0.4-1.2-0.6
					c-0.4-0.2-0.9-0.4-1.3-0.6c-0.5-0.2-0.9-0.5-1.3-0.7c-4-2.1-7.9-4.5-11.7-7.1c-0.4-0.3-0.8-0.6-1.2-0.9
					c-0.4-0.3-0.8-0.6-1.2-0.9c-1.3-0.9-2.5-1.9-3.7-2.9c-0.4-0.3-0.8-0.6-1.2-1c0,0-0.1-0.1-0.1-0.1l-0.4-0.3
					c-0.3-0.2-0.5-0.4-0.8-0.6c-4.4-3.7-8.8-8-13.1-12.6c-0.4-0.4-0.8-0.8-1.1-1.3c-1.5-1.6-3-3.4-4.5-5.2c-0.6-0.7-1.2-1.5-1.8-2.2
					c-2.6-0.8-5.2-1.6-7.8-2.4c-0.4-0.1-0.7-0.2-1.1-0.4c-2.1-0.7-4.3-1.4-6.5-2.2c-1.3-0.5-2.6-0.9-3.9-1.4c-1.3-0.5-2.6-1-3.9-1.5
					c-1.3-0.5-2.6-1-3.9-1.5c-1.2-0.5-2.4-0.9-3.6-1.4l-0.3-0.1c-0.2-0.1-0.3-0.1-0.5-0.2c-0.7-0.3-1.4-0.6-2.1-0.9l-0.8-0.3
					c-0.5-0.2-0.9-0.4-1.4-0.6c-0.6-0.2-1.2-0.5-1.9-0.8l0,0c-0.7-0.3-1.4-0.6-2-0.9c-0.5-0.2-1.1-0.5-1.7-0.8
					c-0.5-0.2-1-0.4-1.5-0.7l-0.1,0c-0.7-0.3-1.3-0.6-2-0.9c-0.5-0.2-1.1-0.5-1.7-0.8c-0.8-0.4-1.5-0.7-2.3-1.1
					c-0.3-0.1-0.6-0.3-0.9-0.5c-0.8-0.4-1.5-0.7-2.3-1.1c-0.4-0.2-0.9-0.5-1.4-0.7c-0.5-0.2-1-0.5-1.6-0.8c-0.7-0.4-1.4-0.7-2.1-1.1
					c-0.9-0.5-1.9-1-2.9-1.5l-1-0.5c-0.6-0.4-1.3-0.7-1.9-1c-0.2-0.1-0.4-0.2-0.6-0.4c-0.3-0.1-0.6-0.3-0.8-0.5
					c-0.7-0.4-1.4-0.8-2.1-1.2l-0.4-0.2c-0.1,0-0.2-0.1-0.3-0.2c-0.1,0-0.2-0.1-0.3-0.2c-0.4-0.2-0.8-0.4-1.1-0.7
					c-0.2-0.1-0.5-0.3-0.7-0.4l-0.3-0.2c-0.1-0.1-0.3-0.2-0.5-0.3l-0.2-0.1c-0.5-0.3-1.1-0.6-1.6-1l-0.1-0.1
					c-0.3-0.2-0.6-0.4-0.9-0.5l-0.4-0.2c-0.6-0.3-1.1-0.7-1.7-1c0,0-0.1,0-0.1-0.1l-0.3-0.2c-0.3-0.2-0.6-0.4-0.9-0.5
					c-0.8-0.5-1.6-1-2.3-1.5c-0.1-0.1-0.1-0.1-0.2-0.1c0,0-0.1,0-0.1,0c-0.3-0.2-0.6-0.4-0.8-0.6c-0.7-0.5-1.4-0.9-2.1-1.4l-0.1,0
					c-0.3-0.2-0.7-0.5-1-0.7c-0.2-0.1-0.4-0.2-0.5-0.4l-0.1-0.1c-0.6-0.4-1.1-0.8-1.7-1.2c-0.9-0.7-1.9-1.4-2.8-2c0,0-0.1,0-0.1-0.1
					c0,0,0,0,0,0c-0.9-0.7-1.8-1.3-2.7-2c0,0-0.1,0-0.1,0l-0.2-0.2c-2.7-2-5.4-4.2-8-6.3l-0.5-0.4c-0.8-0.7-1.7-1.4-2.5-2.1
					c-0.3-0.2-0.6-0.5-0.9-0.8c-0.5-0.4-1-0.8-1.4-1.3L206,289c-0.1-0.1-0.2-0.2-0.3-0.3c-0.1-0.1-0.2-0.2-0.3-0.2l-0.4-0.3
					c-0.6-0.5-1.2-1.1-1.8-1.6c-0.1,0-0.1-0.1-0.2-0.2l-0.1-0.1c-0.6-0.6-1.2-1.1-1.9-1.7c-7.9-1.2-17.1-3.9-19.5-12.9
					c-0.6-2,0.1-4.1,1.6-5.5c-13-14.1-8.6-23.2-6.9-25.8c4.1-5.9,12.9-7.6,21.1-3.8c8,3.9,17.1,8.4,27.1,13.2l27.5,13.4
					c0.1,0,0.1,0,0.1,0.1c0.5,0.2,1,0.5,1.5,0.7l1,0.5c6.1,3,12.4,6.1,18.9,9.2l2.8,1.4l10-1.4c1.5-0.2,2.9-0.4,4.3-0.6l3.9-0.6
					c1.2-0.2,2.4-0.3,3.6-0.5l10.6-1.5c3.2-0.5,6.5-0.9,9.7-1.4c2.5-0.4,5-0.7,7.5-1.1l0.9-0.1c6.1-0.9,12.2-1.7,18.3-2.6l5.2-0.7
					c1.3-0.2,2.6-0.4,3.9-0.5l31.3-4.4c3.7-0.5,7.3-1,11-1.5l10.1-1.4c4.5-0.6,8.9-1.2,13.3-1.8c1.2-0.2,2.4-0.3,3.6-0.5l1.8-0.2
					c0.9-0.1,1.9-0.2,2.8-0.4l2.2-0.3c1.9-0.3,3.9-0.5,5.8-0.8l0.2,0c1.4-0.2,2.9-0.4,4.4-0.6l1.4-0.2c0.1,0,0.3,0,0.4-0.1l0.8-0.1
					c1.5-0.2,3-0.4,4.5-0.6l2.7-0.3c2-0.3,4-0.5,6-0.8l0.3,0c0.7-0.1,1.4-0.2,2.1-0.3c0.8-0.1,1.6-0.2,2.4-0.3
					c1.7-0.2,3.3-0.4,4.9-0.6l4.1-0.5c1.3-0.2,2.5-0.3,3.8-0.4l3.2-0.4c0.8-0.1,1.7-0.2,2.5-0.3l0.9-0.1c2.8-0.3,5.6-0.6,8.3-0.9
					c1.6-0.2,3.2-0.4,4.8-0.5c2.1-0.2,4.1-0.4,6.1-0.6c0.6-0.1,1.1-0.1,1.7-0.2l1.3-0.1c0.5-0.1,1-0.1,1.5-0.1
					c1.8-0.2,3.6-0.4,5.4-0.5c1.9-0.2,3.7-0.3,5.5-0.5l0.2,0c0.7-0.1,1.4-0.1,2.1-0.2c0.3,0,0.6-0.1,0.9-0.1c1-0.1,2-0.1,2.9-0.2
					c4.1-0.3,7.6-0.5,10.8-0.6c5.3-0.2,10.3,2.4,13.2,6.9c2.8,4.4,3.2,9.9,0.8,14.5c-0.2,0.4-0.4,0.7-0.6,1.1l-0.1,0.2
					c-0.1,0.1-0.2,0.3-0.2,0.4l-0.3,0.4c-0.2,0.2-0.3,0.4-0.4,0.6c-0.1,0.1-0.2,0.3-0.4,0.5c-0.2,0.3-0.6,0.7-0.9,1.1
					c-0.3,0.3-0.6,0.6-0.8,0.9c-0.1,0.1-0.3,0.3-0.5,0.4c-0.1,0.1-0.3,0.3-0.5,0.5c-0.1,0.1-0.2,0.2-0.3,0.2c1,1.7,0.8,3.4,0.5,4.2
					c-1.6,5.5-11.4,9.6-23.9,9.8c-1.3,0-2.6,0.4-3.6,1l-40.9,24.9l22.7,15.2c0.4,0.3,0.8,0.2,1,0.2c0.2,0,0.6-0.2,0.8-0.6
					c6.1-10,13.9-16.8,23-20.3c3-1.1,6.3-1.1,9.3,0c2.3,0.8,4.7,2,7.3,3.4c0.3,0.1,0.6,0.3,0.9,0.5l0.1,0c0.2,0.1,0.5,0.3,0.7,0.4
					c0.5,0.3,1,0.6,1.5,0.9l0.1,0.1c0.3,0.2,0.6,0.4,0.9,0.6c0.3,0.2,0.7,0.4,1,0.7c1.1,0.7,2,1.4,3,2.1c0.7,0.5,1.3,1,2,1.5
					c0.3,0.2,0.7,0.5,1,0.8c0.5,0.4,1.2,0.9,1.8,1.5c0.2,0.2,0.4,0.4,0.7,0.5c0.3,0.3,0.7,0.6,1.1,0.9c0.3,0.2,0.5,0.5,0.8,0.7
					c0.5,0.5,1.1,1,1.6,1.5c0.5,0.5,1.1,1,1.6,1.6l0.6,0.6c0.3,0.3,0.5,0.5,0.7,0.8l0.3,0.3c0.2,0.3,0.5,0.5,0.7,0.8
					c0.2,0.3,0.5,0.5,0.8,0.8s0.5,0.6,0.8,0.9c0.2,0.2,0.4,0.5,0.6,0.7l0.1,0.2c0.2,0.3,0.5,0.5,0.7,0.8c0.6,0.7,1,1.2,1.4,1.8
					c0.2,0.3,0.4,0.6,0.7,0.9c0.4,0.6,0.8,1.2,1.3,1.8c0.2,0.3,0.4,0.6,0.6,0.9c0.4,0.6,0.8,1.2,1.1,1.8c0.2,0.3,0.4,0.6,0.5,0.9
					c0.6,1.1,1.2,2.2,1.7,3.3l0.1,0.3c0.1,0.1,0.1,0.3,0.2,0.4c0.3,0.7,0.7,1.5,1,2.4c0.1,0.2,0.2,0.4,0.2,0.6
					c0,0.1,0.1,0.2,0.1,0.2c0.1,0.2,0.1,0.4,0.2,0.6c0.4,1.3,0.7,2.5,1,3.7c0,0.2,0.1,0.4,0.1,0.6v0.1c0.1,0.2,0.1,0.5,0.1,0.8
					l0,0.2c0,0,0,0,0,0.1l0,0.5c0,0,0,0.1,0,0.1l0,0.3c0,0.2,0,0.4,0,0.6c0,0,0,0.1,0,0.2c0,0.3,0,0.6,0,0.9c0,1.8-0.2,3.5-0.6,5.2
					c-1.1,4.1-4,7.5-8,9.3c-6.5,2.9-13.5,2.8-20.8-0.3C534.5,383.3,520,391.6,499.5,391.6L499.5,391.6z M444.2,372.7
					c0.3,0,0.7,0.1,1,0.2c25.2,10.7,46,15.2,61.7,13.3c15.4-1.9,26-9.7,32.3-24c0.3-0.6,0.8-1.1,1.5-1.4c0.7-0.2,1.4-0.2,2,0.1
					c6.8,3.4,13,3.8,18.9,1.2c2.6-1.1,4.4-3.3,5.1-5.9c0.3-1.2,0.5-2.5,0.5-3.9c0-0.2,0-0.5,0-0.7c0,0,0-0.1,0-0.1
					c0-0.2,0-0.4,0-0.5v-0.2c0-0.1,0-0.1,0-0.2l0-0.4c0-0.1,0-0.2,0-0.3c0-0.2,0-0.4-0.1-0.6l0-0.1c0-0.1,0-0.3-0.1-0.5
					c-0.2-1-0.5-2-0.8-3.1c-0.1-0.2-0.1-0.4-0.2-0.5c0,0,0-0.1,0-0.1c0,0,0-0.1,0-0.1c-0.1-0.2-0.1-0.3-0.2-0.5
					c-0.3-0.7-0.6-1.4-0.9-2.1c-0.1-0.2-0.1-0.3-0.2-0.4l-0.1-0.3c-0.4-0.9-1-1.9-1.5-2.9c-0.2-0.3-0.3-0.5-0.5-0.8
					c-0.3-0.6-0.7-1.1-1.1-1.7c-0.2-0.3-0.4-0.5-0.5-0.8c-0.4-0.6-0.8-1.1-1.2-1.6c-0.2-0.3-0.4-0.5-0.6-0.8c-0.4-0.5-0.8-1-1.3-1.6
					c-0.2-0.3-0.5-0.5-0.7-0.8l1.9-1.7l-1.9,1.6l-0.1-0.1c-0.2-0.2-0.3-0.4-0.5-0.6c-0.2-0.3-0.5-0.5-0.7-0.8
					c-0.2-0.3-0.5-0.5-0.7-0.8c-0.2-0.2-0.5-0.5-0.7-0.7l-0.3-0.3c-0.2-0.2-0.5-0.5-0.7-0.7l-0.6-0.6c-0.5-0.5-1-1-1.5-1.5
					s-1-1-1.5-1.4c-0.3-0.2-0.5-0.5-0.8-0.7c-0.3-0.3-0.7-0.6-1-0.9c-0.2-0.2-0.4-0.3-0.5-0.5c0,0,0,0-0.1,0c-0.6-0.5-1.1-1-1.7-1.4
					c-0.3-0.3-0.6-0.5-0.9-0.7c-0.6-0.5-1.3-1-1.9-1.4c-0.9-0.6-1.8-1.3-2.8-1.9c-0.3-0.2-0.6-0.4-0.9-0.6c-0.3-0.2-0.6-0.4-0.8-0.5
					l-0.1-0.1c-0.5-0.3-1-0.6-1.4-0.9c-0.2-0.1-0.4-0.2-0.5-0.3l-0.1-0.1c-0.3-0.2-0.5-0.3-0.8-0.4c-2.4-1.3-4.6-2.4-6.6-3.1
					c-1.9-0.7-3.9-0.7-5.8,0c-8.2,3-14.8,9-20.5,18.2c-0.9,1.5-2.4,2.5-4,2.9c-1.7,0.4-3.4,0-4.9-0.9l-26-17.4
					c-0.7-0.5-1.1-1.3-1.1-2.1c0-0.9,0.5-1.6,1.2-2.1l44.3-27c1.8-1.1,4-1.7,6.2-1.8c11.7-0.2,18.6-4.1,19.2-6.2
					c0.1-0.3-0.5-0.8-0.8-1c-0.7-0.5-1.1-1.2-1.2-2.1c0-0.8,0.4-1.6,1-2.1c0.6-0.4,1.2-0.9,1.7-1.4c0.1-0.1,0.3-0.2,0.4-0.3
					c0.1-0.1,0.2-0.2,0.3-0.3c0.2-0.1,0.3-0.2,0.4-0.4c0,0,0,0,0.1-0.1c0.2-0.2,0.4-0.4,0.6-0.6c0.3-0.3,0.5-0.6,0.7-0.9
					c0.1-0.1,0.2-0.2,0.3-0.3c0.1-0.2,0.2-0.3,0.3-0.4l0.2-0.4c0,0,0,0,0-0.1c0-0.1,0.1-0.1,0.1-0.2l0.1-0.1
					c0.1-0.2,0.3-0.5,0.4-0.8c1.5-3.1,1.3-6.6-0.6-9.6c-1.9-3-5.2-4.8-8.8-4.6c-3,0.1-6.6,0.3-10.6,0.6c-1,0.1-1.9,0.1-2.9,0.2
					c-0.3,0-0.6,0-0.9,0.1c-0.7,0.1-1.4,0.1-2.1,0.2l-0.2,0c-1.8,0.1-3.6,0.3-5.5,0.5c-1.8,0.1-3.5,0.3-5.4,0.5
					c-0.5,0-1,0.1-1.4,0.1l-1.3,0.1c-0.6,0.1-1.1,0.1-1.7,0.2c-2,0.2-4,0.4-6.1,0.6c-1.6,0.2-3.1,0.3-4.8,0.5
					c-2.7,0.3-5.4,0.6-8.2,0.9l-0.9,0.1c-0.8,0.1-1.7,0.2-2.5,0.3l-3.2,0.4c-1.2,0.1-2.5,0.3-3.8,0.4l-4.1,0.5
					c-1.6,0.2-3.3,0.4-4.9,0.6c-0.8,0.1-1.6,0.2-2.4,0.3c-0.7,0.1-1.4,0.2-2.1,0.3l-0.3,0c-2,0.2-4,0.5-6,0.8l-2.7,0.3
					c-1.5,0.2-3,0.4-4.5,0.6l-0.9,0.1c0,0-0.1,0-0.1,0c-0.1,0-0.2,0-0.2,0l-1.5,0.2c-1.5,0.2-2.9,0.4-4.4,0.6l-0.2,0
					c-1.9,0.2-3.8,0.5-5.8,0.8l-2.2,0.3c-0.9,0.1-1.8,0.2-2.8,0.4l-1.9,0.2c-1.2,0.2-2.4,0.3-3.6,0.5c-4.4,0.6-8.8,1.2-13.3,1.8
					l-10,1.4c-3.6,0.5-7.3,1-11,1.5l-31.3,4.4c-1.3,0.2-2.6,0.4-3.9,0.5l-5.2,0.7c-6.1,0.9-12.2,1.7-18.3,2.6l-0.9,0.1
					c-2.5,0.4-5,0.7-7.5,1.1c-3.2,0.5-6.5,0.9-9.7,1.4l-10.6,1.5c-1.2,0.2-2.4,0.3-3.6,0.5l-4,0.6c-1.4,0.2-2.9,0.4-4.3,0.6
					l-10.8,1.5c-0.5,0.1-1,0-1.5-0.2l-3.5-1.7c-6.4-3.1-12.7-6.2-18.9-9.2l-1-0.5c-0.5-0.2-0.9-0.5-1.4-0.7c-0.1,0-0.1,0-0.1-0.1
					l-27.6-13.5c-10-4.9-19.1-9.3-27.1-13.2c-5.9-2.7-12.1-1.8-14.8,2.1c-2.7,3.9-1.8,11.7,8.6,21.8c0.6,0.6,0.9,1.4,0.7,2.3
					c-0.1,0.8-0.7,1.5-1.5,1.9l-1.7,0.8c-0.2,0.1-0.3,0.3-0.2,0.5c1.4,5.1,6.2,7.9,16.2,9.3c0.5,0.1,1,0.3,1.4,0.7
					c0.8,0.8,1.6,1.5,2.4,2.2c0,0,0,0,0.1,0.1l0.2,0.2c0.6,0.6,1.2,1.1,1.8,1.6l0.6,0.5c0,0,0.1,0,0.1,0.1c0.1,0.1,0.1,0.1,0.2,0.2
					l0.1,0.1c0.5,0.4,0.9,0.8,1.4,1.2c0.3,0.2,0.6,0.5,0.9,0.7c0.8,0.7,1.6,1.4,2.5,2.1l0.5,0.4c2.5,2.1,5.1,4.1,7.8,6.1l0.1,0
					c0.1,0.1,0.2,0.1,0.2,0.2c0.9,0.6,1.7,1.3,2.6,1.9c0.1,0,0.1,0.1,0.2,0.1c0.9,0.7,1.8,1.3,2.8,2c0.6,0.4,1.1,0.8,1.6,1.1
					l0.2,0.1c0.1,0.1,0.3,0.2,0.4,0.3c0,0,0.1,0,0.1,0.1c0.3,0.2,0.7,0.5,1,0.7l0.1,0c0.7,0.5,1.4,0.9,2.1,1.4
					c0.3,0.2,0.5,0.4,0.8,0.5c0.1,0.1,0.2,0.1,0.3,0.2c0.7,0.5,1.5,1,2.3,1.5c0.3,0.2,0.5,0.3,0.8,0.5l0.5,0.3c0,0,0.1,0.1,0.1,0.1
					c0.5,0.3,1,0.6,1.5,0.9l0.4,0.3c0.3,0.2,0.6,0.4,0.8,0.5l0.1,0.1c0.5,0.3,1,0.6,1.5,0.9l0.2,0.1c0.1,0.1,0.3,0.2,0.4,0.2
					l0.4,0.2c0.2,0.1,0.5,0.3,0.7,0.4c0.4,0.2,0.8,0.5,1.2,0.7c0.1,0,0.1,0.1,0.1,0.1h0c0.1,0,0.1,0.1,0.2,0.1c0,0,0.1,0,0.1,0
					l0.5,0.3c0.7,0.4,1.4,0.8,2.1,1.2c0.3,0.2,0.5,0.3,0.8,0.4c0,0,0.1,0,0.1,0.1c0.2,0.1,0.3,0.2,0.5,0.3c0,0,0.1,0,0.1,0
					c0.6,0.3,1.2,0.7,1.8,1l0.9,0.5c1,0.5,1.9,1,2.9,1.5c0.7,0.4,1.4,0.7,2,1c0.6,0.3,1.1,0.5,1.6,0.8c0.5,0.2,0.9,0.5,1.4,0.7
					c0.8,0.4,1.5,0.8,2.3,1.1c0,0,0,0,0.1,0c0.3,0.1,0.5,0.3,0.8,0.4c0,0,0,0,0.1,0c0.8,0.4,1.5,0.7,2.3,1.1
					c0.6,0.3,1.1,0.5,1.6,0.8c0.7,0.3,1.3,0.6,2,0.9l0.1,0c0.5,0.2,1,0.4,1.4,0.6c0.6,0.3,1.2,0.5,1.7,0.8c0.7,0.3,1.3,0.6,2,0.9
					l0.1,0c0.6,0.3,1.2,0.5,1.9,0.8c0.5,0.2,0.9,0.4,1.3,0.5l0.8,0.3c0.7,0.3,1.4,0.6,2.1,0.9l0.7,0.3c1.2,0.5,2.4,0.9,3.5,1.4
					c1.3,0.5,2.5,1,3.8,1.5c1.3,0.5,2.6,1,3.9,1.4c1.3,0.5,2.6,0.9,3.9,1.4c2.2,0.8,4.4,1.5,6.5,2.2c0.4,0.1,0.7,0.2,1,0.4
					c2.8,0.9,5.6,1.8,8.4,2.6c0.5,0.1,0.9,0.5,1.2,0.9c0.7,0.9,1.5,1.9,2.2,2.8c1.5,1.8,2.9,3.5,4.4,5.1c0.4,0.4,0.7,0.8,1.1,1.2
					c4.1,4.5,8.4,8.6,12.6,12.2c0.2,0.2,0.5,0.4,0.7,0.6l0.4,0.3c0,0,0.1,0,0.1,0.1c0.4,0.3,0.8,0.6,1.2,1c1.2,0.9,2.4,1.9,3.6,2.8
					c0.4,0.3,0.8,0.6,1.2,0.9c0.4,0.3,0.8,0.6,1.2,0.8c3.6,2.5,7.4,4.8,11.2,6.8c0.4,0.2,0.8,0.4,1.2,0.6c0.4,0.2,0.8,0.4,1.3,0.6
					c0.4,0.2,0.7,0.4,1.1,0.5l0.2,0.1c0.4,0.2,0.8,0.4,1.2,0.6c0,0,0.1,0,0.1,0.1c0,0,0.1,0,0.1,0c0.4,0.1,0.7,0.3,1.1,0.5
					c0.4,0.2,0.9,0.4,1.3,0.5c0.5,0.2,0.9,0.4,1.3,0.5l0.3,0.1c0.7,0.3,1.5,0.6,2.3,0.8l1.1,0.4c0.2,0.1,0.4,0.1,0.6,0.2
					c0.7,0.2,1.4,0.4,2.1,0.6c0.3,0.1,0.5,0.2,0.8,0.2c0.7,0.2,1.4,0.4,2.1,0.6c0.5,0.1,0.9,0.2,1.3,0.3c0.5,0.1,0.9,0.2,1.4,0.3
					c0.4,0.1,0.7,0.2,1.1,0.2c0,0,0,0,0.1,0l0.5,0.1c1.7,0.4,3.5,0.7,5.2,0.9c0.5,0.1,0.9,0.1,1.4,0.2c0.5,0.1,0.9,0.1,1.4,0.2
					l1.3,0.1c0.3,0,0.5,0,0.8,0.1l1,0.1c0.8,0.1,1.5,0.1,2.3,0.1c0.4,0,0.8,0,1.1,0c0.4,0,0.8,0,1.1,0l0.9,0c0.5,0,0.9,0,1.4,0
					c15.4,0,31.9-3.9,49.1-11.7c0.3-0.1,0.7-0.2,1-0.2L444.2,372.7z M565.8,345.2L565.8,345.2L565.8,345.2z M565.8,345.2
					L565.8,345.2L565.8,345.2z M565.8,345.2L565.8,345.2L565.8,345.2z M565.8,345.2L565.8,345.2L565.8,345.2z M565.8,345.2
					L565.8,345.2L565.8,345.2z M222.4,302.1L222.4,302.1L222.4,302.1z M222.3,302.1C222.3,302.1,222.3,302.1,222.3,302.1
					C222.3,302.1,222.3,302.1,222.3,302.1z"/>
				<path class="st9" d="M425.5,319.2c18.8-1.2,36.4-8.8,52.9-17.5c3-1.5,5.3,2.9,2.3,4.5c-12.9,6.4-26.5,11.8-40.7,14.3
					c-4.8,0.8-9.6,1.2-14.5,1c-0.6,0-1.1-0.6-1.1-1.2C424.5,319.7,424.9,319.2,425.5,319.2L425.5,319.2L425.5,319.2z"/>
				<path class="st9" d="M468.9,313c-0.8,0-1.5-0.3-2-1c-13.5-17.2-16.7-36.9-9.8-60.3c0.4-1.3,1.8-2.1,3.1-1.7s2.1,1.8,1.7,3.1
					c-6.4,21.7-3.5,40,9,55.8c0.9,1.1,0.7,2.7-0.4,3.5C470,312.8,469.4,313,468.9,313L468.9,313z"/>
				<path class="st9" d="M442.9,373.1l21.2-10.6c0.2-0.1,0.4,0.2,0.2,0.4l-18.7,14.5C442.6,379.5,439.7,374.9,442.9,373.1
					L442.9,373.1L442.9,373.1z"/>
				<path class="st9" d="M495.2,391.5c-0.9,0-1.8-0.5-2.3-1.4c-0.6-1.3-0.1-2.8,1.2-3.4c14.6-7,17.1-20.9,17.2-28.5
					c0.3-14-6.2-26.1-12.3-29.4c-1.2-0.6-1.7-2.2-1-3.4c0.6-1.2,2.2-1.7,3.4-1c8.8,4.7,15.3,19.3,15,33.9c-0.2,8.8-3,24.7-20.1,32.9
					C496,391.4,495.6,391.5,495.2,391.5L495.2,391.5z"/>
				<path class="st9" d="M537,272.7l-11.8-4.9c-1.2-0.5-0.7-2.4,0.6-2.1l12.6,2.2C542.1,268.7,540.6,274,537,272.7L537,272.7
					L537,272.7z"/>
				<path class="st9" d="M539.2,362.2c3.3-6.3,4.9-13.1,4.5-20.2c-0.1-1.5,2.1-1.8,2.4-0.3c1.4,7.4,0.5,15.5-2.2,22.5
					C542.5,367.5,537.7,365.4,539.2,362.2L539.2,362.2z"/>
				<path class="st9" d="M191.1,269.7c-1.4,0-2.8-0.2-4.3-0.5c-1.4-0.3-2.2-1.6-1.9-3s1.6-2.2,3-1.9c4.2,0.9,7.1,0.2,9.7-2.3
					c1-1,2.6-1,3.6,0c1,1,1,2.6,0,3.6C198.3,268.4,195.1,269.7,191.1,269.7L191.1,269.7z"/>
				<path class="st9" d="M202.3,279.6l20,1.4c1.4,0.1,1.4,2.1,0,2.2l-20,1.4c-1.4,0.1-2.6-1-2.7-2.3
					C199.5,280.7,200.8,279.4,202.3,279.6L202.3,279.6z"/>
				<path class="st9" d="M236.8,311.4c-1.1,0-2.2-0.8-2.4-1.9c-5.2-21,5.8-33.5,17.6-44.5c1-1,2.6-0.9,3.6,0.1c1,1,0.9,2.6-0.1,3.6
					c-11.1,10.4-20.7,21.3-16.1,39.6c0.3,1.4-0.5,2.7-1.8,3.1C237.2,311.3,237,311.4,236.8,311.4L236.8,311.4z"/>
				<path class="st9" d="M282.6,304.9c6.5,14,15,29.1,30.3,34.6c1.3,0.5,2,1.9,1.5,3.2c-0.5,1.4-2.1,2-3.4,1.4
					c-4-1.7-7.6-4.1-10.9-6.9c-6.4-5.6-10.9-12.8-14.4-20.4c-1.7-3.7-3.2-7.5-4.6-11.4C281,304.6,282.2,304.1,282.6,304.9
					L282.6,304.9L282.6,304.9z"/>
				<g class="st18">
					<path class="st9" d="M570.1,357.4c-0.9,3.4-3.3,6.2-6.5,7.6c-6.5,2.8-13.5,2.5-21-1.3c-13.3,29.9-45.7,33.9-97.3,12
						c-24.9,11.2-47.7,14.4-68.5,10.1l12.5-43.2l56.9-10.2c1.2,17,9.8,26.3,25.8,27.7c46.6,17.1,59.1-17.8,87.9-30.5
						C567.5,338.4,572.4,348.5,570.1,357.4L570.1,357.4z"/>
				</g>
				<g class="st18">
					<path d="M541.7,266.8c-0.2,0.3-0.5,0.5-0.7,0.8C541.2,267.4,541.4,267.1,541.7,266.8z"/>
				</g>
				<g class="st18">
					<path class="st9" d="M543.7,264.1c-0.1,0.1-0.2,0.3-0.3,0.4c-0.1,0.1-0.2,0.3-0.3,0.5c-0.1,0.1-0.2,0.3-0.3,0.5
						c-0.1,0.1-0.2,0.3-0.3,0.4c-0.3,0.4-0.5,0.7-0.8,1c-0.2,0.3-0.5,0.5-0.7,0.8c-0.1,0.1-0.3,0.3-0.4,0.4
						c-0.1,0.1-0.3,0.3-0.4,0.4c-0.1,0.1-0.3,0.2-0.4,0.4c-0.6,0.5-1.2,1-1.9,1.5c6.3,4.1-3,11.4-19.7,11.8c-1.7,0-3.4,0.5-4.9,1.4
						L479.5,304l-10.6,6.5l12.1,8.1l-52,16.2l-42.4,13.2l-14.9,4.6l-57.4-7.9l-5.3-0.7c-1.9-1.6-3.7-3.2-5.4-4.7
						c-0.4-0.1-0.7-0.2-1-0.4c-19.8-6.6-38.4-14.4-55.6-24c-0.7-0.4-1.4-0.8-2.1-1.2c-0.1,0-0.2-0.1-0.3-0.2c-0.1,0-0.2-0.1-0.2-0.1
						c-0.4-0.2-0.8-0.4-1.1-0.7c-0.4-0.2-0.7-0.4-1.1-0.6c-0.2-0.1-0.4-0.2-0.6-0.4c-0.6-0.3-1.1-0.7-1.6-1
						c-0.3-0.2-0.6-0.3-0.9-0.5c-0.1-0.1-0.3-0.2-0.4-0.3c-0.3-0.2-0.6-0.4-0.9-0.6c-9.5-5.9-18.5-12.4-26.9-19.6
						c-0.2-0.2-0.4-0.4-0.7-0.6c-0.3-0.2-0.6-0.5-0.9-0.7c-0.5-0.4-0.9-0.8-1.4-1.2c-0.3-0.3-0.6-0.5-0.9-0.8
						c-0.4-0.4-0.8-0.7-1.2-1.1c-0.3-0.2-0.6-0.5-0.8-0.7c0,0-0.1-0.1-0.1-0.1l15.2-0.6l16.8,3.6c0.3,0.1,0.7,0.1,1,0.2
						c8.5,1.1,15.9-6.2,14.5-14.9l-0.6-3.9l-0.5-3.2h0l28.3,11.7l5.2,2.1c0.2-1,0.5-2,0.7-3l0.9-0.1l0.6-0.1l1.4-0.2l2.9-0.4
						l45.4,25.5c11.2,23.9,68.6,5.2,121.1-13.3C495,274.5,530,261.4,543.7,264.1L543.7,264.1z"/>
				</g>
			</g>
			<g>
				<path class="st11" d="M418,358.3c-0.5,2.2-1.2,4.4-2,6.5c-0.6,1.6-1.3,3.2-2,4.8c-0.3,0.6-0.6,1.2-1.1,1.8
					c-1.4,1.8-3.4,3.1-5.6,3.6c-22.6,5-45.3,8.8-68,9.6c-2.3,0.1-4.5-0.5-6.4-1.8c-11.9-8.1-22.4-17.8-31.1-29.5
					c-1.2-1.7-2-3.6-2.2-5.6c-0.2-1.9,0-3.9,0.8-5.8l4.2-10.1c1-2.4,3.1-4.2,5.7-4.9c2.6-0.7,5.2-1.3,7.9-1.9
					c23.8-5.4,47.4-7.7,70.8-5.9c2.7,0.2,5.2,1.3,7.2,3.1c7.1,6.5,14.1,16.2,21,29.1C418.2,353.5,418.5,356,418,358.3L418,358.3z"/>
				<path class="st9" d="M338.8,387.2c-2.7,0-5.2-0.8-7.4-2.3c-12.6-8.6-23.3-18.7-31.7-30.1c-2.9-3.9-3.6-9.2-1.7-13.8l0,0
					l4.2-10.1c1.3-3.1,4-5.5,7.4-6.4c28.3-7.3,54.3-9.8,79.5-7.9c3.3,0.3,6.4,1.6,8.7,3.7c7.4,6.8,14.6,16.8,21.5,29.8
					c1.4,2.7,1.8,5.8,1.1,8.7c-0.9,3.8-2.3,7.8-4.2,11.8c-1.6,3.5-4.8,6-8.5,6.8c-26.8,5.9-48.6,9-68.4,9.7
					C339.2,387.2,339,387.2,338.8,387.2L338.8,387.2z M302.7,342.9L302.7,342.9c-1.2,3-0.8,6.4,1.1,8.9c8.2,11.1,18.2,20.6,30.5,29
					c1.4,1,3.1,1.5,4.9,1.4c19.5-0.7,41-3.8,67.5-9.6c2.2-0.5,4-2,5-4c1.7-3.8,3-7.4,3.9-10.9c0.4-1.7,0.2-3.6-0.7-5.2
					c-6.6-12.5-13.5-22-20.5-28.4c-1.5-1.4-3.5-2.2-5.7-2.4c-24.6-1.9-50,0.6-77.8,7.7c-1.8,0.5-3.2,1.7-4,3.4L302.7,342.9
					L302.7,342.9z"/>
				<path class="st9" d="M402.3,361.8c-0.9,0-1.8-0.6-2.1-1.5c-2.4-6.4-9.6-13.3-16.2-19.2c-1.9-1.7-4.4-2.6-7-2.6
					c-23.9,0.6-42.2,2.1-54.7,4.3c-15.5,2.8-18.3,6.1-18.8,7.4c-0.6,1.5,1,3.4,2.4,4.7c0.9,0.9,1,2.3,0.1,3.2
					c-0.9,0.9-2.3,1-3.2,0.1c-3.5-3.3-4.7-6.6-3.5-9.6c2.2-5.9,13.1-12.9,77.6-14.6c3.7-0.1,7.4,1.2,10.2,3.7
					c7,6.2,14.6,13.5,17.4,20.9c0.5,1.2-0.1,2.5-1.3,2.9C402.8,361.8,402.6,361.8,402.3,361.8L402.3,361.8z"/>
				<path class="st9" d="M357,385.7c-0.7,0-1.4-0.4-1.9-1l-15.7-22.9h-8.1c-0.7,0-1.3-0.3-1.7-0.8l-15.2-17.7
					c-0.8-1-0.7-2.4,0.2-3.2c1-0.8,2.4-0.7,3.2,0.2l14.5,16.9h8.3c0.8,0,1.5,0.4,1.9,1l16.4,23.9c0.7,1,0.5,2.5-0.6,3.2
					C357.9,385.6,357.5,385.7,357,385.7L357,385.7z"/>
				
					<ellipse transform="matrix(0.7071 -0.7071 0.7071 0.7071 -147.7626 366.4913)" class="st19" cx="368.5" cy="361.6" rx="6.4" ry="8.5"/>
				<path class="st9" d="M370.6,371.4c-0.5,0-0.9,0-1.4-0.1c-2.5-0.4-4.9-1.6-6.9-3.6s-3.2-4.4-3.6-6.9c-0.4-2.7,0.4-5.2,2.1-6.9
					c1.7-1.7,4.2-2.5,6.9-2.1c2.5,0.4,4.9,1.6,6.9,3.6l0,0c4.2,4.2,4.9,10.4,1.5,13.8C374.8,370.7,372.8,371.4,370.6,371.4
					L370.6,371.4z M366.3,356.3c-0.9,0-1.7,0.3-2.3,0.8c-1.6,1.6-0.9,4.9,1.5,7.3c1.2,1.2,2.8,2.1,4.3,2.3c0.7,0.1,2.1,0.1,3-0.8
					c1.6-1.6,0.9-4.9-1.5-7.3C369.9,357.2,367.9,356.3,366.3,356.3L366.3,356.3z"/>
				<path class="st19" d="M362.5,355.6c4-15.4,29.4,1.9,12.8,11.3C379.6,363.1,368.5,350.2,362.5,355.6z"/>
				<path class="st9" d="M375.2,369.1c-0.7,0-1.4-0.3-1.9-1c-0.7-1-0.5-2.3,0.4-3c0.3-0.2,0.2-0.8,0.1-1.1c-0.5-2.4-3.4-6-6.6-7.1
					c-2-0.7-3,0.1-3.3,0.4c-0.8,0.7-1.9,0.8-2.7,0.2s-1.3-1.5-1-2.5c1.3-5,4.7-7.8,9.4-7.8l0,0c5.7,0,11.7,4.5,13.1,9.7
					c0.6,2.2,1.1,7.7-6.5,11.9C376,369,375.6,369.1,375.2,369.1L375.2,369.1z M367.5,352.2c0.4,0.1,0.9,0.2,1.3,0.4
					c3.8,1.3,7.7,5.2,9.1,9c0.6-1,0.8-2.2,0.5-3.5c-0.9-3.3-5-6.3-8.7-6.3l0,0C368.9,351.7,368.1,351.9,367.5,352.2L367.5,352.2z"/>
				<g class="st18">
					<path class="st9" d="M415.2,364.8c-0.6,1.6-1.3,3.2-2,4.8c-0.3,0.6-0.6,1.2-1.1,1.8c-1.4,1.8-3.4,3.1-5.6,3.6
						c-22.6,5-45.3,8.8-68,9.6c-2.3,0.1-4.5-0.5-6.4-1.8c-11.9-8.1-22.4-17.8-31.1-29.5c-1.2-1.7-2-3.6-2.2-5.6
						c-0.2-1.9,0-3.9,0.8-5.8l4.2-10.1c1-2.4,3.1-4.2,5.7-4.9c2.6-0.7,5.2-1.3,7.9-1.9l0,0c-1,3.8,2,7.5,6,7.3l47.8-2.3
						c9.6-0.5,18.9,3.7,25,11.2L415.2,364.8L415.2,364.8z"/>
				</g>
				<path class="st11" d="M410.4,348.8c48.7-12.4,82.2-27.6,77-49.9c-23.5,15.7-48.7,29.2-79.2,36c-5.8,1.3-7.8,8.6-3.3,12.5
					c0,0,0.1,0.1,0.1,0.1C406.4,348.8,408.5,349.2,410.4,348.8L410.4,348.8z"/>
				<g class="st18">
					<path class="st9" d="M424.8,338.8c-1.9,0.6-3.9,0.3-5.5-0.9c0,0-0.1-0.1-0.1-0.1c-1.7-1.3-2.6-3.1-2.7-5
						c-2.7,0.7-5.5,1.4-8.3,2c-5.8,1.3-7.8,8.6-3.3,12.5c0,0,0.1,0.1,0.1,0.1c1.5,1.3,3.5,1.7,5.4,1.2c39.2-10,68.5-21.8,75.8-37.6
						C473,321.3,451.3,330.3,424.8,338.8z"/>
				</g>
				<path class="st9" d="M408.8,351.5c-2,0-4-0.7-5.5-2l-0.2-0.1c-2.8-2.4-3.9-6.1-3-9.7c0.9-3.6,3.8-6.4,7.4-7.2
					c33-7.3,59.2-22.9,78.3-35.6c0.7-0.5,1.5-0.5,2.3-0.2c0.8,0.3,1.3,1,1.5,1.8c2.8,11.6-3.8,22.2-19.4,31.4
					c-12.9,7.6-32.3,14.6-59.4,21.5l0,0C410.3,351.4,409.6,351.5,408.8,351.5L408.8,351.5z M410.4,348.8L410.4,348.8L410.4,348.8z
					 M485.3,303.2c-19.1,12.5-44.7,27-76.6,34.1c-1.8,0.4-3.2,1.7-3.6,3.5c-0.4,1.7,0.1,3.5,1.4,4.6l0.1,0.1c0.9,0.7,2,1,3.1,0.7
					C461.3,333.2,485.5,319.4,485.3,303.2L485.3,303.2z"/>
			</g>
			<g>
				<path class="st11" d="M233.7,207.2c0,0.4,0,0.9,0,1.3c0,0.4,0,0.8,0,1.1c0,0.4,0,0.7,0,1.1c0,4.9,0.4,9.7,1.1,14.5
					c0.1,0.4,0.1,0.9,0.2,1.3c0,0.3,0.1,0.5,0.1,0.8c0.1,0.3,0.1,0.7,0.2,1c0.1,0.4,0.2,0.9,0.2,1.3c0.1,0.3,0.1,0.6,0.2,0.9
					c0.1,0.5,0.2,0.9,0.3,1.4c0,0,0,0,0,0.1c0,0.1,0,0.1,0,0.1c0.1,0.3,0.1,0.6,0.2,0.9c0.1,0.4,0.2,0.8,0.3,1.1
					c0.1,0.2,0.1,0.5,0.2,0.8c0.1,0.5,0.3,1,0.4,1.5c0,0,0,0,0,0c0.1,0.5,0.3,1,0.4,1.4s0.3,1,0.4,1.4s0.3,1,0.4,1.4
					c0,0,0,0.1,0,0.1c0.1,0.4,0.3,0.9,0.4,1.3c0.2,0.5,0.3,0.9,0.5,1.4c0.5,1.4,1.1,2.8,1.6,4.2c0.2,0.4,0.4,0.9,0.6,1.3
					c0,0.1,0.1,0.2,0.1,0.2c0.4,0.8,0.7,1.6,1.1,2.5c0.1,0.2,0.2,0.5,0.4,0.8c0.1,0.3,0.3,0.6,0.4,0.9c0.6,1.2,1.2,2.4,1.9,3.6
					c0.4,0.8,0.9,1.6,1.3,2.4c0.8,1.4,1.6,2.7,2.4,4c0.3,0.4,0.5,0.8,0.8,1.2c0.5,0.8,1.1,1.6,1.7,2.4c0.3,0.4,0.6,0.8,0.9,1.2
					c0.3,0.4,0.6,0.8,0.9,1.2c1.5,2,3,3.9,4.6,5.7c1.9,2.2,4,4.4,6.1,6.4c0.7,0.7,1.4,1.4,2.1,2s1.5,1.3,2.2,2
					c0.3,0.3,0.6,0.5,0.9,0.8c0.5,0.4,0.9,0.8,1.4,1.2c0.4,0.3,0.7,0.6,1.1,0.9c0.8,0.6,1.6,1.2,2.4,1.8c1.2,0.9,2.4,1.7,3.6,2.5
					c0.4,0.2,0.8,0.5,1.1,0.8c0.1,0.1,0.2,0.1,0.4,0.2c0.3,0.2,0.7,0.4,1,0.6c1.3,0.8,2.6,1.6,4,2.4c0.4,0.2,0.7,0.4,1.1,0.6
					c0.4,0.2,0.9,0.5,1.3,0.7c1.2,0.6,2.4,1.2,3.6,1.8l0,0c0.2,0.1,0.4,0.2,0.6,0.3c0.4,0.2,0.8,0.4,1.1,0.5
					c0.5,0.2,0.9,0.4,1.4,0.6c0.5,0.2,1,0.5,1.6,0.7c0.3,0.1,0.5,0.2,0.8,0.3c0.5,0.2,1,0.4,1.5,0.6c0.5,0.2,1,0.4,1.4,0.5
					c0.5,0.2,1.1,0.4,1.6,0.6c0.5,0.2,1,0.3,1.4,0.5c0.4,0.1,0.8,0.2,1.2,0.4c0.2,0.1,0.5,0.1,0.7,0.2c1,0.3,2,0.6,3,0.9
					c0.5,0.1,0.9,0.2,1.4,0.4c0.4,0.1,0.8,0.2,1.3,0.3c0.4,0.1,0.8,0.2,1.1,0.3s0.8,0.2,1.1,0.3c0.8,0.2,1.5,0.3,2.3,0.5
					c1.1,0.2,2.3,0.4,3.5,0.6c0.4,0.1,0.8,0.1,1.2,0.2c3.9,0.6,7.9,0.9,11.9,1c1.6,0,3.2,0,4.8,0c0,0,0,0,0.1,0c0.8,0,1.5,0,2.3-0.1
					c0,0,0.1,0,0.1,0c1.1,0,2.2-0.1,3.2-0.2c0.1,0,0.3,0,0.5,0c0.7-0.1,1.4-0.1,2.1-0.2c0.4,0,0.8-0.1,1.2-0.1
					c0.4,0,0.8-0.1,1.2-0.1c0.8-0.1,1.5-0.2,2.3-0.3c0.4,0,0.8-0.1,1.2-0.2c0.1,0,0.2,0,0.3,0c46-7.6,81.6-46.9,83.1-95.2
					c1.6-54.9-41.6-100.7-96.5-102.3c-41.7-1.2-78.1,23.4-93.9,59.4c-0.1,0.3-0.3,0.7-0.4,1c-0.1,0.3-0.3,0.7-0.4,1
					c0,0.1-0.1,0.2-0.1,0.4c-0.2,0.5-0.4,1-0.6,1.5c-0.7,1.9-1.4,3.8-2,5.8c-0.1,0.3-0.2,0.6-0.3,0.8c-0.2,0.7-0.4,1.5-0.7,2.2
					c-0.1,0.2-0.1,0.5-0.2,0.7c-0.1,0.4-0.2,0.8-0.3,1.3c-0.1,0.5-0.2,0.9-0.4,1.4c-0.2,0.8-0.4,1.5-0.5,2.3
					c-0.2,0.8-0.3,1.5-0.5,2.3c0,0,0,0,0,0.1c-0.1,0.4-0.1,0.7-0.2,1.1c-0.1,0.6-0.2,1.3-0.3,1.9c0,0.2-0.1,0.5-0.1,0.8
					c-0.1,0.4-0.1,0.9-0.2,1.3C234.1,199.5,233.8,203.3,233.7,207.2L233.7,207.2z"/>
				<path class="st11" d="M233.7,207.2c0,0.4,0,0.9,0,1.3c0,0.4,0,0.8,0,1.1c0,0.4,0,0.7,0,1.1c0,1.8,0.1,3.5,0.2,5.3
					c0.2,3.1,0.5,6.2,1,9.2c0.1,0.4,0.1,0.9,0.2,1.3c0,0.3,0.1,0.5,0.1,0.8c0.1,0.3,0.1,0.7,0.2,1c0.1,0.4,0.2,0.9,0.2,1.3
					c0.1,0.3,0.1,0.6,0.2,0.9c0.1,0.5,0.2,0.9,0.3,1.4c0,0,0,0,0,0.1c0,0.1,0,0.1,0,0.1c0.1,0.3,0.1,0.6,0.2,0.9
					c0.1,0.4,0.2,0.8,0.3,1.1c0.1,0.2,0.1,0.5,0.2,0.8c0.1,0.5,0.3,1,0.4,1.5c0,0,0,0,0,0c0.1,0.5,0.3,1,0.4,1.4s0.3,1,0.4,1.4
					s0.3,1,0.4,1.4c0,0,0,0.1,0,0.1c0.1,0.4,0.3,0.9,0.4,1.3c0.2,0.5,0.3,0.9,0.5,1.4c0.5,1.4,1.1,2.8,1.6,4.2
					c0.2,0.4,0.4,0.9,0.6,1.3c0,0.1,0.1,0.2,0.1,0.2c0.4,0.8,0.7,1.6,1.1,2.5c0.1,0.2,0.2,0.5,0.4,0.8c0.1,0.3,0.3,0.6,0.4,0.9
					c0.6,1.2,1.2,2.4,1.9,3.6c0.4,0.8,0.9,1.6,1.3,2.4c0.8,1.4,1.6,2.7,2.4,4c0.3,0.4,0.5,0.8,0.8,1.2c0.5,0.8,1.1,1.6,1.7,2.4
					c0.3,0.4,0.6,0.8,0.9,1.2c0.3,0.4,0.6,0.8,0.9,1.2c1.5,2,3,3.9,4.6,5.7c1.9,2.2,4,4.4,6.1,6.4c0.7,0.7,1.4,1.4,2.1,2
					s1.5,1.3,2.2,2c0.3,0.3,0.6,0.5,0.9,0.8c0.5,0.4,0.9,0.8,1.4,1.2c0.4,0.3,0.7,0.6,1.1,0.9c0.8,0.6,1.6,1.2,2.4,1.8
					c1.2,0.9,2.4,1.7,3.6,2.5c0.4,0.2,0.8,0.5,1.1,0.8c0.1,0.1,0.2,0.1,0.4,0.2c0.3,0.2,0.7,0.4,1,0.6c1.3,0.8,2.6,1.6,4,2.4
					c0.4,0.2,0.7,0.4,1.1,0.6c0.4,0.2,0.9,0.5,1.3,0.7c1.2,0.6,2.4,1.2,3.6,1.8l0,0c0.2,0.1,0.4,0.2,0.6,0.3
					c0.4,0.2,0.8,0.4,1.1,0.5c0.5,0.2,0.9,0.4,1.4,0.6c0.5,0.2,1,0.5,1.6,0.7c0.3,0.1,0.5,0.2,0.8,0.3c0.5,0.2,1,0.4,1.5,0.6
					c0.5,0.2,1,0.4,1.4,0.5c0.5,0.2,1.1,0.4,1.6,0.6c0.5,0.2,1,0.3,1.4,0.5c0.4,0.1,0.8,0.2,1.2,0.4c0.2,0.1,0.5,0.1,0.7,0.2
					c1,0.3,2,0.6,3,0.9c0.5,0.1,0.9,0.2,1.4,0.4c0.4,0.1,0.8,0.2,1.3,0.3c0.4,0.1,0.8,0.2,1.1,0.3s0.8,0.2,1.1,0.3
					c0.8,0.2,1.5,0.3,2.3,0.5c1.1,0.2,2.3,0.4,3.5,0.6c0.4,0.1,0.8,0.1,1.2,0.2c3.9,0.6,7.9,0.9,11.9,1c1.6,0,3.2,0,4.8,0
					c0,0,0,0,0.1,0c0.8,0,1.5,0,2.3-0.1c0,0,0.1,0,0.1,0c1.1,0,2.2-0.1,3.2-0.2c0.1,0,0.3,0,0.5,0c0.7-0.1,1.4-0.1,2.1-0.2
					c0.4,0,0.8-0.1,1.2-0.1c0.4,0,0.8-0.1,1.2-0.1c0.8-0.1,1.5-0.2,2.3-0.3c0.4,0,0.8-0.1,1.2-0.2c0.1,0,0.2,0,0.3,0
					c37.9-6.3,68.8-34,79.2-70.6c2.2-7.8,3.6-16.1,3.8-24.6c1.6-54.9-41.6-100.7-96.5-102.3c-41.7-1.2-78.1,23.4-93.9,59.4
					c-0.1,0.3-0.3,0.7-0.4,1c-0.1,0.3-0.3,0.7-0.4,1c0,0.1-0.1,0.2-0.1,0.4c-0.2,0.5-0.4,1-0.6,1.5c-0.7,1.9-1.4,3.8-2,5.8
					c-0.1,0.3-0.2,0.6-0.3,0.8c-0.2,0.7-0.4,1.5-0.7,2.2c-0.1,0.2-0.1,0.5-0.2,0.7c-0.1,0.4-0.2,0.8-0.3,1.3
					c-0.1,0.5-0.2,0.9-0.4,1.4c-0.2,0.8-0.4,1.5-0.5,2.3c-0.2,0.8-0.3,1.5-0.5,2.3c0,0,0,0,0,0.1c-0.1,0.4-0.1,0.7-0.2,1.1
					c-0.1,0.6-0.2,1.3-0.3,1.9c0,0.2-0.1,0.5-0.1,0.8c-0.1,0.4-0.1,0.9-0.2,1.3C234.1,199.5,233.8,203.3,233.7,207.2L233.7,207.2z"
					/>
				<path class="st20" d="M233.8,215.9c0.2,3.1,0.5,6.2,1,9.2c0.1,0.4,0.1,0.9,0.2,1.3c0,0.3,0.1,0.5,0.1,0.8c0.1,0.3,0.1,0.7,0.2,1
					c0.1,0.4,0.2,0.9,0.2,1.3c0.1,0.3,0.1,0.6,0.2,0.9c0.1,0.5,0.2,0.9,0.3,1.4c0,0,0,0,0,0.1c0,0.1,0,0.1,0,0.1
					c0.1,0.3,0.1,0.6,0.2,0.9c0.1,0.4,0.2,0.8,0.3,1.1c0.1,0.2,0.1,0.5,0.2,0.8c0.1,0.5,0.3,1,0.4,1.5c0,0,0,0,0,0
					c0.1,0.5,0.3,1,0.4,1.4s0.3,1,0.4,1.4s0.3,1,0.4,1.4c0,0,0,0.1,0,0.1c0.1,0.4,0.3,0.9,0.4,1.3c0.2,0.5,0.3,0.9,0.5,1.4
					c0.5,1.4,1.1,2.8,1.6,4.2c0.2,0.4,0.4,0.9,0.6,1.3c0,0.1,0.1,0.2,0.1,0.2c0.4,0.8,0.7,1.6,1.1,2.5c0.1,0.2,0.2,0.5,0.4,0.8
					c0.1,0.3,0.3,0.6,0.4,0.9c0.6,1.2,1.2,2.4,1.9,3.6c0.4,0.8,0.9,1.6,1.3,2.4c0.8,1.4,1.6,2.7,2.4,4c0.3,0.4,0.5,0.8,0.8,1.2
					c0.5,0.8,1.1,1.6,1.7,2.4c0.3,0.4,0.6,0.8,0.9,1.2c0.3,0.4,0.6,0.8,0.9,1.2c1.5,2,3,3.9,4.6,5.7c1.9,2.2,4,4.4,6.1,6.4
					c0.7,0.7,1.4,1.4,2.1,2s1.5,1.3,2.2,2c0.3,0.3,0.6,0.5,0.9,0.8c0.5,0.4,0.9,0.8,1.4,1.2c0.4,0.3,0.7,0.6,1.1,0.9
					c0.8,0.6,1.6,1.2,2.4,1.8c1.2,0.9,2.4,1.7,3.6,2.5c0.4,0.2,0.8,0.5,1.1,0.8c0.1,0.1,0.2,0.1,0.4,0.2c0.3,0.2,0.7,0.4,1,0.6
					c1.3,0.8,2.6,1.6,4,2.4c0.4,0.2,0.7,0.4,1.1,0.6c0.4,0.2,0.9,0.5,1.3,0.7c1.2,0.6,2.4,1.2,3.6,1.8l0,0c0.2,0.1,0.4,0.2,0.6,0.3
					c0.4,0.2,0.8,0.4,1.1,0.5c0.5,0.2,0.9,0.4,1.4,0.6c0.5,0.2,1,0.5,1.6,0.7c0.3,0.1,0.5,0.2,0.8,0.3c0.5,0.2,1,0.4,1.5,0.6
					c0.5,0.2,1,0.4,1.4,0.5c0.5,0.2,1.1,0.4,1.6,0.6c0.5,0.2,1,0.3,1.4,0.5c0.4,0.1,0.8,0.2,1.2,0.4c0.2,0.1,0.5,0.1,0.7,0.2
					c1,0.3,2,0.6,3,0.9c0.5,0.1,0.9,0.2,1.4,0.4c0.4,0.1,0.8,0.2,1.3,0.3c0.4,0.1,0.8,0.2,1.1,0.3s0.8,0.2,1.1,0.3
					c0.8,0.2,1.5,0.3,2.3,0.5c1.1,0.2,2.3,0.4,3.5,0.6c0.4,0.1,0.8,0.1,1.2,0.2c3.9,0.6,7.9,0.9,11.9,1c1.6,0,3.2,0,4.8,0
					c0,0,0,0,0.1,0c0.8,0,1.5,0,2.3-0.1c0,0,0.1,0,0.1,0c1.1,0,2.2-0.1,3.2-0.2c0.1,0,0.3,0,0.5,0c0.7-0.1,1.4-0.1,2.1-0.2
					c0.4,0,0.8-0.1,1.2-0.1c0.4,0,0.8-0.1,1.2-0.1c0.8-0.1,1.5-0.2,2.3-0.3c0.4,0,0.8-0.1,1.2-0.2c0.1,0,0.2,0,0.3,0
					c37.9-6.3,68.8-34,79.2-70.6C386.1,235.1,289.9,223.2,233.8,215.9L233.8,215.9z"/>
				<path class="st9" d="M333.1,311.8c-1,0-2,0-3,0c-56.1-1.6-100.4-48.6-98.7-104.6c0.8-27.2,12.1-52.4,31.9-71
					c19.8-18.7,45.6-28.5,72.8-27.7c56.1,1.6,100.4,48.6,98.7,104.6l0,0C433.2,268,387.9,311.8,333.1,311.8L333.1,311.8z M333,112.9
					c-24.9,0-48.4,9.3-66.6,26.5c-18.9,17.8-29.7,41.9-30.4,67.8c-1.6,53.5,40.8,98.4,94.3,99.9c53.6,1.5,98.4-40.8,99.9-94.3
					s-40.8-98.4-94.3-99.9C335,112.9,334,112.9,333,112.9z M432.5,212.9L432.5,212.9L432.5,212.9z"/>
				<path class="st9" d="M333.1,311.8c-1,0-2,0-3,0c-13.1-0.4-25.8-3.2-37.7-8.4c-30.2-13.2-52.2-40.3-58.9-72.5
					c-1.5-7.2-2.2-14.7-2.1-22.1c0-0.6,0-1.1,0-1.6c0.8-28.8,13.9-56,35.9-74.6c19.2-16.3,43.6-24.9,68.8-24.1
					c27.2,0.8,52.4,12.1,71,31.9c18.6,19.8,28.5,45.6,27.7,72.8l0,0C433.2,268.1,387.9,311.8,333.1,311.8L333.1,311.8z M333.1,112.9
					c-23,0-45.3,8.1-62.9,23.1c-21,17.8-33.4,43.8-34.2,71.3c0,0.5,0,1,0,1.6c-0.1,7.1,0.6,14.2,2,21.1
					c6.4,30.7,27.4,56.6,56.3,69.2c11.4,5,23.5,7.7,36,8c53.5,1.6,98.4-40.8,99.9-94.3l2.3,0.1l-2.3-0.1
					c0.8-25.9-8.6-50.6-26.5-69.5c-17.8-18.9-41.9-29.7-67.9-30.4C335,112.9,334,112.9,333.1,112.9L333.1,112.9z"/>
				<path class="st9" d="M333.2,311.8c-1,0-2,0-3,0c-12.2-0.4-24.1-2.9-35.3-7.4c-0.8-0.3-1.6-0.7-2.4-1
					c-30.2-13.2-52.2-40.3-58.9-72.4c-1.5-7.2-2.2-14.6-2.1-22.1v-0.5c0-0.4,0-0.8,0-1.1c0.4-12.3,2.9-24.2,7.5-35.5
					c4.7-11.6,11.5-22.1,20.2-31.3c2.5-2.7,5.3-5.3,8.2-7.8c19.2-16.3,43.6-24.9,68.8-24.1c56.1,1.6,100.4,48.6,98.7,104.6
					c-1.4,48.5-37.1,89.5-85,97.4C344.3,311.3,338.7,311.8,333.2,311.8L333.2,311.8z M333.1,112.9c-23,0-45.3,8.1-62.9,23.1
					c-2.7,2.3-5.4,4.8-7.8,7.4c-8.3,8.8-14.8,18.8-19.3,29.9c-4.4,10.8-6.8,22.2-7.1,33.9c0,0,0,0,0,0c0,0.4,0,0.7,0,1.1v0.5
					c-0.1,7.1,0.6,14.2,2,21.1c6.4,30.8,27.4,56.6,56.3,69.2c0.8,0.3,1.5,0.7,2.3,1c10.7,4.4,22.1,6.7,33.8,7.1
					c6.3,0.2,12.6-0.2,18.8-1.3c45.7-7.5,79.8-46.7,81.2-93.1c1.5-53.6-40.8-98.4-94.3-99.9C335,112.9,334,112.9,333.1,112.9
					L333.1,112.9z M233.7,207.2L233.7,207.2L233.7,207.2z"/>
				<path class="st9" d="M333.2,312.3c-1,0-2,0-3,0c-12.3-0.4-24.2-2.9-35.5-7.5c-0.8-0.3-1.6-0.7-2.4-1
					c-30.4-13.2-52.5-40.5-59.2-72.8c-1.5-7.2-2.2-14.7-2.1-22.2v-0.5c0-0.4,0-0.8,0-1.1c0.4-12.4,2.9-24.4,7.5-35.7
					c4.8-11.7,11.6-22.3,20.3-31.5c2.5-2.7,5.3-5.3,8.2-7.8c19.3-16.4,43.9-25,69.2-24.3c56.4,1.6,100.9,48.8,99.3,105.2
					c-1.4,48.8-37.4,90-85.5,98C344.4,311.9,338.8,312.3,333.2,312.3L333.2,312.3z M333.1,113.4c-22.9,0-45,8.1-62.5,23
					c-2.7,2.3-5.3,4.8-7.8,7.4c-8.2,8.7-14.7,18.7-19.2,29.7c-4.4,10.7-6.8,22.1-7.1,33.8c0,0,0,0,0,0c0,0.4,0,0.7,0,1.1v0.5
					c-0.1,7.1,0.6,14.1,2,21c6.4,30.6,27.3,56.3,55.9,68.8c0.8,0.3,1.5,0.6,2.3,1c10.7,4.3,21.9,6.7,33.6,7
					c6.3,0.2,12.5-0.2,18.6-1.2c45.4-7.5,79.4-46.4,80.7-92.5c1.5-53.2-40.5-97.8-93.8-99.4C335,113.5,334,113.4,333.1,113.4
					L333.1,113.4z M233.7,207.2L233.7,207.2L233.7,207.2z"/>
				<path class="st9" d="M333.1,312.3c-1,0-1.9,0-2.9,0c-4.1-0.1-8.2-0.5-12.2-1.1l-1.2-0.2c-1.2-0.2-2.5-0.4-3.6-0.6
					c-0.8-0.1-1.6-0.3-2.4-0.5c-0.4-0.1-0.8-0.2-1.1-0.3s-0.8-0.2-1.2-0.3c-0.4-0.1-0.9-0.2-1.3-0.3c-0.5-0.1-0.9-0.2-1.4-0.4
					c-1.1-0.3-2-0.6-3-0.9c-0.2-0.1-0.5-0.1-0.7-0.2c-0.4-0.1-0.8-0.2-1.2-0.4c-0.5-0.1-1-0.3-1.5-0.5c-0.5-0.2-1.1-0.4-1.7-0.6
					c-0.5-0.2-1-0.4-1.5-0.5c-0.5-0.2-1-0.4-1.5-0.6l-0.8-0.3c-0.6-0.2-1.1-0.5-1.6-0.7c-0.5-0.2-0.9-0.4-1.4-0.6
					c-0.4-0.2-0.8-0.4-1.2-0.5c-0.2-0.1-0.4-0.2-0.6-0.3c0,0,0,0,0,0c-1.2-0.6-2.4-1.2-3.7-1.9l-0.1,0c-0.4-0.2-0.9-0.5-1.3-0.7
					l-1.1-0.6c-1.5-0.9-2.9-1.7-4.2-2.5c-0.3-0.2-0.6-0.4-1-0.6l-0.4-0.2c-0.4-0.3-0.8-0.5-1.2-0.8c-1.2-0.8-2.5-1.7-3.7-2.6
					c-1-0.7-1.7-1.3-2.4-1.8l-1.1-0.9c-0.5-0.4-1-0.8-1.5-1.2c-0.3-0.3-0.6-0.5-0.9-0.8c-0.7-0.6-1.4-1.2-2.3-2
					c-0.8-0.7-1.5-1.4-2.2-2.1c-2.1-2.1-4.2-4.3-6.2-6.6c-1.6-1.9-3.2-3.9-4.7-5.9c-0.1-0.2-0.3-0.4-0.4-0.6
					c-0.1-0.2-0.3-0.4-0.4-0.6l-0.1-0.1c-0.3-0.4-0.6-0.8-0.8-1.2c-0.6-0.8-1.1-1.6-1.7-2.5c-0.3-0.5-0.6-0.9-0.8-1.3
					c-0.8-1.3-1.7-2.7-2.5-4.1c-0.5-0.8-0.9-1.6-1.4-2.5c-0.7-1.3-1.3-2.5-1.9-3.7c-0.1-0.3-0.3-0.5-0.4-0.8l-0.4-0.9
					c-0.4-0.9-0.8-1.7-1.1-2.6c0,0,0-0.1,0-0.1l-0.3-0.7c-0.1-0.3-0.2-0.6-0.4-0.8c-0.6-1.6-1.2-3-1.7-4.4c-0.2-0.5-0.3-0.9-0.5-1.4
					l-0.1-0.4c-0.1-0.3-0.2-0.6-0.3-0.9c0-0.1,0-0.1,0-0.1l0,0l0,0c-0.1-0.5-0.3-0.9-0.4-1.4c-0.1-0.5-0.3-1-0.4-1.5s-0.3-1-0.4-1.5
					c0,0,0-0.1,0-0.1c-0.1-0.3-0.1-0.5-0.2-0.8l-0.2-0.6c0,0,0-0.1,0-0.1c0-0.2-0.1-0.3-0.1-0.5l-0.1-0.3c-0.2-0.7-0.3-1.3-0.5-2
					c0-0.1,0-0.1,0-0.1c-0.1-0.4-0.2-0.9-0.3-1.4l-0.2-1c-0.1-0.5-0.2-0.9-0.3-1.4c-0.1-0.3-0.1-0.7-0.2-1.1v-0.1
					c-0.1-0.2-0.1-0.5-0.1-0.8c-0.1-0.4-0.1-0.8-0.2-1.2l0-0.1c-0.8-4.9-1.1-9.9-1.2-14.9c0-0.4,0-0.7,0-1.1c0-0.2,0-0.6,0-0.8
					c0,0,0-0.1,0-0.2v-0.1c0-0.4,0-0.8,0-1.2v-0.1l0,0c0.1-3.9,0.4-7.9,1-11.7c0.1-0.5,0.1-1,0.2-1.4c0-0.2,0.1-0.5,0.1-0.7
					c0.1-0.7,0.2-1.3,0.3-2l0.2-1.1c0-0.1,0-0.1,0-0.2c0.1-0.8,0.3-1.5,0.5-2.3c0.2-0.8,0.4-1.6,0.6-2.3c0.1-0.5,0.2-1,0.4-1.4
					c0.1-0.4,0.2-0.9,0.4-1.3c0.1-0.2,0.1-0.5,0.2-0.7c0.2-0.7,0.4-1.5,0.7-2.3c0.1-0.2,0.2-0.6,0.3-0.9c0.6-1.9,1.3-3.9,2.1-5.9
					c0.2-0.5,0.4-1,0.6-1.6c0,0,0-0.1,0-0.1c0,0,0-0.1,0.1-0.1c0-0.1,0-0.1,0.1-0.2l0.4-1c0.1-0.3,0.2-0.6,0.4-0.9l0.1-0.2
					c9.8-21.8,29.8-37.8,53.4-42.8c8.4-1.8,17.1-2.6,25.9-2.3c27.4,0.8,52.9,11.5,71.8,30.2c18.9,18.8,29,43.2,28.2,69
					c-0.1,2.4,0.1,4.9,0.2,7.5c0.3,5.1,0.6,10.4-0.8,15.4c-9.9,34.7-34.7,58.4-68,65c-0.1,0-0.1,0-0.2,0c-0.1,0-0.3,0-0.4,0.1
					c-0.4,0.1-0.8,0.1-1.2,0.2c-0.8,0.1-1.6,0.2-2.4,0.3l-1.2,0.1c-0.4,0.1-0.9,0.1-1.3,0.1c-0.7,0.1-1.3,0.1-2,0.2
					c-0.2,0-0.4,0-0.6,0c-1,0.1-2.1,0.1-3.2,0.2c-0.1,0-0.1,0-0.2,0c-0.8,0-1.5,0-2.3,0.1l0,0c0,0-0.1,0-0.1,0
					C334.4,312.3,333.7,312.3,333.1,312.3L333.1,312.3z M349.5,308.1L349.5,308.1L349.5,308.1z M291.4,297.2c0.1,0,0.1,0.1,0.2,0.1
					c0.2,0.1,0.3,0.2,0.5,0.2c0.4,0.2,0.7,0.3,1.1,0.5c0.5,0.2,0.9,0.4,1.4,0.6c0.5,0.2,1,0.4,1.5,0.7l0.8,0.3
					c0.5,0.2,1,0.4,1.4,0.6c0.5,0.2,0.9,0.4,1.4,0.5c0.5,0.2,1.1,0.4,1.6,0.6c0.5,0.2,0.9,0.3,1.4,0.5c0.4,0.1,0.8,0.2,1.1,0.4
					c0.2,0.1,0.4,0.1,0.6,0.2c0.9,0.3,1.9,0.6,2.9,0.9c0.5,0.1,0.9,0.2,1.3,0.4c0.4,0.1,0.8,0.2,1.2,0.3s0.8,0.2,1.1,0.3
					c0.4,0.1,0.7,0.2,1.1,0.2c0.8,0.2,1.5,0.3,2.2,0.5c1.1,0.2,2.2,0.4,3.4,0.6l1.2,0.2c3.8,0.6,7.7,0.9,11.5,1c1.6,0,3.2,0,4.7,0
					h0.1c0.7,0,1.5,0,2.2-0.1c0,0,0.1,0,0.1,0c1.1,0,2.1-0.1,3.1-0.2c0.1,0,0.1,0,0.2,0c0,0,0.1,0,0.1,0c0,0,0.1,0,0.2,0
					c0.7-0.1,1.3-0.1,2-0.2c0,0,0,0,0.1,0c0.4,0,0.7-0.1,1.1-0.1l1.2-0.1c0.8-0.1,1.5-0.2,2.2-0.3c0,0,0.1,0,0.1,0
					c0.3,0,0.7-0.1,1-0.1c0,0,0.1,0,0.1,0c0,0,0,0,0,0c0,0,0,0,0.1,0c31.2-6.1,54.5-28.4,63.8-61.1c1.2-4.1,0.9-8.6,0.6-13.5
					c-0.1-2.6-0.3-5.3-0.2-8c0.7-24.1-8.7-47.2-26.5-64.8c-17.9-17.7-42-27.8-68-28.6c-8.3-0.2-16.5,0.5-24.5,2.2
					c-21.8,4.6-40.3,19.4-49.4,39.6l-0.1,0.2c-0.1,0.3-0.2,0.5-0.3,0.8l-0.4,1c0,0.1-0.1,0.2-0.1,0.4c-0.2,0.5-0.4,1-0.6,1.5
					c-0.7,1.9-1.4,3.8-2,5.6c-0.1,0.3-0.2,0.5-0.2,0.8c-0.2,0.8-0.4,1.5-0.6,2.2c-0.1,0.2-0.1,0.5-0.2,0.7c-0.1,0.4-0.2,0.8-0.3,1.2
					c-0.1,0.5-0.2,0.9-0.4,1.4c-0.2,0.7-0.4,1.5-0.5,2.2c-0.2,0.8-0.3,1.5-0.5,2.2l0,0c0,0,0,0.1,0,0.1l-0.2,1
					c-0.1,0.6-0.2,1.2-0.3,1.8c0,0,0,0.1,0,0.1c0,0.2-0.1,0.4-0.1,0.7c-0.1,0.4-0.1,0.8-0.2,1.2c0,0,0,0.1,0,0.1
					c-0.5,3.6-0.8,7.4-0.9,11.1v0.1c0,0.4,0,0.8,0,1.1v0.3c0,0.3,0,0.6,0,0.8c0,0.4,0,0.7,0,1.1c0,4.7,0.4,9.4,1.1,14.1l0,0.1
					c0.1,0.4,0.1,0.8,0.2,1.1c0,0.2,0.1,0.5,0.1,0.7l0,0.1c0.1,0.3,0.1,0.6,0.2,0.9c0.1,0.5,0.2,0.9,0.2,1.3l0.2,1
					c0.1,0.4,0.2,0.8,0.2,1.2c0,0.1,0,0.1,0,0.1c0.1,0.7,0.3,1.4,0.5,2l0.1,0.2c0.1,0.2,0.1,0.4,0.1,0.6l0.2,0.6
					c0.1,0.3,0.1,0.5,0.2,0.8l0,0c0,0,0,0,0,0.1c0.1,0.4,0.2,0.9,0.4,1.4c0.1,0.5,0.3,0.9,0.4,1.4c0.1,0.5,0.3,0.9,0.4,1.4
					c0,0,0,0.1,0,0.1c0.1,0.3,0.2,0.6,0.3,0.8l0.1,0.4c0.1,0.4,0.3,0.9,0.5,1.3c0.5,1.3,1,2.6,1.6,4.1c0.1,0.2,0.2,0.5,0.3,0.8
					l0.2,0.5c0,0.1,0.1,0.2,0.1,0.3c0.3,0.8,0.7,1.6,1.1,2.4l0.4,0.9c0.1,0.2,0.2,0.4,0.3,0.6c0,0,0,0,0,0.1
					c0.6,1.1,1.2,2.3,1.8,3.5c0.4,0.8,0.8,1.5,1.3,2.3c0.8,1.3,1.6,2.6,2.4,3.9c0.2,0.4,0.5,0.8,0.8,1.1c0.6,0.8,1.1,1.6,1.6,2.4
					c0.3,0.4,0.5,0.8,0.8,1.1l0,0.1c0.1,0.2,0.3,0.4,0.4,0.6c0.1,0.2,0.3,0.4,0.4,0.6c1.4,1.9,2.9,3.8,4.5,5.6
					c1.9,2.2,3.9,4.3,5.9,6.2c0.6,0.6,1.3,1.3,2.1,2c0.7,0.6,1.4,1.3,2.1,1.9c0.3,0.3,0.6,0.5,0.9,0.7c0.5,0.4,0.9,0.8,1.4,1.1
					l1.1,0.9c0.7,0.6,1.5,1.2,2.3,1.7c1.2,0.9,2.4,1.7,3.5,2.5c0.4,0.2,0.7,0.5,1.1,0.7l0.3,0.2c0.4,0.2,0.6,0.4,1,0.6
					c1.3,0.8,2.5,1.6,3.9,2.4l1.1,0.6c0.4,0.2,0.8,0.4,1.2,0.6l0.1,0C289.2,296.2,290.3,296.7,291.4,297.2L291.4,297.2z
					 M337.8,306.6L337.8,306.6L337.8,306.6z M337.3,306.6L337.3,306.6L337.3,306.6z"/>
				<path class="st9" d="M233.7,207.2c0,0.4,0,0.9,0,1.3c0,0.1,0,0.2,0,0.3c0,0.3,0,0.5,0,0.8c0,0.4,0,0.7,0,1.1
					c0,4.9,0.4,9.7,1.1,14.5c0.1,0.4,0.1,0.9,0.2,1.3c0,0.3,0.1,0.5,0.1,0.8c0.1,0.3,0.1,0.7,0.2,1c0.1,0.4,0.2,0.9,0.2,1.3
					c0.1,0.3,0.1,0.6,0.2,0.9c0.1,0.5,0.2,0.9,0.3,1.4c0,0,0,0,0,0.1l0,0c0,0,0,0.1,0,0.1c0.1,0.3,0.1,0.6,0.2,0.9
					c0.1,0.4,0.2,0.8,0.3,1.1c0.1,0.2,0.1,0.5,0.2,0.8c0.1,0.5,0.3,1,0.4,1.5c0,0,0,0,0,0c0.1,0.5,0.3,1,0.4,1.4s0.3,1,0.4,1.4
					s0.3,1,0.4,1.4c0,0,0,0.1,0,0.1c0.1,0.4,0.3,0.9,0.4,1.3c0.2,0.5,0.3,0.9,0.5,1.4c0.5,1.4,1.1,2.8,1.6,4.2
					c0.2,0.4,0.4,0.9,0.6,1.3c0,0.1,0.1,0.2,0.1,0.2c0.4,0.8,0.7,1.6,1.1,2.5c0.1,0.2,0.2,0.5,0.4,0.8c0.1,0.3,0.3,0.6,0.4,0.9
					c0.6,1.2,1.2,2.4,1.9,3.6c0.4,0.8,0.9,1.6,1.3,2.4c0.8,1.4,1.6,2.7,2.4,4c0.3,0.4,0.5,0.8,0.8,1.2c0.5,0.8,1.1,1.6,1.7,2.4
					c0.3,0.4,0.6,0.8,0.9,1.2c0.3,0.4,0.6,0.8,0.9,1.2c1.5,2,3,3.9,4.6,5.7c1.9,2.2,4,4.4,6.1,6.4c0.7,0.7,1.4,1.4,2.1,2
					s1.5,1.3,2.2,2c0.3,0.3,0.6,0.5,0.9,0.8c0.5,0.4,0.9,0.8,1.4,1.2c0.4,0.3,0.7,0.6,1.1,0.9c0.8,0.6,1.6,1.2,2.4,1.8
					c1.2,0.9,2.4,1.7,3.6,2.5c0.4,0.2,0.8,0.5,1.1,0.8c0.1,0.1,0.2,0.1,0.4,0.2c0.2,0.1,36.8,18.1,74.5,6.3
					c31.3-9.8,48.4-38.7,52.5-55.6c1.6-6.6,1.3-14.4,1.5-21.4c1.4-46.6-39.4-85.9-89.3-87.4c-32-0.9-60.6,13.8-77.4,36.9
					c-0.2,0.5-0.4,1-0.6,1.5c-0.7,1.9-1.4,3.8-2,5.8c-0.1,0.3-0.2,0.6-0.3,0.8c-0.2,0.7-0.4,1.5-0.7,2.2c-0.1,0.2-0.1,0.5-0.2,0.7
					c-0.1,0.4-0.2,0.8-0.3,1.3c-0.1,0.5-0.2,0.9-0.4,1.4c-0.2,0.8-0.4,1.5-0.5,2.3c-0.2,0.8-0.3,1.5-0.5,2.3c0,0,0,0,0,0.1
					c-0.1,0.4-0.1,0.7-0.2,1.1c-0.1,0.6-0.2,1.3-0.3,1.9c0,0.2-0.1,0.5-0.1,0.8c-0.1,0.4-0.1,0.9-0.2,1.3
					C234.1,199.5,233.8,203.3,233.7,207.2L233.7,207.2z"/>
				<path class="st9" d="M240.6,246.5c0.1,0.4,0.3,0.8,0.5,1.1c0.2,0.4,0.4,0.9,0.6,1.3c0,0.1,0.1,0.2,0.1,0.2
					c0.4,0.8,0.7,1.7,1.1,2.5c0.1,0.2,0.2,0.5,0.4,0.8c0.1,0.3,0.3,0.6,0.4,0.9c0.6,1.2,1.2,2.4,1.9,3.6c0.4,0.8,0.9,1.6,1.3,2.4
					c0.8,1.4,1.6,2.7,2.4,4c0.3,0.4,0.5,0.8,0.8,1.2c0.5,0.8,1.1,1.6,1.6,2.4c0.3,0.4,0.6,0.8,0.9,1.2c0.3,0.4,0.6,0.8,0.9,1.2
					c1.5,2,3,3.9,4.6,5.7c1.9,2.2,4,4.4,6.1,6.4c0.7,0.7,1.4,1.4,2.1,2c0.7,0.7,1.5,1.3,2.2,2c0.3,0.2,0.6,0.5,0.9,0.8
					c0.5,0.4,0.9,0.8,1.4,1.2c0.4,0.3,0.7,0.6,1.1,0.9c0.8,0.6,1.5,1.2,2.3,1.8c1.2,0.9,2.4,1.7,3.6,2.5c0.4,0.3,0.8,0.5,1.1,0.8
					c0.1,0.1,0.2,0.1,0.4,0.2c0.2,0.1,36.8,18.1,74.5,6.3c31.3-9.8,48.4-38.7,52.5-55.6c1.1-4.6,1.3-9.8,1.4-14.8
					c-12.1,16.5-39.9,41-97.5,40.3C276.3,269.4,254.5,258.6,240.6,246.5L240.6,246.5z"/>
				<path class="st21" d="M240.6,246.5c0.1,0.4,0.3,0.8,0.5,1.1c0.2,0.4,0.4,0.9,0.6,1.3c0,0.1,0.1,0.2,0.1,0.2
					c0.4,0.8,0.7,1.7,1.1,2.5c0.1,0.2,0.2,0.5,0.4,0.8c0.1,0.3,0.3,0.6,0.4,0.9c0.6,1.2,1.2,2.4,1.9,3.6c0.4,0.8,0.9,1.6,1.3,2.4
					c0.8,1.4,1.6,2.7,2.4,4c0.3,0.4,0.5,0.8,0.8,1.2c0.5,0.8,1.1,1.6,1.6,2.4c0.3,0.4,0.6,0.8,0.9,1.2c0.3,0.4,0.6,0.8,0.9,1.2
					c1.5,2,3,3.9,4.6,5.7c1.9,2.2,4,4.4,6.1,6.4c0.7,0.7,1.4,1.4,2.1,2c0.7,0.7,1.5,1.3,2.2,2c0.3,0.2,0.6,0.5,0.9,0.8
					c0.5,0.4,0.9,0.8,1.4,1.2c0.4,0.3,0.7,0.6,1.1,0.9c0.8,0.6,1.5,1.2,2.3,1.8c1.2,0.9,2.4,1.7,3.6,2.5c0.4,0.3,0.8,0.5,1.1,0.8
					c0.1,0.1,0.2,0.1,0.4,0.2c0.2,0.1,36.8,18.1,74.5,6.3c31.3-9.8,48.4-38.7,52.5-55.6c1.1-4.6,1.3-9.8,1.4-14.8
					c-12.1,16.5-39.9,41-97.5,40.3C276.3,269.4,254.5,258.6,240.6,246.5L240.6,246.5z"/>
				<g class="st3">
					<path class="st11" d="M353.2,159.9c-1.7-2.1-67.5,1.8-86.3,30.3c-7.1,10.8-17.7,42.1-16.8,44.3c-4.2-10.8-3.9-24-2.5-34.7
						c2-15.8,11.5-29.7,25.6-37.1C292.8,152.2,320.8,148.6,353.2,159.9z"/>
				</g>
				<g class="st3">
					
						<ellipse transform="matrix(4.117813e-02 -0.9992 0.9992 4.117813e-02 139.4424 584.3604)" class="st11" cx="374.2" cy="219.5" rx="15.6" ry="13.6"/>
				</g>
				<g class="st3">
					
						<ellipse transform="matrix(0.9986 -5.198736e-02 5.198736e-02 0.9986 -12.415 19.8229)" class="st11" cx="374.8" cy="248.6" rx="5.6" ry="6.5"/>
				</g>
				<g>
					<g>
						<path class="st11" d="M437,199.4l-5.7,38.8l-3.6,24.1l-13.6,0.2l-1.3,0c-5.9-1-8.4-17.1-5.6-36c0.1-0.4,0.1-0.9,0.2-1.3
							c2.9-18.2,9.8-32.1,15.5-31.1l1.2,0.4L437,199.4L437,199.4z"/>
						<g class="st18">
							<path class="st9" d="M431.3,238.2l-3.6,24.1l-13.6,0.2l-1.3,0c-5.9-1-8.4-17.1-5.6-36c0.1-0.4,0.1-0.9,0.2-1.3l1-2.2
								c0,0,1.2,8.2,4.9,9.6c4,1.5,7.3-8.2,7.3-8.2L431.3,238.2L431.3,238.2z"/>
						</g>
					</g>
					<path class="st9" d="M412.9,264.9c-0.1,0-0.3,0-0.4,0c-8.5-1.4-10.2-20.5-7.5-38.6c2.3-15.8,7.5-28.7,13.2-32.9
						c2.1-1.5,4-1.6,5.1-1.4c0.1,0,0.3,0.1,0.4,0.1l14.1,5.2c1,0.4,1.6,1.4,1.5,2.5l-9.3,62.9c-0.2,1.1-1.1,1.9-2.2,2L412.9,264.9
						C412.9,264.9,412.9,264.9,412.9,264.9L412.9,264.9z M422.4,196.4c-0.4,0-0.9,0.2-1.5,0.6c-3.9,2.8-9,14-11.4,29.8
						c-1.3,8.9-1.5,17.4-0.4,24c0.9,5.9,2.7,8.9,4,9.4l12.7-0.2l8.7-59.2L422.4,196.4C422.4,196.4,422.4,196.4,422.4,196.4
						L422.4,196.4z"/>
					<path class="st11" d="M442.8,228C442.8,228,442.8,228,442.8,228c-0.1,1.5-0.3,3-0.6,4.5c-2.6,17.4-9,30.7-14.5,29.8
						c-5.3-0.9-7.6-14.9-5.4-31.7c0.1-0.5,0.1-1,0.2-1.4c2.6-17.4,9-30.7,14.5-29.8C442,200.2,444.3,212.6,442.8,228L442.8,228z"/>
					<g class="st18">
						<path class="st9" d="M442.8,228c-0.1,1.5-0.3,3-0.6,4.5c-2.6,17.4-9,30.7-14.5,29.8c-5.3-0.9-7.6-14.9-5.4-31.7
							c1.8,6.4,5.7,17.6,10.7,14.9C435.9,244,439.9,235.3,442.8,228L442.8,228z"/>
					</g>
					<path class="st9" d="M428.3,264.6c-0.3,0-0.6,0-0.9-0.1c-7.9-1.3-9.5-19-7.1-35.7c2.2-14.6,7-26.5,12.2-30.4
						c2-1.4,3.8-1.5,4.9-1.3c7.9,1.3,9.5,19,7.1,35.7l0,0c-2.2,14.6-7,26.5-12.2,30.4C430.7,264.3,429.3,264.6,428.3,264.6
						L428.3,264.6z M436.5,201.6c-0.4,0-0.9,0.3-1.3,0.5c-3.5,2.6-8.2,12.8-10.4,27.3c-2.8,18.9,0.7,30.1,3.3,30.5
						c0.5,0.1,1-0.2,1.4-0.5c3.5-2.6,8.2-12.8,10.4-27.3l0,0c2.8-18.9-0.7-30.1-3.3-30.5C436.6,201.6,436.5,201.6,436.5,201.6z"/>
				</g>
			</g>
		</g>
	</g>
</g>
</svg>
