<?xml version="1.0" encoding="UTF-8"?>
<svg id="Layer_1" data-name="Layer 1" xmlns="http://www.w3.org/2000/svg" xmlns:xlink="http://www.w3.org/1999/xlink" viewBox="0 0 653.91 570.86">
  <defs>
    <style>
      .cls-1 {
        fill: #88b9fe;
      }

      .cls-2 {
        fill: url(#linear-gradient-2);
      }

      .cls-3 {
        fill: #c3bac7;
      }

      .cls-4 {
        fill: #5f457a;
      }

      .cls-5, .cls-6 {
        fill: #fff;
      }

      .cls-7 {
        fill: #381b49;
      }

      .cls-6, .cls-8, .cls-9, .cls-10, .cls-11 {
        fill-rule: evenodd;
      }

      .cls-8 {
        fill: #70578f;
      }

      .cls-9, .cls-12 {
        fill: #371a45;
      }

      .cls-13 {
        fill: #bd274f;
      }

      .cls-14 {
        fill: #fc8cce;
      }

      .cls-15 {
        fill: #877398;
      }

      .cls-16 {
        fill: #5f4579;
      }

      .cls-17 {
        fill: #371a46;
      }

      .cls-18 {
        fill: #9b8da2;
      }

      .cls-19 {
        fill: #fa32a7;
      }

      .cls-10 {
        fill: #f72d53;
      }

      .cls-20 {
        fill: #624b6e;
      }

      .cls-21 {
        fill: #4c74c6;
      }

      .cls-22 {
        fill: #f96c87;
      }

      .cls-23 {
        fill: #7089c6;
      }

      .cls-24 {
        fill: url(#linear-gradient-5);
      }

      .cls-25 {
        clip-path: url(#clippath);
      }

      .cls-26 {
        fill: none;
      }

      .cls-27 {
        fill: #a4277c;
      }

      .cls-28 {
        fill: #9f8faf;
      }

      .cls-29 {
        fill: #a99abc;
      }

      .cls-30 {
        fill: #381b48;
      }

      .cls-31 {
        fill: #746080;
      }

      .cls-11 {
        fill: #559bfe;
      }

      .cls-32 {
        fill: url(#linear-gradient-3);
      }

      .cls-33 {
        fill: #fc75c5;
      }

      .cls-34 {
        fill: url(#linear-gradient);
      }

      .cls-35 {
        fill: #381b47;
      }

      .cls-36 {
        fill: url(#linear-gradient-4);
      }

      .cls-37 {
        fill: #c3bac8;
      }
    </style>
    <linearGradient id="linear-gradient" x1="390.89" y1="634.57" x2="390.89" y2="114.83" gradientUnits="userSpaceOnUse">
      <stop offset="0" stop-color="#582fc0"/>
      <stop offset=".16" stop-color="#8461f7"/>
      <stop offset=".56" stop-color="#0088ce"/>
      <stop offset=".62" stop-color="#0996d3"/>
      <stop offset=".78" stop-color="#20bde1"/>
      <stop offset=".92" stop-color="#2fd5e9"/>
      <stop offset="1" stop-color="#35deed"/>
    </linearGradient>
    <linearGradient id="linear-gradient-2" x1="392.56" y1="393.9" x2="392.56" y2="171.14" gradientUnits="userSpaceOnUse">
      <stop offset="0" stop-color="#0088ce"/>
      <stop offset=".51" stop-color="#35e1ed"/>
      <stop offset="1" stop-color="#8461f7"/>
    </linearGradient>
    <linearGradient id="linear-gradient-3" x1="392.58" y1="357.08" x2="392.58" y2="171.14" gradientUnits="userSpaceOnUse">
      <stop offset="0" stop-color="#35ffed"/>
      <stop offset=".46" stop-color="#8461f7"/>
      <stop offset="1" stop-color="#0088ce"/>
    </linearGradient>
    <clipPath id="clippath">
      <path class="cls-26" d="m201.21,538.5c9.65-1.02,18.53-3.69,23.64-7.81,3.09-2.49,4.31-5.13,3.75-8.07-2.78-5.89-7.49-11.85-14.14-17.91,16.01,17.77,11.59,29.03-13.25,33.79"/>
    </clipPath>
    <linearGradient id="linear-gradient-4" x1="0" y1="285.43" x2="96.09" y2="285.43" xlink:href="#linear-gradient"/>
    <linearGradient id="linear-gradient-5" x1="557.82" y1="285.43" x2="653.91" y2="285.43" xlink:href="#linear-gradient"/>
  </defs>
  <g>
    <path class="cls-34" d="m545.98,370.92c-4.29-12.92-10.28-23.87-17.82-32.83-.39-.44-.77-.88-1.16-1.32-21.72,11.99-45.76,21.17-71.55,26.95,1.32,1.76,2.53,3.63,3.63,5.66,4.46,8.2,6.71,18.2,6.71,30.08,0,14.35-2.14,25.79-6.43,34.43-4.29,8.58-10.34,14.9-18.09,19.03-7.81,4.07-16.99,6.1-27.66,6.1h-93.33v-96.73c-33.93-8.41-64.84-22.82-90.91-41.74v220.2h186.71c29.48,0,54.34-4.01,74.63-11.99,20.24-7.97,35.58-21.17,46.03-39.59,10.45-18.42,15.67-43.01,15.67-73.69,0-16.83-2.14-31.68-6.43-44.54Zm-39.32-253.64c-20.68-20.68-53.56-31.02-98.55-31.02h-86.62c-50.87,0-92.12,41.25-92.12,92.12v106.86c44.71,32.12,103.23,49.11,166.14,49.11,38.39,0,74.24-6.32,106.03-18.59-8.8-4.89-17.82-8.52-27.11-10.89,13.09-3.24,24.36-9.29,33.77-18.09,9.4-8.8,16.66-20.07,21.78-33.77,5.11-13.75,7.7-29.59,7.7-47.62,0-38.06-10.34-67.43-31.02-88.1Zm-66.93,141.83c-7.59,9.68-17.93,14.46-31.02,14.46h-88.43v-105.64h87.17c12.32,0,22.77,3.9,31.35,11.66,8.58,7.81,12.7,21.72,12.26,41.79,0,15.56-3.8,28.16-11.33,37.73Z"/>
    <g>
      <path class="cls-2" d="m395.98,393.9c-147.94.18-193.1-191.67-193.1-200.42,0-.49,0-.98.04-1.48,0-7.06.43-14.03,1.21-20.87,10.72,100.14,96.06,156.27,195.43,156.27,45.29,0,83.47-25.43,151.79-64.74,12.96-7.45,23.53-14.05,30.89-18.76-24.89,89-102.99,149.89-186.26,150Z"/>
      <path class="cls-32" d="m395.99,357.08c-119.42-.65-192.53-155.49-193.06-165.07-.04-.76-.04-1.47-.04-2.23,0-6.3.43-12.51,1.25-18.63,4.64,16.09,13.67,40.18,32.14,64.45,56.53,74.31,147.85,79.87,162.13,80.51,57.73,2.59,105.45-26.64,152.95-53.43,22.11-12.47,30.31-19.54,30.89-18.76,2.04,2.76-84.81,113.72-186.25,113.17Z"/>
    </g>
    <g>
      <path class="cls-6" d="m220.17,31.23c-70.49,0-127.63,55.78-127.63,124.59s57.14,124.6,127.63,124.6,127.63-55.78,127.63-124.6-57.14-124.59-127.63-124.59"/>
      <path class="cls-12" d="m220.17,34.56c68.54,0,124.3,54.4,124.3,121.26s-55.76,121.26-124.3,121.26-124.3-54.4-124.3-121.26,55.76-121.26,124.3-121.26m0,249.19c72.21,0,130.97-57.39,130.97-127.93S292.38,27.9,220.17,27.9s-130.97,57.39-130.97,127.93,58.75,127.93,130.97,127.93"/>
      <path class="cls-9" d="m332.41,215.19c9.82-17.65,15.39-37.87,15.39-59.36s-5.58-41.71-15.39-59.36c-20.49-30.86-56.49-51.34-97.48-51.34-63.78,0-115.48,49.56-115.48,110.7s51.7,110.7,115.48,110.7c40.99,0,76.99-20.48,97.48-51.34"/>
      <path class="cls-6" d="m106.76,144.54c-17.56,0-31.79,17.69-31.79,39.51s14.23,39.5,31.79,39.5,31.79-17.69,31.79-39.5-14.23-39.51-31.79-39.51"/>
      <path class="cls-12" d="m106.76,147.87c15.69,0,28.46,16.23,28.46,36.17s-12.76,36.17-28.46,36.17-28.46-16.23-28.46-36.17,12.77-36.17,28.46-36.17m0,79.01c19.37,0,35.12-19.22,35.12-42.84s-15.76-42.84-35.12-42.84-35.13,19.22-35.13,42.84,15.76,42.84,35.13,42.84"/>
      <path class="cls-12" d="m97.87,156.82c10.78,0,19.55,12.85,19.55,28.64s-8.77,28.64-19.55,28.64-19.55-12.85-19.55-28.64,8.77-28.64,19.55-28.64m0,63.95c14.45,0,26.21-15.84,26.21-35.31s-11.76-35.31-26.21-35.31-26.21,15.84-26.21,35.31,11.76,35.31,26.21,35.31"/>
      <path class="cls-12" d="m106.77,147.87c1.66,0,3.1-1.24,3.3-2.93,4.23-34.46,23-65.61,51.49-85.47,28.49-19.85,64.21-26.67,98.01-18.71,1.79.42,3.59-.69,4.01-2.48.42-1.79-.69-3.59-2.48-4.01-35.64-8.39-73.31-1.21-103.35,19.73-30.04,20.93-49.83,53.78-54.29,90.12-.23,1.83,1.07,3.49,2.9,3.72.14.02.28.03.41.03h0Z"/>
      <path class="cls-7" d="m232.65,277.05c17.77,0,35.75-3.39,53.01-10.45,1.7-.7,2.52-2.64,1.82-4.35-.7-1.7-2.64-2.52-4.35-1.82-56.56,23.14-121.4,4.95-157.67-44.23-1.09-1.48-3.18-1.8-4.66-.7-1.48,1.09-1.8,3.18-.7,4.66,27.02,36.64,69.15,56.9,112.56,56.9"/>
      <path class="cls-8" d="m160.1,265.78c35.85-1.67,60.57,8.93,74.17,31.79,11.9-42.16,88.31-44.04,53.4-4.34,44.22,37,43.49,77.08,18.67,89-2.89,7.25-6.94,12.32-12.16,15.2,6.78,18.07-12.46,28.91-57.52,34.3-46.22,5.53-70.89,1.92-74.23-12.59-5.38-3.05-8.93-6.59-10.64-10.64-25.14-9.66-29.7-41.94-13.67-96.81-12.74-4.77-21.33-16.77-21.75-30.37-.42-13.6,7.42-26.1,19.85-31.65,9.27,7.51,17.24,12.89,23.9,16.12"/>
      <path class="cls-7" d="m280.3,268c6.19,0,10.91,1.75,12.46,4.76,1.99,3.86-.78,10.53-7.6,18.27-.59.67-.89,1.56-.82,2.46.07.9.5,1.73,1.18,2.3,23.79,19.9,36.57,43.11,34.2,62.09-1.22,9.76-6.49,17.34-14.83,21.35-.75.36-1.34.99-1.65,1.77-2.58,6.48-6.17,11.03-10.67,13.51-1.45.8-2.09,2.54-1.51,4.09,1.62,4.33,1.47,7.99-.49,11.2-5.28,8.67-23.55,14.94-54.31,18.62-44.09,5.27-67.84,1.9-70.59-10.03-.21-.91-.79-1.69-1.61-2.15-4.7-2.66-7.8-5.7-9.21-9.03-.35-.83-1.03-1.49-1.87-1.81-23.12-8.89-27.05-40.1-11.67-92.76.49-1.68-.4-3.44-2.03-4.06-11.52-4.32-19.21-15.05-19.59-27.36-.36-11.62,5.89-22.26,16.07-27.63,8.74,6.95,16.43,12.06,22.88,15.2.5.24,1.06.36,1.61.33,34.35-1.6,58.29,8.55,71.16,30.16.68,1.14,1.98,1.78,3.3,1.6,1.32-.17,2.41-1.12,2.77-2.4,5.03-17.82,23.53-28.72,39.22-30.3,1.24-.12,2.45-.18,3.6-.18m-78.96,169.53c9.99,0,21.85-.84,35.71-2.5,33.83-4.04,52.64-10.96,59.22-21.77,2.61-4.3,3.24-9.13,1.87-14.39,4.49-3.18,8.12-7.95,10.81-14.22,9.78-5.15,15.95-14.31,17.4-25.94,2.57-20.52-10.1-44.96-34-65.86,9.1-11.41,8.56-18.83,6.35-23.13-3.19-6.21-11.66-9.26-22.66-8.16-15.58,1.56-34.47,11.16-42.61,28.73-14.69-19.88-39.07-29.24-72.62-27.86-6.26-3.15-13.83-8.31-22.51-15.35-.97-.79-2.31-.97-3.46-.45-13.71,6.13-22.28,19.79-21.82,34.8.43,13.98,8.6,26.3,21.06,32.19-7.48,26.45-10.13,47.94-7.88,63.91,2.37,16.81,10.15,28.1,23.11,33.59,1.99,3.86,5.43,7.29,10.24,10.22,3.47,10.93,16.75,16.21,41.78,16.21"/>
      <path class="cls-29" d="m237.08,299.68c10.29-20.27,26.12-30.41,47.5-30.41,1.19,0,2.39.03,3.62.09h0c-.59-.25-1.19-.48-1.8-.7-1.79-.44-3.85-.67-6.11-.67-1.15,0-2.36.06-3.6.18-15.68,1.57-34.19,12.48-39.22,30.3-.08.29-.2.56-.35.81-.02.13-.03.26-.04.39m-6.95-2.46c-12.21-18.78-33.37-28.28-63.01-28.28-1.62,0-3.28.03-4.95.09-4.83.62-9.85,1.9-15.05,3.84-.03.12-.05.24-.07.37-.62.1-1.23.26-1.8.48,7.86-1.55,15.42-2.32,22.67-2.32,24.17,0,44.91,8.61,62.21,25.83"/>
      <path class="cls-4" d="m263.18,387.2c-.57-1.19-.89-2.53-.89-3.94,0-3.81,2.36-7.19,5.84-8.54,1.14-5.32,1.61-11.02,1.4-17.05-.62.31-1.23.64-1.84.98-.08,5.26-.65,10.46-1.81,15.49-3.22.84-5.59,3.44-5.59,7.25,0,2.21,1.13,4.39,2.9,5.82m3.95-39.93c.43-.22.87-.44,1.31-.65-.17-1.09-.36-2.18-.57-3.29-1.91-10.06-5.48-21.04-10.65-32.75,4.78,11.39,8.53,24.04,9.9,36.69"/>
      <path class="cls-4" d="m228.34,395.45c.63,0,1.24-.08,1.83-.22-3.96-1.01-6.91-4.6-6.91-8.88,0-1.79.52-3.49,1.45-4.94-2.3,1.28-3.86,3.73-3.86,6.55,0,4.14,3.35,7.49,7.49,7.49m-2.99-14.91c.68-.83,1.51-1.54,2.45-2.1.58-5.79.63-12.22.16-19.21-.05-.03-.1-.05-.15-.08-.63-.1-1.27-.21-1.91-.33-.17-.02-.33-.04-.5-.06.65,7.98.63,15.24-.05,21.77m1.99-28.23c-.23-2.06-.5-4.16-.81-6.31-2.05-14.14-5.95-30.44-11.6-48.45-.4-1.27-.27-2.62.35-3.81.12-.23.26-.45.41-.65-1.17.8-1.73,2.3-1.29,3.73,5.7,18.18,7.63,36.27,9.7,50.55.23,1.59.44,3.14.62,4.68.72,0,1.46.07,2.22.18.03,0,.06,0,.09.01.11.02.21.04.31.06"/>
      <path class="cls-29" d="m299.78,338.91c2.26-2.05,4.54-3.78,6.82-5.19-8.71-4.93-12.51-27-28.19-39.6.05.1.1.2.15.29.15.13.28.27.41.42,9.54,11.88,16.53,26.69,20.81,44.07"/>
      <path class="cls-29" d="m229.37,420.21c17.86-.31,35.57-4.12,52.41-10.6,1.54-.59,2.77-.88,3.69-.88,2.56,0,2.7,2.2.24,6.09,2.16-1.57,3.78-3.24,4.86-5.02,1.07-1.76,1.6-3.65,1.59-5.71,0-.61-.05-1.24-.15-1.89-.39.19-.78.37-1.17.55-10.92,6.36-26.36,11.32-46.43,14.91-4.9.98-9.91,1.83-15.05,2.55"/>
      <path class="cls-29" d="m294.48,392.16c4.19-3.54,7.03-7.44,8.51-11.69-.21-11.43-2.65-22.09-7.27-31.73-1.45-.08-2.86-.12-4.24-.12-4.57,0-8.73.45-12.52,1.34.15,1.33.27,2.66.36,3.97,2.19-.58,4.42-1.01,6.68-1.29.54-.05,1.06-.08,1.56-.08,3.98,0,6.65,1.73,8.03,5.19,5.45,15.52,5.08,26.99-1.11,34.4"/>
      <path class="cls-29" d="m247.3,364.08c6.77,0,13.56-1.68,19.72-5.05.22-.13.45-.26.67-.38.02-1.33,0-2.66-.03-3.99-.11.07-.21.14-.32.21-5.96,3.88-13.48,5.8-23.08,5.8-1.98,0-4.05-.08-6.21-.25.05.89.09,1.77.13,2.64,3,.68,6.06,1.03,9.13,1.03"/>
      <path class="cls-28" d="m267.69,358.64c.61-.34,1.22-.66,1.84-.98-.05-1.31-.12-2.64-.23-3.99-.56.31-1.1.64-1.64.98.04,1.33.05,2.66.03,3.99"/>
      <path class="cls-28" d="m227.96,359.24s0-.04,0-.06c-.05,0-.1-.02-.15-.02.05.03.1.05.15.08"/>
      <path class="cls-29" d="m165.76,361.83c2.51-.49,5.49-.79,8.79-.88,5.81-19.33,5.91-39.67.27-59.09,2.18,32.57-.84,52.56-9.06,59.96m8.8-63.65s.02-.03.02-.05c-.01-.04-.02-.07-.03-.1,0,.05,0,.1.01.15"/>
      <path class="cls-29" d="m201.34,374.34c.61-.91,1.26-1.78,1.93-2.59-8.96-2.85-17.99-4.01-25.33-4.14-.32.1-.65.15-.99.15s-.68-.05-1.01-.16c-3.69.04-6.86.35-9.26.84h.05c11.58,0,23.12,1.96,34.61,5.9"/>
      <path class="cls-12" d="m143.1,274.21c.42,0,.86-.08,1.27-.25,11.6-4.79,22.38-6.38,32.04-4.71,1.81.32,3.54-.9,3.85-2.72.31-1.81-.9-3.54-2.72-3.85-10.93-1.88-22.95-.16-35.73,5.12-1.7.7-2.51,2.65-1.81,4.36.53,1.28,1.77,2.06,3.08,2.06"/>
      <path class="cls-12" d="m247.51,299.61c.73,0,1.46-.24,2.07-.72,13.43-10.64,25.81-11.13,37.86-1.48,1.44,1.15,3.53.92,4.69-.52,1.15-1.44.92-3.54-.52-4.69-14.63-11.72-30.16-11.22-46.17,1.46-1.44,1.14-1.69,3.24-.54,4.68.66.83,1.63,1.26,2.61,1.26"/>
      <path class="cls-12" d="m138.11,315.02c1.33,0,2.58-.8,3.1-2.11,4.68-11.82,11.36-19.3,19.86-22.24,11.02-3.81,25.8-.37,43.95,10.21,1.59.93,3.63.39,4.56-1.2.93-1.59.39-3.63-1.2-4.56-19.91-11.61-36.56-15.23-49.49-10.76-10.41,3.6-18.44,12.38-23.88,26.08-.68,1.71.16,3.65,1.87,4.33.4.16.82.24,1.23.24"/>
      <path class="cls-12" d="m176.95,367.77c1.4,0,2.71-.89,3.17-2.3,7.13-21.81,7.37-44.95.67-66.91-.54-1.76-2.4-2.75-4.16-2.22-1.76.54-2.76,2.4-2.22,4.16,6.29,20.64,6.07,42.39-.63,62.89-.57,1.75.38,3.63,2.13,4.2.34.11.69.17,1.04.17"/>
      <path class="cls-12" d="m208.92,373.54c1.34,0,2.6-.81,3.11-2.14.66-1.72-.19-3.65-1.91-4.31-17.07-6.58-36.65-7.39-46.39-4.8-1.78.47-2.84,2.3-2.37,4.08.47,1.78,2.3,2.84,4.08,2.37,7.48-1.99,25.55-1.88,42.28,4.57.39.15.8.22,1.2.22"/>
      <path class="cls-12" d="m306.34,385.56c1.84,0,3.33-1.49,3.33-3.33.02-13.67-2.89-26.38-8.64-37.79-4.1-19.79-11.52-36.48-22.06-49.6-1.15-1.44-3.25-1.66-4.69-.51-1.44,1.15-1.66,3.25-.51,4.69,9.95,12.39,16.95,28.27,20.82,47.2.06.3.16.58.3.85,5.4,10.56,8.13,22.39,8.11,35.15,0,1.84,1.49,3.34,3.33,3.34h0"/>
      <path class="cls-12" d="m297.85,348.89c.91,0,1.81-.37,2.47-1.09,3.44-3.77,6.9-6.7,10.3-8.7,1.59-.94,2.12-2.98,1.18-4.56-.94-1.59-2.98-2.12-4.56-1.18-3.97,2.34-7.96,5.69-11.84,9.96-1.24,1.36-1.14,3.47.22,4.71.64.58,1.44.87,2.24.87"/>
      <path class="cls-12" d="m303.01,380.41c-6.56,19.03-40.31,31.01-100.34,35.61-3.24-2.02-5.5-5.58-6.5-10.21,3.32-3.3,7.31-8.77,9.81-17.43,8.06-27.88,15.23-30.23,19.92-29.54,18.94,3.37,32.11,2.11,41.43-3.97,7.31-4.77,16.64-6.77,28.46-6.1,5.12,9.85,7.54,20.48,7.22,31.65m-101.1,42.34c.08,0,.17,0,.25,0,64.99-4.86,100.1-18.18,107.34-40.72.09-.29.15-.59.16-.9.47-13.17-2.52-25.68-8.89-37.18-.54-.98-1.54-1.62-2.66-1.71-14.01-1.09-25.59,1.28-34.42,7.04-7.71,5.03-19.71,6-36.67,2.98-.03,0-.06,0-.09-.01-14.74-2.22-22.1,16.08-27.36,34.28-2.54,8.8-6.85,13.52-9.19,15.56-.85.74-1.27,1.87-1.11,2.99,1.14,8.02,5.08,14.16,11.09,17.31.48.25,1.01.38,1.55.38"/>
      <path class="cls-12" d="m185.07,423.12c43.66,0,80.79-7.62,110.61-22.72,1.64-.83,2.3-2.84,1.47-4.48-.83-1.64-2.84-2.3-4.48-1.47-33.84,17.14-77.59,24.32-130.06,21.35-1.85-.13-3.41,1.3-3.52,3.14-.1,1.84,1.3,3.41,3.14,3.52,7.8.44,15.41.66,22.84.66"/>
      <path class="cls-12" d="m168.11,412.51c8.16,0,17.03-1.4,25.69-4.82,1.71-.68,2.55-2.61,1.88-4.33-.68-1.71-2.61-2.55-4.33-1.88-17.95,7.08-36.64,4.66-46.42-.59-1.62-.87-3.64-.26-4.51,1.36-.87,1.62-.26,3.64,1.36,4.51,6.27,3.37,15.71,5.73,26.33,5.73"/>
      <path class="cls-5" d="m222.88,295.08c-.55-1.75-2.41-2.73-4.17-2.19-1.75.55-2.73,2.41-2.19,4.17,5.7,18.18,9.59,34.42,11.66,48.71,1.86,12.84,2.26,24.09,1.19,33.75-2.61,1.17-4.43,3.79-4.43,6.84,0,4.14,3.35,7.49,7.49,7.49s7.49-3.35,7.49-7.49c0-2.83-1.57-5.28-3.88-6.56,1.07-10.11.65-21.76-1.27-34.96-2.12-14.65-6.09-31.24-11.89-49.75"/>
      <path class="cls-12" d="m219.7,294.41c.71,0,1.37.46,1.59,1.17h0c5.75,18.35,9.73,35,11.83,49.5,1.89,13.01,2.31,24.63,1.26,34.55-.07.67.27,1.31.85,1.64,1.86,1.03,3.02,2.98,3.02,5.1,0,3.21-2.61,5.82-5.82,5.82s-5.82-2.61-5.82-5.82c0-2.29,1.35-4.38,3.45-5.32.54-.24.91-.75.98-1.34,1.08-9.75.68-21.25-1.19-34.17-2.08-14.32-6.02-30.79-11.72-48.97-.13-.42-.09-.87.12-1.26.21-.39.55-.68.98-.81.16-.05.33-.08.49-.08m12.72,101.1c5.05,0,9.16-4.11,9.16-9.16,0-2.95-1.43-5.7-3.78-7.41.95-9.96.48-21.51-1.38-34.35-2.13-14.67-6.15-31.5-11.95-50.01-.82-2.63-3.62-4.1-6.26-3.28-1.27.4-2.32,1.26-2.94,2.45-.62,1.18-.74,2.53-.35,3.81,5.65,18.01,9.55,34.31,11.6,48.45,1.78,12.25,2.21,23.16,1.27,32.44-2.78,1.63-4.54,4.63-4.54,7.9,0,5.05,4.11,9.16,9.16,9.16"/>
      <path class="cls-5" d="m261.12,299.17c-.81-1.65-2.8-2.34-4.46-1.54-1.65.81-2.34,2.8-1.54,4.46,7.23,14.83,12.02,28.48,14.39,40.93,2.3,12.12,2.31,23.12.03,32.98-3.22.84-5.59,3.77-5.59,7.25,0,4.13,3.35,7.49,7.49,7.49s7.49-3.35,7.49-7.49c0-2.4-1.13-4.53-2.88-5.9,2.46-10.75,2.46-22.6,0-35.55-2.48-13.08-7.46-27.29-14.93-42.63"/>
      <path class="cls-12" d="m259.62,299.9c7.37,15.14,12.35,29.34,14.79,42.21,2.4,12.67,2.41,24.4.02,34.87-.15.63.09,1.29.6,1.68,1.42,1.11,2.24,2.79,2.24,4.59,0,3.21-2.61,5.82-5.82,5.82s-5.82-2.61-5.82-5.82c0-2.65,1.79-4.97,4.35-5.64.6-.16,1.06-.63,1.2-1.24,2.32-10.05,2.31-21.37-.02-33.67-2.38-12.54-7.27-26.45-14.53-41.35-.4-.83-.06-1.82.77-2.23.83-.4,1.82-.06,2.23.77h0m11.82,92.51c5.05,0,9.15-4.11,9.15-9.15,0-2.47-.97-4.79-2.7-6.5,2.28-10.68,2.21-22.53-.21-35.27-2.5-13.16-7.57-27.65-15.07-43.05h0c-1.21-2.48-4.21-3.51-6.68-2.3-2.48,1.2-3.51,4.2-2.31,6.68,7.13,14.64,11.93,28.27,14.25,40.52,2.18,11.46,2.26,22.02.25,31.38-3.49,1.35-5.84,4.73-5.84,8.54,0,5.05,4.11,9.15,9.16,9.15"/>
      <path class="cls-6" d="m281.39,421.16c-5.66,33.56-2.57,78.04-6.35,97.4-19.3,4.77-36.81,10.56-44.29.98-9.76.63-20.1-1.66-30.29-3.96-10.99-2.48-21.82-4.95-31.57-3.75-2.2-32.11-2.56-65.93-1.51-84.95,9.75,7.87,32.8,9.19,69.26,4.84,20.01-2.39,34.93-5.86,44.74-10.56"/>
      <path class="cls-12" d="m272.14,515.85c-1.29.33-2.57.65-3.84.98-15.86,4.04-29.55,7.54-34.91.67-.68-.87-1.74-1.35-2.84-1.27-9.4.61-19.72-1.72-29.7-3.96-9.65-2.17-19.59-4.41-28.84-4.02-1.92-29.82-2.17-58.06-1.53-75.59,12,5.6,33.48,6.34,66.58,2.39,17.16-2.05,30.39-4.84,40.15-8.49-2.34,17.21-2.76,36.44-3.14,53.61-.32,14.49-.59,27.16-1.93,35.69m-28.46,12.22c7.51,0,16.54-2.3,26.27-4.78,1.94-.5,3.91-1,5.9-1.49,1.26-.31,2.22-1.32,2.47-2.6,1.76-9.03,2.07-22.87,2.41-38.9.41-18.95.88-40.44,3.94-58.59.21-1.23-.29-2.47-1.28-3.22-1-.75-2.32-.88-3.45-.34-9.29,4.45-23.99,7.9-43.69,10.26-35.64,4.26-58.11,2.87-66.77-4.12-.97-.79-2.31-.96-3.45-.45-1.14.51-1.91,1.61-1.98,2.86-.96,17.44-.87,50.6,1.51,85.36.06.91.5,1.76,1.2,2.34.71.58,1.62.85,2.53.74,9.07-1.11,19.27,1.18,30.07,3.62,9.89,2.23,20.09,4.52,29.94,4.2,3.64,3.74,8.55,5.12,14.36,5.12"/>
      <path class="cls-12" d="m225.57,501.63c1.66,0,3.1-1.25,3.31-2.94,1.32-11.07,2.18-26.08,2.56-44.64,7.62-.77,15.25-4.91,22.74-12.35,1.3-1.3,1.31-3.41.01-4.71-1.3-1.31-3.41-1.31-4.71-.01-7.24,7.2-14.37,10.74-21.21,10.54-.89-.02-1.76.31-2.4.92-.64.61-1.02,1.46-1.03,2.36-.34,19.79-1.21,35.65-2.57,47.12-.22,1.83,1.09,3.49,2.92,3.7.13.02.27.03.4.03"/>
      <path class="cls-7" d="m171.96,452.49c10.24,0,18.57-5.66,24.82-16.87.9-1.61.32-3.64-1.29-4.53-1.61-.9-3.64-.32-4.53,1.29-5.9,10.59-13.57,14.85-23.46,13.01-1.81-.34-3.55.86-3.89,2.67-.34,1.81.86,3.55,2.67,3.89,1.95.36,3.85.54,5.68.54"/>
      <path class="cls-10" d="m186.79,476.9c26.58-2.62,35.4,4.91,26.41,22.29,20.43,17.1,26.46,34.05,18.09,50.86-9.49,15.93-67.29,12.37-75.32,1.52-10.09-17.49,1.86-46.65,22.18-49.04-8.42-15.58-5.55-24.22,8.63-25.62"/>
      <path class="cls-7" d="m228.37,548.44c-3.03,4.89-13.38,8.23-27.76,8.95-19.77.98-38.26-3.22-41.85-7.68-4.39-7.79-4.08-19.05.79-28.77,4.36-8.69,11.29-14.2,19-15.11,1.1-.13,2.06-.8,2.57-1.77.51-.98.5-2.15-.03-3.12-4.04-7.47-5.27-13.13-3.56-16.34,1.28-2.4,4.5-3.87,9.59-4.38,18.26-1.8,23.61,1.78,25.16,4.08,2.28,3.36.15,9.12-2.04,13.36-.72,1.39-.38,3.08.82,4.09,19.21,16.08,24.87,31.36,17.31,46.69m-33.36,15.76c2,0,3.99-.05,5.93-.15,9.96-.5,27.53-2.75,33.21-12.3.04-.07.08-.15.12-.22,8.82-17.72,3.12-35.61-16.96-53.2,3.31-7.39,3.47-13.36.48-17.77-4.31-6.35-14.56-8.63-31.34-6.98-7.44.73-12.43,3.38-14.82,7.88-2.48,4.68-1.96,10.81,1.61,18.69-8.09,2.43-15.1,8.72-19.66,17.8-5.98,11.92-6.18,25.44-.5,35.28.06.11.13.22.21.32,5.16,6.98,24.2,10.65,41.72,10.65"/>
      <g class="cls-25">
        <rect class="cls-22" x="201.21" y="504.7" width="29.26" height="33.79"/>
      </g>
      <path class="cls-6" d="m231.81,521.68c4.34,9.5,4.17,18.95-.51,28.36-9.49,15.93-67.29,12.37-75.32,1.52-4.81-8.34-4.61-19.32-.88-28.8.9,28.8,82.13,23.53,76.72-1.08"/>
      <path class="cls-12" d="m228.37,548.44c-3.03,4.89-13.38,8.23-27.76,8.95-19.77.98-38.26-3.22-41.86-7.68-2.57-4.55-3.55-10.21-2.94-16.13,2.3,2.79,5.56,5.18,9.72,7.09,18.16,8.34,50.2,5.92,63.49-4.79.97-.78,1.81-1.58,2.52-2.37.35,4.97-.71,9.92-3.18,14.93m-33.36,15.76c2,0,3.99-.05,5.93-.15,9.96-.5,27.53-2.75,33.21-12.3.04-.07.08-.15.12-.22,5.13-10.31,5.32-20.82.56-31.23-.71-1.55-2.47-2.32-4.09-1.78-1.62.54-2.57,2.22-2.2,3.88.67,3.03-.54,5.75-3.71,8.3-11.26,9.07-40.83,11.12-56.52,3.92-6.42-2.95-9.75-6.97-9.9-11.95-.05-1.58-1.2-2.91-2.76-3.18-1.56-.26-3.09.59-3.67,2.06-4.36,11.09-3.95,22.94,1.1,31.69.06.11.13.22.21.32,5.16,6.98,24.2,10.65,41.72,10.65"/>
      <path class="cls-11" d="m186.79,476.9c26.58-2.62,35.4,4.91,26.41,22.29l.05.04c-1.64,3.45-3.41,5.92-5.29,7.41-13.74,1.04-23.67-.34-29.8-4.12-8.42-15.58-5.55-24.22,8.63-25.62"/>
      <path class="cls-7" d="m206.6,503.39c-11.82.79-20.54-.31-25.94-3.27-3.69-7.07-4.77-12.43-3.13-15.52,1.28-2.4,4.5-3.87,9.59-4.38,18.26-1.8,23.61,1.78,25.16,4.08,2.28,3.36.15,9.12-2.04,13.36-.11.22-.2.44-.26.67-1.11,2.24-2.24,3.93-3.38,5.06m-7.05,6.92c2.7,0,5.59-.12,8.66-.35.66-.05,1.29-.3,1.81-.7,2.31-1.82,4.36-4.63,6.24-8.59.08-.17.14-.34.19-.51,4.13-8.23,4.58-14.82,1.35-19.59-4.31-6.35-14.56-8.63-31.34-6.98-7.44.73-12.43,3.38-14.82,7.88-2.89,5.43-1.71,12.84,3.58,22.64.28.51.69.94,1.18,1.25,5.37,3.32,12.99,4.95,23.14,4.95"/>
      <path class="cls-1" d="m207.11,502.85c.97-1.11,1.93-2.62,2.88-4.52,0-.01,0-.02.01-.03.04-.14.09-.28.15-.42t0,0s0-.01,0-.02c0,0,0,0,0,0,0,0,0,0,0-.01,0,0,0,0,0-.01,0,0,0,0,0,0,.02-.05.04-.1.07-.14h0s0-.01,0-.02c0,0,0,0,0,0,2.19-4.24,4.32-9.99,2.04-13.36-1.26-1.86-5.01-4.57-16.12-4.57-2.59,0-5.59.15-9.05.49-.37.04-.73.08-1.08.13-.08.16-.15.31-.22.46,2.13-.17,4.13-.25,5.98-.25,17.34,0,22.44,7.43,15.32,22.3"/>
      <path class="cls-31" d="m206.78,503.51s.09-.03.13-.04c.09-.03.18-.06.27-.08,1.03-1.12,1.97-2.21,2.82-3.27-.18-.61-.17-1.22-.02-1.79-.94,1.9-1.91,3.42-2.88,4.52-.11.22-.21.44-.32.66m3.21-5.22c.04-.14.09-.29.15-.42-.06.14-.11.28-.15.42m.15-.42s0-.01,0-.02c0,0,0,.01,0,.02m0-.02s0,0,0-.01c0,0,0,0,0,.01m.01-.02s0,0,0,0c0,0,0,0,0,0m.07-.15h0,0m.01-.02c.39-.77,1.09-1.38,1.97-1.66.27-.08.54-.16.81-.24,4.86-8.32,2.74-14.42-6.36-18.31h-.03c-3.28-.52-6.31-.78-9.07-.78-4.05,0-7.55.56-10.48,1.67-.39.68-.74,1.35-1.06,2.01.35-.05.71-.09,1.08-.13,3.46-.34,6.45-.49,9.05-.49,11.11,0,14.86,2.71,16.12,4.57,2.28,3.36.15,9.12-2.04,13.36,0,0,0,0,0,0"/>
      <path class="cls-12" d="m207.74,523.97c1.18,0,2.33-.63,2.93-1.74.88-1.62.28-3.64-1.34-4.52-8.91-4.83-18.58-10.76-28.75-17.62-1.53-1.03-3.6-.63-4.63.9-1.03,1.53-.63,3.6.9,4.63,10.35,6.98,20.21,13.02,29.3,17.96.5.27,1.05.4,1.59.4"/>
      <path class="cls-12" d="m280.3,268c6.19,0,10.91,1.75,12.46,4.76,1.99,3.86-.78,10.53-7.6,18.27-.59.67-.89,1.56-.82,2.46.07.9.5,1.73,1.18,2.3,23.79,19.9,36.57,43.11,34.2,62.09-1.22,9.76-6.49,17.34-14.83,21.35-.75.36-1.34.99-1.65,1.77-2.58,6.48-6.17,11.03-10.67,13.51-1.45.8-2.09,2.54-1.51,4.09,1.62,4.33,1.47,7.99-.49,11.2-5.28,8.67-23.55,14.94-54.31,18.62-44.09,5.27-67.84,1.9-70.59-10.03-.21-.91-.79-1.69-1.61-2.15-4.7-2.66-7.8-5.7-9.21-9.03-.35-.83-1.03-1.49-1.87-1.81-23.12-8.89-27.05-40.1-11.67-92.76.49-1.68-.4-3.44-2.03-4.06-11.52-4.32-19.21-15.05-19.59-27.36-.36-11.62,5.89-22.26,16.07-27.63,8.74,6.95,16.43,12.06,22.88,15.2.5.24,1.06.36,1.61.33,34.35-1.6,58.29,8.55,71.16,30.16.68,1.14,1.98,1.78,3.3,1.6,1.32-.17,2.41-1.12,2.77-2.4,5.03-17.82,23.53-28.72,39.22-30.3,1.24-.12,2.45-.18,3.6-.18m-78.96,169.53c9.99,0,21.85-.84,35.71-2.5,33.83-4.04,52.64-10.96,59.22-21.77,2.61-4.3,3.24-9.13,1.87-14.39,4.49-3.18,8.12-7.95,10.81-14.22,9.78-5.15,15.95-14.31,17.4-25.94,2.57-20.52-10.1-44.96-34-65.86,9.1-11.41,8.56-18.83,6.35-23.13-3.19-6.21-11.66-9.26-22.66-8.16-15.58,1.56-34.47,11.16-42.61,28.73-14.69-19.88-39.07-29.24-72.62-27.86-6.26-3.15-13.83-8.31-22.51-15.35-.97-.79-2.31-.97-3.46-.45-13.71,6.13-22.28,19.79-21.82,34.8.43,13.98,8.6,26.3,21.06,32.19-7.48,26.45-10.13,47.94-7.88,63.91,2.37,16.81,10.15,28.1,23.11,33.59,1.99,3.86,5.43,7.29,10.24,10.22,3.47,10.93,16.75,16.21,41.78,16.21"/>
      <path class="cls-12" d="m180.72,523.21c.68,0,1.37-.21,1.96-.64,6.79-4.96,15.64-9.25,26.32-12.76,1.75-.58,2.7-2.46,2.13-4.21-.57-1.75-2.46-2.7-4.21-2.13-11.34,3.73-20.82,8.35-28.17,13.72-1.49,1.09-1.81,3.17-.73,4.66.65.89,1.67,1.37,2.69,1.37"/>
      <path class="cls-7" d="m213.21,502.52c.33,0,.66-.05.99-.15,7.76-2.4,19.38-2.6,34.56-.57,1.83.24,3.5-1.04,3.75-2.86.24-1.83-1.04-3.5-2.86-3.75-16.37-2.19-28.61-1.92-37.42.81-1.76.55-2.74,2.41-2.2,4.17.44,1.43,1.76,2.35,3.18,2.35"/>
      <path class="cls-10" d="m214,499.86c2.57-1.56,6.42-2.08,11.56-1.56-.66,8.62,4.46,16.64,12.56,19.65,8.1,3.02,17.22.31,22.36-6.64-5.67-21.69-1.33-32.9,13.02-33.65,9.76-1.59,12.22,8.32,7.38,29.74,24.15,1.49,34.86,13.07,32.12,34.73-3.29,7.14-17.72,8.59-43.41,8.25-6.4-.09-12.15.02-17.27.12-8.94.18-15.94.36-21.02-.46,8.26-16.58,2.49-33.31-17.3-50.18"/>
      <path class="cls-7" d="m222.24,501.44c.04.56.1,1.12.19,1.67-.54-.55-1.1-1.09-1.67-1.64.46-.02.95-.04,1.48-.03m42.52,45.58c-4.94,0-9.46.09-13.55.18-5.94.12-10.98.22-15.05,0,3.27-9.01,2.81-18.05-1.38-27.06.71.35,1.43.67,2.18.95,9.44,3.52,20.21.32,26.2-7.78.6-.81.8-1.85.54-2.83-3.13-11.96-3.04-20.67.25-25.17,1.94-2.66,5.12-4.07,9.72-4.31.12,0,.24-.02.36-.04,2.79-.46,3.68.49,4.02.84,1.26,1.34,3.74,6.44-.43,24.87-.22.95,0,1.95.58,2.74.59.78,1.49,1.27,2.46,1.33,11.68.72,19.96,3.92,24.58,9.51,4.03,4.87,5.55,11.89,4.51,20.89-3.37,5.61-21.24,6.16-40.13,5.92-1.67-.02-3.3-.03-4.88-.03m-22.77,6.97c2.84,0,5.96-.06,9.35-.13,5.36-.11,11.43-.23,18.21-.14,26.93.36,42.32-1.16,46.48-10.19.14-.31.24-.64.28-.98,1.41-11.18-.58-20.11-5.92-26.56-5.29-6.38-13.84-10.27-25.47-11.58,2.8-14.07,2.15-22.76-2.01-27.18-1.65-1.75-4.67-3.66-9.76-2.88-6.54.38-11.45,2.74-14.58,7.02-4.47,6.1-5.04,15.65-1.74,29.14-4.36,4.84-11.36,6.63-17.55,4.32-6.67-2.48-10.95-9.17-10.4-16.27.14-1.81-1.19-3.39-2.99-3.57-5.93-.6-10.39.07-13.62,2.03-.92.56-1.51,1.52-1.59,2.58-.09,1.07.35,2.11,1.16,2.81,18.64,15.89,24.03,30.99,16.48,46.16-.47.95-.47,2.07.02,3.01.48.94,1.39,1.6,2.43,1.77,3.14.5,6.86.65,11.22.65"/>
      <path class="cls-22" d="m304.73,526.37c.99-1.34,1.45-2.99,1.4-5-.27-.39-.56-.77-.86-1.13-4.26-5.15-11.61-8.27-21.87-9.3,15.5,4.84,22.62,9.98,21.34,15.43"/>
      <path class="cls-31" d="m306.12,521.37c0-.26-.02-.53-.05-.81-.08-.88.2-1.73.72-2.38-1.91-2.41-5.62-4.84-11.13-7.28-4.55-.67-8.71-1.04-12.47-1.11-.33.32-.74.58-1.17.74.46.14.91.28,1.36.42,10.26,1.03,17.61,4.15,21.87,9.3.3.36.59.74.86,1.13"/>
      <path class="cls-6" d="m309.4,520.27c3.55,5.53,4.75,12.81,3.61,21.86-3.29,7.14-17.72,8.59-43.41,8.25-6.4-.09-12.15.02-17.27.12-8.94.18-15.94.36-21.02-.46,2.09-4.2,3.28-8.41,3.58-12.63h0c12.6.34,31.18-.44,55.77-2.33,13.27-1.14,19.53-6.08,18.75-14.81"/>
      <path class="cls-12" d="m264.76,547.01c-4.94,0-9.45.09-13.55.18-5.94.12-10.99.22-15.06,0,.77-2.12,1.33-4.25,1.68-6.39,12.55.15,30.38-.65,53.07-2.4,9.04-.78,15.13-3.19,18.65-7.39.06-.07.12-.14.17-.21.47,3.08.48,6.53.04,10.32-3.37,5.61-21.24,6.16-40.13,5.92-1.67-.02-3.3-.03-4.88-.03m-22.77,6.97c2.84,0,5.96-.06,9.35-.13,5.36-.11,11.43-.23,18.21-.14,26.93.36,42.32-1.16,46.48-10.19.14-.31.24-.64.28-.98,1.24-9.8-.14-17.9-4.11-24.08-.83-1.29-2.43-1.85-3.88-1.35-1.45.5-2.38,1.92-2.24,3.45.23,2.57-.31,4.59-1.63,6.16-2.29,2.73-7.03,4.42-14.09,5.03-24.33,1.87-42.98,2.65-55.4,2.32-.79-.02-1.56.24-2.17.73-.73.58-1.18,1.45-1.24,2.37-.26,3.77-1.35,7.59-3.23,11.38-.47.95-.47,2.07.02,3.01.48.94,1.39,1.6,2.43,1.77,3.14.5,6.86.65,11.22.65"/>
      <path class="cls-11" d="m257.68,514.35h0s0,0,0,0h0m1.67-1.66c.39-.44.77-.9,1.13-1.39-5.67-21.69-1.33-32.9,13.02-33.65,9.76-1.59,12.22,8.32,7.38,29.74-9.49-.73-16.67,1.04-21.53,5.29"/>
      <path class="cls-7" d="m276.92,503.91c-5.46,0-10.19.9-14.14,2.68-2.15-9.98-1.75-17.3,1.18-21.3,1.94-2.66,5.12-4.07,9.72-4.31.12,0,.24-.02.36-.04,2.79-.46,3.68.49,4.02.84,1.19,1.27,3.49,5.93.17,22.13-.44-.01-.87-.02-1.3-.02m-19.23,13.77c.7,0,1.41-.22,2.01-.68h0c.45-.35.79-.79,1.01-1.27.29-.13.57-.31.82-.53,4.15-3.63,10.57-5.14,19.08-4.48,1.64.12,3.14-.97,3.51-2.59,3.68-16.29,3.29-26.11-1.22-30.91-1.65-1.75-4.67-3.66-9.76-2.88-6.54.38-11.45,2.74-14.58,7.02-4.47,6.1-5.04,15.65-1.74,29.14-.22.25-.39.52-.52.8-.23.1-.44.23-.65.39-1.34,1.02-1.69,2.85-.9,4.28.09.16.19.32.31.46.66.82,1.63,1.25,2.6,1.25"/>
      <path class="cls-1" d="m278.22,503.92c3.32-16.2,1.03-20.86-.17-22.13-.27-.29-.91-.96-2.63-.96-.4,0-.86.04-1.39.12-.12.02-.24.03-.36.04-1.54.08-2.91.29-4.14.63-.09.09-.19.18-.28.27.49-.05.96-.08,1.41-.08,7.5,0,9.31,7.37,5.4,22.1.28,0,.56,0,.85,0,.43,0,.86,0,1.3.02"/>
      <path class="cls-31" d="m281.21,505.92c4.08-18.95,2.15-28.43-5.79-28.43-.6,0-1.24.06-1.92.17-.47.03-.94.06-1.39.11-.77.78-1.45,1.64-2.03,2.59.28.03.56.06.86.11-.5.36-.96.75-1.4,1.16,1.23-.34,2.6-.55,4.14-.63.12,0,.24-.02.36-.04.53-.09.98-.12,1.39-.12,1.72,0,2.36.68,2.63.96,1.19,1.27,3.49,5.93.17,22.13-.44-.01-.87-.02-1.3-.02-.28,0-.57,0-.85,0-.05.19-.1.39-.16.58,1.89.75,3.65,1.22,5.29,1.42"/>
      <path class="cls-12" d="m278.77,447.67c.4,0,.81-.07,1.2-.22,1.72-.66,2.57-2.59,1.91-4.31-3.58-9.27-10.17-15.53-19.61-18.62-1.75-.57-3.63.38-4.21,2.13-.57,1.75.38,3.63,2.13,4.21,7.55,2.47,12.61,7.28,15.47,14.69.51,1.32,1.77,2.14,3.11,2.14h0Z"/>
      <path class="cls-12" d="m286.08,522.13c.96,0,1.91-.41,2.57-1.21,1.17-1.42.97-3.52-.45-4.69-6.93-5.72-16.28-8.5-27.8-8.25-1.84.04-3.3,1.56-3.26,3.4.04,1.84,1.53,3.28,3.4,3.26,9.87-.22,17.75,2.06,23.42,6.73.62.51,1.37.76,2.12.76"/>
      <path class="cls-12" d="m268.28,527.12c1.07,0,2.13-.52,2.77-1.47,4.69-6.98,8.81-12.35,12.24-15.96,1.27-1.33,1.21-3.45-.12-4.71-1.33-1.27-3.45-1.22-4.71.12-3.69,3.88-8.04,9.54-12.94,16.83-1.03,1.53-.62,3.6.9,4.63.57.38,1.22.57,1.86.57h0Z"/>
      <path class="cls-18" d="m327.73,136.76c-4.16-38.17-32.81-69.12-70.55-76.19-.52-.02-1.03-.03-1.52-.03-13.28,0-14.73,6.4-.65,11.75,24.97,9.5,50.14,28.05,72.72,64.47"/>
      <path class="cls-18" d="m161.71,159.79c8.99,0,16.28-8.55,16.28-19.1s-7.29-19.1-16.28-19.1-16.28,8.55-16.28,19.1,7.29,19.1,16.28,19.1"/>
      <path class="cls-18" d="m169.64,193.54c.51,0,.98-.12,1.4-.35,2.39-1.38,2.09-6.37-.66-11.14-2.27-3.95-5.51-6.51-7.91-6.51-.51,0-.98.12-1.4.36-2.39,1.38-2.09,6.37.66,11.14,2.27,3.95,5.51,6.51,7.91,6.51"/>
      <path class="cls-33" d="m314.15,248.28c21.06,0,40.82-12.2,48.56-31.83,5.18-13.14-.43-28.14-12.04-36.18-.56-.39-1.13-.76-1.72-1.11-5.09,26.88-18.81,50.83-38.24,69.01.82.05,1.64.09,2.46.1.32,0,.65,0,.97,0"/>
      <path class="cls-14" d="m302.14,246.91c2.02-1.73,3.97-3.52,5.87-5.37-2.27,1.78-4.61,3.48-7.02,5.09.38.1.76.19,1.15.28"/>
      <path class="cls-27" d="m310.71,248.17c19.43-18.18,33.15-42.14,38.24-69.01-.99-.6-2.02-1.16-3.07-1.67-2.41,13.43-7.03,26.12-13.47,37.71-6.63,9.98-14.88,18.88-24.4,26.35-1.9,1.85-3.85,3.64-5.87,5.37,2.79.65,5.66,1.07,8.58,1.26"/>
      <path class="cls-27" d="m300.99,246.63c2.41-1.61,4.75-3.31,7.02-5.09,9.52-7.47,17.77-16.36,24.4-26.35,6.44-11.58,11.06-24.28,13.47-37.71-4.83-2.34-10.24-3.67-15.44-3.67-6.95,0-13.53,2.38-17.87,7.91-15.16,19.34-28.49,32.12-47.75,32.99,6.33,16.05,19.94,27.77,36.18,31.92"/>
      <path class="cls-6" d="m220.17,280.42c9.26,0,18.29-.96,26.99-2.79-5.86,5.13-10.58,11.78-12.89,19.94-4.05-6.81-9.09-12.53-15.11-17.16.34,0,.67,0,1.01,0h0Z"/>
      <path class="cls-7" d="m238.03,282.57c-1.81,2.43-3.35,5-4.6,7.71-1.77-2.39-3.68-4.64-5.73-6.73,3.46-.19,6.91-.52,10.34-.97h0Zm-3.76,18.33c.14,0,.29,0,.44-.03,1.32-.17,2.41-1.12,2.77-2.4,1.98-7,5.97-13.18,11.87-18.34,1.14-1,1.47-2.64.79-4-.68-1.35-2.19-2.08-3.67-1.77-8.91,1.87-18.09,2.81-27.28,2.71h-.03c-1.42,0-2.68.9-3.15,2.25-.47,1.35-.02,2.86,1.12,3.73,5.66,4.35,10.47,9.81,14.28,16.22.61,1.02,1.7,1.63,2.86,1.63h0Z"/>
      <path class="cls-16" d="m168.01,405.89c7.2,0,15.06-1.22,22.8-4.18,2.41-2.21,6.37-6.88,8.77-15.19,1.13-3.89,2.35-7.79,3.72-11.49-.65-.24-1.3-.46-1.95-.69-1.26,1.87-2.39,3.93-3.39,6.2h0s0,0,0,0c-.18.41-.36.83-.53,1.25-1.92,3.98-5.66,6.86-11.2,8.63-7.61,1.98-14.41,2.96-20.39,2.96-21.84,0-32.88-13.15-33.13-39.46-.39,4.01-.59,7.8-.59,11.36,0,16.98,4.41,28.96,13.25,35.83,5.46,2.82,13.53,4.76,22.65,4.76"/>
      <path class="cls-15" d="m203.29,375.03c.36-.98.74-1.95,1.12-2.91-.38-.13-.77-.25-1.15-.37-.67.82-1.32,1.68-1.93,2.59.65.22,1.3.45,1.95.69"/>
      <path class="cls-12" d="m204.42,372.12c.41-1.02.84-2.02,1.28-3-.85.81-1.66,1.69-2.43,2.62.38.12.77.25,1.15.37"/>
      <path class="cls-12" d="m190.81,401.71c.18-.07.36-.14.55-.21.4-.16.82-.24,1.22-.24.32,0,.63.05.93.13,7.83-10.12,12-20.84,12.52-32.17-.1-.04-.21-.07-.31-.1,0,0,0,0,0,0-.44.97-.87,1.97-1.28,3-.39.95-.76,1.92-1.12,2.91-1.37,3.7-2.59,7.6-3.72,11.49-2.4,8.3-6.37,12.98-8.77,15.19"/>
      <path class="cls-12" d="m163.84,407.13c13.99,0,23.47-1.4,28.45-4.21.41-.51.82-1.02,1.21-1.53-.3-.09-.61-.13-.93-.13-.41,0-.82.08-1.22.24-.18.07-.36.14-.55.21-7.74,2.97-15.59,4.18-22.8,4.18-9.11,0-17.18-1.95-22.65-4.76h0c2.25,1.75,4.79,3.17,7.62,4.26.76.29,1.39.85,1.76,1.57,3.22.12,6.26.17,9.1.17"/>
      <path class="cls-12" d="m154.74,406.96c-.37-.72-1-1.28-1.76-1.57-2.83-1.09-5.36-2.51-7.62-4.26-8.83-6.87-13.25-18.85-13.25-35.83,0-3.57.2-7.35.59-11.36-.07-7.73.78-16.59,2.57-26.58-13.32,40.31-7.92,66.8,16.22,79.47,1.1.05,2.18.1,3.24.13"/>
      <path class="cls-16" d="m207.2,366.03c.46-.9.94-1.76,1.44-2.6-6.18-3.45-12.09-5.36-17.73-5.75,1.41-22.88-1.72-41.78-9.4-56.7,5.54,19.75,5.52,40.38-.04,60.08,8.01.45,17.09,2,25.73,4.97"/>
      <path class="cls-12" d="m181.47,361.06c5.56-19.7,5.58-40.33.04-60.08-.33-.64-.67-1.28-1.02-1.91,3.33,19.74,2.44,40.36-2.67,61.86,1.18.02,2.4.06,3.64.13"/>
      <path class="cls-12" d="m205.7,369.12c.48-1.06.98-2.1,1.49-3.09-8.64-2.96-17.73-4.52-25.73-4.97-1.24-.07-2.46-.11-3.64-.13-.28,1.16-.57,2.33-.87,3.5.7-.03,1.41-.04,2.12-.04,7.98,0,16.85,1.57,26.63,4.72"/>
      <path class="cls-12" d="m208.54,370.07c.73-2.02,1.62-3.72,2.69-5.11-.87-.54-1.74-1.05-2.6-1.53-.5.83-.98,1.7-1.44,2.6-.51,1-1.01,2.03-1.49,3.09,0,0,0,0,0,0,.11-.11.22-.21.33-.31,0,.14-.01.28-.02.41.84.27,1.68.55,2.52.85"/>
      <path class="cls-12" d="m206.02,369.22c0-.14.01-.28.02-.41-.11.1-.22.21-.33.31.1.03.21.07.31.1"/>
      <path class="cls-16" d="m136.35,307.29c5.38-11.9,12.95-19.6,22.53-22.91,3.58-1.24,7.44-1.86,11.59-1.86,10.51,0,22.8,3.98,36.69,11.91-9.79-9.71-22.74-14.71-35.78-14.71-7.56,0-15.16,1.68-22.19,5.1h0c-1.92.86-3.64,1.29-5.14,1.29-2.25,0-4.04-.97-5.35-2.9-.05-4.29,2.64-8.06,6.54-9.49h0c.6-.28,1.21-.56,1.81-.82-.89.33-1.79.69-2.69,1.06-.42.17-.85.25-1.27.25-1.31,0-2.55-.78-3.08-2.06-.7-1.7.11-3.65,1.81-4.36,3.13-1.29,6.21-2.37,9.25-3.24-4.65-2.9-9.78-6.57-15.32-10.98-9.9,5.22-16.08,15.42-16.08,26.68,0,.32,0,.63.02.95.35,11.23,6.78,21.15,16.66,26.08"/>
      <path class="cls-15" d="m145.25,273.72h0c.57-.21,1.18-.37,1.8-.48.02-.12.04-.25.07-.37-.02,0-.04.01-.06.02-.61.26-1.21.54-1.81.82"/>
      <path class="cls-12" d="m143.1,274.21c.42,0,.86-.08,1.27-.25.9-.37,1.8-.73,2.69-1.06.02,0,.04-.01.06-.02.65-3.06,2.84-5.31,6.56-6.75-.85-.49-1.72-1.02-2.6-1.57-3.03.87-6.12,1.94-9.25,3.24-1.7.7-2.51,2.65-1.81,4.36.53,1.28,1.77,2.06,3.08,2.06"/>
      <path class="cls-12" d="m138.35,308.2c.92-3.93,3.89-9,8.92-15.2,7.47-4.76,15.77-7.14,24.91-7.14,11.03,0,23.27,3.47,36.73,10.4-.57-.62-1.16-1.23-1.75-1.82-13.9-7.93-26.18-11.91-36.69-11.91-4.14,0-8.01.62-11.59,1.86-9.59,3.31-17.16,11.02-22.53,22.91h0c.65.33,1.32.63,2,.91"/>
      <path class="cls-12" d="m138.11,311.69c-.14-1.04-.06-2.2.24-3.49-.68-.28-1.35-.58-2-.91-9.88-4.93-16.31-14.85-16.66-26.08-.01-.32-.02-.63-.02-.95,0-11.25,6.19-21.46,16.08-26.68,5.54,4.41,10.67,8.08,15.32,10.98.89.55,1.75,1.07,2.6,1.57,1.34-.52,2.88-.94,4.62-1.25-6.33-4.17-14.62-8.78-24.88-13.82-11.36,6.4-17.99,18.81-16.98,31.81,1,13,9.46,24.24,21.67,28.82"/>
      <path class="cls-16" d="m245.35,293.73s.05-.05.08-.07c8.33-6.6,16.52-9.9,24.53-9.9,5.77,0,11.44,1.71,16.99,5.14,4.21-5.23,6.43-9.86,6.44-13.32,0-1.06-.21-2.01-.63-2.83-.79-1.54-2.41-2.75-4.63-3.56.03.06.05.12.08.17h0c1.07,2.53.86,5.46-.66,7.84-1.57,2.46-4.27,3.9-7.12,3.9-.54,0-1.08-.05-1.62-.16-1.97-.33-3.94-.5-5.9-.5-10.62,0-20.81,4.81-27.55,13.28"/>
      <path class="cls-12" d="m245.16,293.97c9.98-5.24,18.58-7.86,25.79-7.86,5.62,0,10.4,1.59,14.34,4.77.58-.67,1.14-1.33,1.66-1.98h0c-5.55-3.43-11.22-5.14-16.99-5.14-8.01,0-16.2,3.3-24.53,9.9-.03.02-.06.05-.08.07-.07.08-.13.16-.2.25"/>
      <path class="cls-12" d="m288.15,293.63c1.97-2.93,4.47-7.15,7.5-12.68,2.93-8.53.14-12.95-8.38-13.25.34.47.63.97.86,1.48,2.22.81,3.84,2.02,4.63,3.56.42.82.63,1.77.63,2.83,0,3.46-2.23,8.09-6.44,13.32-.52.65-1.08,1.31-1.66,1.98,1.01.81,1.96,1.73,2.86,2.75"/>
      <path class="cls-16" d="m248.52,299.62c7.69-4.69,15.48-7.03,23.38-7.03,3.46,0,6.93.45,10.43,1.35-4.07-2.28-8.19-3.42-12.39-3.42-6.57,0-13.32,2.79-20.36,8.37-.25.19-.51.35-.78.46-.09.09-.18.18-.27.27"/>
      <path class="cls-12" d="m248.79,299.35c.27-.12.54-.27.78-.46,7.04-5.58,13.79-8.37,20.36-8.37,4.2,0,8.32,1.14,12.39,3.42.76.2,1.53.41,2.29.65-.15-.33-.24-.68-.27-1.04-4.86-2.96-9.66-4.44-14.39-4.44-7.19,0-14.25,3.41-21.16,10.24"/>
      <path class="cls-12" d="m287.27,295.5c-.97-.71-1.95-1.36-2.92-1.95.04.36.13.71.27,1.04.88.27,1.76.58,2.64.91"/>
      <path class="cls-4" d="m148.83,299.49c6.09-5.5,13.62-8.24,22.59-8.24s19.07,2.67,30.71,8c-12.15-6.71-22.72-10.07-31.59-10.07-3.41,0-6.58.5-9.47,1.5-2.74.95-5.28,2.36-7.64,4.25-.75.61-1.49,1.26-2.21,1.96-.82.81-1.62,1.68-2.39,2.61"/>
      <path class="cls-17" d="m205.65,300.92c-12.62-8.46-23.77-12.69-33.45-12.69-7.03,0-13.29,2.23-18.77,6.69,2.35-1.88,4.9-3.3,7.64-4.25,2.9-1,6.06-1.5,9.47-1.5,8.86,0,19.43,3.37,31.59,10.07,1.16.53,2.33,1.09,3.52,1.67m-57.2-1.08c.13-.12.25-.23.38-.35.77-.93,1.57-1.8,2.39-2.61-.95.91-1.87,1.9-2.77,2.96"/>
      <path class="cls-16" d="m202.67,416.01c12.37-.95,23.63-2.21,33.76-3.78-1.5.09-2.93.14-4.31.14-26.64,0-30.85-17.24-12.62-51.73-3.92,3.05-8.55,10.54-13.52,27.73-2.5,8.66-6.49,14.13-9.81,17.43,1,4.63,3.26,8.19,6.5,10.21"/>
      <path class="cls-12" d="m197.59,416.24c14.14-.5,27.52-1.87,40.09-4.09-.42.03-.83.06-1.24.09-10.13,1.57-21.39,2.83-33.76,3.78-3.24-2.02-5.5-5.58-6.5-10.21,3.32-3.3,7.31-8.77,9.81-17.43,4.97-17.19,9.6-24.68,13.52-27.73.04-.08.08-.16.13-.24-3.48.28-6.28,1.8-8.4,4.55.1.06.21.13.31.19-1.75,3.37-2.62,5.05-2.62,5.05-.13-.04-.25-.09-.38-.13-.35.97-.66,2.02-.93,3.14-1.56,5.84-5.57,15.83-12.03,29.94.03.07.06.14.09.22.67,1.71-.17,3.65-1.88,4.33-.13.05-.26.1-.38.15-.04.08-.08.16-.11.24,0,.18,0,.36.01.54.81-.21,1.59-.44,2.36-.68-.11,3.1.52,5.87,1.92,8.3"/>
      <path class="cls-12" d="m208.69,419c8.67,0,21-2.6,37-7.8-2.83.44-5.5.76-8.01.95-12.57,2.22-25.95,3.59-40.09,4.09.1.18.21.35.31.52,2.54,1.5,6.14,2.25,10.79,2.25"/>
      <path class="cls-12" d="m193.42,407.84c.13-.05.26-.1.38-.15,1.71-.68,2.55-2.61,1.88-4.33-.03-.07-.06-.15-.09-.22-.7,1.52-1.42,3.08-2.17,4.69"/>
      <path class="cls-12" d="m208.92,370.2s.87-1.69,2.62-5.05c-.1-.07-.21-.13-.31-.19-1.07,1.39-1.97,3.09-2.69,5.11.13.04.25.09.38.13"/>
      <path class="cls-16" d="m201.55,430.82c8.28,0,17.96-.59,29.03-1.77-11.78-.82-20.58-2.96-26.4-6.44-.39.02-.78.04-1.17.06-.28.02-.57.04-.85.06-.08,0-.17,0-.25,0s-.16,0-.24,0c-5.42.25-10.96.38-16.6.38s-11.32-.13-17.14-.38c4.11,4.7,13.21,7.35,27.22,7.95,2.03.09,4.16.13,6.4.13m-16.46-14.37c2.85,0,5.66-.03,8.45-.1-1.44-2.03-2.57-4.4-3.34-7.03-.8.16-1.62.3-2.46.43-6.68,1.93-13.36,2.75-19.62,2.75-3.51,0-6.89-.26-10.07-.73,1.42,1.43,3.21,2.79,5.36,4.06,7.4.41,14.63.61,21.69.61"/>
      <path class="cls-12" d="m201.91,422.75c.08,0,.17,0,.25,0,.28-.02.57-.04.85-.06-.45.02-.89.05-1.34.07.08,0,.16,0,.24,0m-8.37-6.39c1.2-.03,2.39-.06,3.58-.1-2.42-1.73-3.69-4.27-3.81-7.63-1.01.26-2.05.5-3.12.71.78,2.63,1.9,4.99,3.34,7.03"/>
      <path class="cls-12" d="m185.07,423.12c5.64,0,11.18-.13,16.6-.38.45-.02.89-.04,1.34-.07.39-.02.78-.04,1.17-.06-2.77-1.65-4.86-3.6-6.28-5.86-.27-.16-.53-.33-.78-.5-1.19.04-2.38.08-3.58.1-2.79.07-5.61.1-8.45.1-7.05,0-14.28-.2-21.69-.61h0c.22.13.44.26.66.38.81.46,1.4,1.24,1.61,2.15.37,1.61,1.12,3.06,2.26,4.36h0c5.82.25,11.54.38,17.14.38"/>
      <path class="cls-12" d="m168.11,412.51c6.27,0,12.94-.82,19.62-2.75-3.88.6-8.17.9-12.86.9-5.68,0-11.97-.44-18.85-1.31.56.84,1.23,1.65,2.02,2.44h0c3.18.47,6.56.73,10.07.73"/>
      <path class="cls-12" d="m201.57,430.82c8.27,0,17.94-.59,29.01-1.77h0c-11.06,1.18-20.75,1.77-29.03,1.77-2.24,0-4.37-.04-6.4-.13h0c2.03.09,4.18.13,6.42.13"/>
      <path class="cls-12" d="m222.14,436.08c10.25-1.1,21.44-3.44,33.57-7.03-4.76.25-9.24.38-13.44.38s-8.08-.13-11.7-.38c-11.07,1.18-20.74,1.77-29.01,1.77-2.24,0-4.38-.04-6.42-.13-14.02-.6-23.12-3.25-27.22-7.95-1.13-1.3-1.89-2.75-2.26-4.36-.21-.91-.79-1.69-1.61-2.15-.22-.13-.44-.25-.66-.38-2.15-1.27-3.94-2.63-5.36-4.06-.79-.79-1.46-1.61-2.02-2.44-.35-.05-.7-.09-1.06-.14-.63,2.83,3.08,7.62,11.13,14.34,3.56,2.86,7.47,5.25,11.74,7.19,10,2.74,22.87,4.11,38.63,4.11,3.31,0,6.75-.06,10.32-.18-1.49.5-3.04.97-4.64,1.43"/>
      <path class="cls-12" d="m197.12,416.25c.15,0,.31-.01.46-.02-1.39-2.43-2.03-5.19-1.92-8.3-.76.24-1.55.47-2.36.68.12,3.36,1.39,5.9,3.81,7.63"/>
      <path class="cls-12" d="m197.9,416.76c-.11-.17-.21-.35-.31-.52-.15,0-.31.01-.46.02.25.18.51.34.78.5"/>
      <path class="cls-4" d="m279.67,343.04c3.74-.71,7.74-1.07,12-1.07.66,0,1.32,0,1.99.03-4.01-17.08-10.7-31.52-19.9-42.98-.15-.18-.27-.37-.37-.57-.13-.11-.25-.22-.38-.32,5.48,6.36,18.31,34.95,15.19,41.19-.44.88-1.3,1.47-2.28,1.57-2.75.22-4.84.94-6.26,2.16"/>
      <path class="cls-17" d="m296.5,342.12c.19-.2.38-.4.58-.6-2.47-16.73-10.87-32.02-23.68-43.08.1.2.23.39.37.57,9.2,11.45,15.88,25.9,19.9,42.98.93.02,1.88.06,2.84.12"/>
      <path class="cls-17" d="m297.17,342.16c-.03-.21-.06-.43-.09-.64-.19.2-.38.4-.58.6.22.01.44.03.67.04"/>
      <path class="cls-17" d="m286.66,344.48c3.44,0,6.97-.61,10.58-1.84-.02-.16-.04-.32-.07-.48-.22-.02-.44-.03-.67-.04-.96-.06-1.9-.1-2.84-.12-.67-.02-1.33-.03-1.99-.03-4.26,0-8.26.36-12,1.07-.16.14-.32.29-.47.45,2.44.66,4.92,1,7.45,1"/>
      <path class="cls-16" d="m309.68,376.28c5.57-4.3,9.08-10.67,10.05-18.4.19-1.5.28-3.03.28-4.58,0-10.13-3.96-21.24-11.32-32.28,8,13.7,8.55,24.52,1.66,32.45-.35.13-.7.2-1.06.2-2.24,0-4.61-2.61-7.11-7.84-.02.02-.03.03-.05.05.05.31.1.62.14.93,4.61,9.26,7.09,19.15,7.39,29.47"/>
      <path class="cls-12" d="m302.14,345.88s.03-.03.05-.05c-.03-.06-.05-.12-.08-.17.01.07.02.15.04.22"/>
      <path class="cls-12" d="m306.22,378.54c1.23-.67,2.38-1.43,3.46-2.26h0c-.3-10.33-2.78-20.21-7.39-29.47,2.07,13.47,3.38,24.05,3.94,31.73"/>
      <path class="cls-12" d="m306.3,379.75c23.03-11.91,22.49-33.55-1.59-64.91,1.49,2.12,2.81,4.18,3.98,6.18,7.36,11.04,11.32,22.15,11.32,32.28,0,1.55-.09,3.08-.28,4.58-.97,7.74-4.48,14.1-10.05,18.4-1.08.83-2.23,1.59-3.46,2.26.03.41.06.81.08,1.21"/>
      <path class="cls-3" d="m244.84,515.82c4.5,0,8.91-1.9,11.99-5.32-1.35-5.54-2.05-10.41-2.11-14.65-6.35-9.31-6.69-27.21-1.03-53.7-7.33,7.15-14.81,11.14-22.27,11.89-.33,15.92-1.01,29.23-2.03,39.68.25,0,.5,0,.75,0,5.71,0,12.18.49,19.48,1.46,1.82.24,3.11,1.92,2.86,3.75-.22,1.68-1.66,2.89-3.31,2.89-.15,0-.29,0-.44-.03-6.94-.93-13.13-1.39-18.55-1.39-.45,0-.91,0-1.35.01.26,6.38,4.35,12.14,10.43,14.4,1.81.68,3.69,1,5.56,1"/>
      <path class="cls-12" d="m225.96,493.83c1.12-.05,2.27-.08,3.45-.09,1.02-10.45,1.7-23.76,2.03-39.68,7.46-.75,14.94-4.74,22.27-11.89.21-.97.42-1.95.65-2.94-9.79,7.75-18.4,11.63-25.85,11.63-.12,0-.23,0-.35,0,0,0-.73,14.33-2.2,42.99"/>
      <path class="cls-30" d="m249.19,501.83c1.65,0,3.08-1.21,3.31-2.89.24-1.83-1.04-3.5-2.86-3.75-7.29-.97-13.76-1.46-19.48-1.46-.25,0-.5,0-.75,0-1.18,0-2.33.04-3.45.09-.02.38-.04.77-.06,1.15,1.8.18,3.13,1.77,2.99,3.57-.05.63-.06,1.25-.03,1.87.44,0,.89-.01,1.35-.01,5.42,0,11.61.46,18.55,1.39.15.02.29.03.44.03"/>
      <path class="cls-30" d="m244.29,518.19c2.93-.18,6.31-1.25,10.12-3.23-.22-1.2.23-2.48,1.26-3.27.21-.16.42-.28.65-.39.13-.29.3-.55.52-.8-1.35-5.53-2.05-10.41-2.1-14.65h0c.05,4.24.75,9.11,2.11,14.65-3.08,3.43-7.49,5.32-11.99,5.32-1.86,0-3.75-.33-5.56-1-6.08-2.26-10.17-8.02-10.43-14.4-.03-.62-.02-1.24.03-1.87.14-1.8-1.19-3.39-2.99-3.57-.01.21-.02.41-.03.62-1.94,9.85,1.72,16.66,10.97,20.43h0s0,0,0,0c2.18.89,4.66,1.61,7.45,2.16"/>
      <path class="cls-30" d="m254.41,514.96c1.05-.54,2.14-1.16,3.26-1.84-.32-.5-.51-1.09-.53-1.74-.03-1.49.92-2.78,2.27-3.23.02-.44.02-.89,0-1.35-.38-2.14-.66-4.15-.86-6.03-.08-.35-.17-.7-.26-1.06-1.34-1.06-2.53-2.34-3.56-3.85.05,4.24.75,9.11,2.1,14.65-.22.25-.39.52-.52.8-.23.1-.44.23-.65.39-1.04.79-1.48,2.07-1.26,3.27"/>
      <path class="cls-12" d="m257.67,513.11c.31-.19.62-.38.93-.58.49-1.27.76-2.74.81-4.39-1.34.45-2.3,1.74-2.27,3.23.01.64.2,1.24.53,1.74"/>
      <path class="cls-3" d="m171.55,500.72c.56-.21,1.13-.4,1.7-.57-.14-.31-.27-.61-.4-.91,0,0,0,0,0,0,0-.01-.01-.03-.02-.04,0,0,0,0,0-.01,0-.01,0-.02-.02-.03,0,0,0-.01,0-.02,0,0,0-.02-.01-.03,0-.02-.01-.03-.02-.05,0,0,0-.01,0-.02,0-.01-.01-.02-.01-.03,0,0,0-.01,0-.02,0-.01,0-.02-.01-.03,0,0,0-.01,0-.02,0-.01,0-.03-.02-.04,0,0,0,0,0,0,0-.01-.01-.03-.02-.04,0,0,0,0,0-.01-.57-1.36-1.05-2.67-1.43-3.92.1,1.92.2,3.86.31,5.81m-.79-17.16c.2-.63.44-1.23.73-1.81h0s.01-.02.02-.03h0s.03-.07.05-.1h0s.01-.02.02-.03c0,0,0,0,0,0,0,0,0-.02.01-.03,0,0,0,0,0,0,0,0,0-.02.01-.02,0,0,0,0,0,0,0,0,0-.02.01-.02,0,0,0,0,0,0,0-.01,0-.02.02-.03,2.39-4.5,7.38-7.15,14.82-7.88,1.6-.16,3.15-.28,4.64-.37-4.3-4.46-6.17-11.34-5.04-20.58.59-4.85,7.72-11.13,10.98-11.56,8.39-1.12,15.94-2.55,22.63-4.31-6.7.51-12.8.77-18.33.77-1.94,0-3.82-.03-5.62-.1-6.12,10.01-14.09,15.06-23.76,15.06-.59,0-1.19-.02-1.8-.06,0,9.33.19,19.9.6,31.13m1.04-37.76c6.39,0,11.75-2.93,16.22-8.88-7.24-.73-13.06-2.13-17.55-4.21-.14,3.86-.24,8.24-.28,13.03.54.04,1.08.06,1.61.06"/>
      <path class="cls-12" d="m168.26,502.21c1.07-.57,2.18-1.07,3.3-1.49-.11-1.95-.21-3.88-.31-5.81-1.34-4.41-1.5-8.17-.49-11.35-.41-11.23-.6-21.8-.6-31.13-1-.06-2.01-.18-3.04-.34-.09,21.5.29,38.21,1.14,50.12m1.93-56.46c.05-4.79.14-9.17.28-13.03-1.13-.52-2.18-1.09-3.14-1.7-.08,4.98-.13,9.75-.17,14.33.11.01.23.03.34.05.92.17,1.81.29,2.69.35"/>
      <path class="cls-30" d="m171.96,452.49c9.68,0,17.64-5.05,23.76-15.06-2.72-.1-5.29-.27-7.7-.51-4.48,5.95-9.84,8.88-16.22,8.88-.53,0-1.07-.02-1.61-.06-.88-.07-1.77-.18-2.69-.35-.11-.02-.23-.04-.34-.05-.02,2.3-.03,4.55-.04,6.75,1.03.17,2.05.28,3.04.34.61.04,1.21.06,1.8.06"/>
      <path class="cls-30" d="m171.03,504.9c1.18,0,2.22-.07,3.12-.21.4-.14.8-.27,1.2-.38-.04-.07-.08-.13-.12-.2-.74-1.37-1.4-2.68-1.97-3.96-.57.17-1.14.36-1.7.57-1.12.42-2.23.92-3.3,1.49.06.89.13,1.76.2,2.6.92.06,1.78.1,2.57.1m1.82-5.67s0,0,0,0c0,0,0,0,0,0m-.02-.05s0,0,0-.01c0,0,0,0,0,.01m-.02-.05s0-.01,0-.02c0,0,0,.01,0,.02m-.02-.05s-.01-.03-.02-.05c0,.02.01.03.02.05m-.03-.07s-.01-.02-.01-.03c0,.01,0,.02.01.03m-.02-.05s0-.02-.01-.03c0,.01,0,.02.01.03m-.02-.05s0-.03-.02-.04c0,.01.01.03.02.04m-.02-.05s-.01-.03-.02-.04c0,.01.01.03.02.04m-.02-.05c-2.98-7.09-3.37-12.71-1.19-17.08-.29.58-.53,1.19-.73,1.81-1.01,3.18-.85,6.94.49,11.35.38,1.25.86,2.56,1.43,3.92m-1.18-17.09s.01-.02.02-.03c0,0-.01.02-.02.03m.02-.03s.03-.06.05-.1c-.02.03-.03.06-.05.1m.05-.1s.01-.02.02-.03c0,0-.01.02-.02.03m.02-.03s0-.02.01-.03c0,0,0,.02-.01.03m.02-.03s0-.02.01-.02c0,0,0,.02-.01.02m.02-.03s0-.02.01-.02c0,0,0,.02-.01.02m.02-.03s0-.02.02-.03c2.39-4.5,7.38-7.15,14.82-7.88,1.6-.16,3.15-.28,4.64-.37h0c-1.49.09-3.03.21-4.64.37-7.44.73-12.43,3.38-14.82,7.88,0,.01-.01.02-.02.03"/>
      <path class="cls-30" d="m175.35,504.31c.11-.03.22-.06.32-.09-.46-1.02-.39-2.24.28-3.24.22-.33.49-.6.79-.82-4.01-6.19-4.78-11.53-2.3-16.02,1.81-5.24,7-8.7,15.58-10.38,0,0,0,0,0,0h0c.45-.09.9-.17,1.37-.25-.1-.1-.2-.2-.3-.3-1.49.09-3.03.21-4.64.37-7.44.73-12.43,3.38-14.82,7.88,0,.01-.01.02-.02.03,0,0,0,0,0,0,0,0,0,.02-.01.02,0,0,0,0,0,0,0,0,0,.02-.01.02,0,0,0,0,0,0,0,0,0,.02-.01.03,0,0,0,0,0,0,0,0-.01.02-.02.03h0s-.03.07-.05.1h0s-.01.02-.02.03h0c-2.18,4.37-1.8,10,1.19,17.09,0,0,0,0,0,.01,0,.01.01.03.02.04,0,0,0,0,0,0,0,.01.01.03.02.04,0,0,0,.01,0,.02,0,.01,0,.02.01.03,0,0,0,.01,0,.02,0,.01,0,.02.01.03,0,0,0,.01,0,.02,0,.02.01.03.02.05,0,0,0,.02.01.03,0,0,0,.01,0,.02,0,.01.01.02.02.03,0,0,0,0,0,.01,0,.01.01.03.02.04,0,0,0,0,0,0,.13.3.26.6.4.91.58,1.27,1.24,2.59,1.97,3.96.04.07.08.14.12.2"/>
      <path class="cls-12" d="m175.67,504.22c.29-.08.58-.16.88-.22.85-.41,1.42-.97,1.7-1.67h0c-.55-.74-1.05-1.46-1.51-2.17-.3.22-.57.5-.79.82-.67.99-.73,2.22-.28,3.24"/>
      <path class="cls-12" d="m201.34,437.53c5.53,0,11.63-.26,18.33-.77.84-.22,1.66-.45,2.47-.68-4.5.48-8.81.72-12.95.72-11.99,0-22.45-2.02-31.37-6.07-3.92-1.07-7.39-2.36-10.43-3.85-.03,1.39-.05,2.77-.07,4.13.96.61,2.01,1.18,3.14,1.7,4.49,2.08,10.32,3.48,17.55,4.21,2.41.24,4.98.41,7.7.51,1.8.06,3.68.1,5.62.1"/>
      <path class="cls-12" d="m209.19,436.81c4.13,0,8.45-.24,12.95-.72,1.6-.45,3.14-.93,4.64-1.43-3.57.12-7.01.18-10.32.18-15.76,0-28.63-1.37-38.63-4.11,8.92,4.05,19.38,6.07,31.37,6.07"/>
      <path class="cls-21" d="m199.59,503.64c.99,0,2-.02,3.04-.05-16.87-3.11-22.47-10.7-16.81-22.78-1.13.09-2.3.2-3.5.34-2.37.77-3.97,1.92-4.78,3.45-1.65,3.1-.56,8.45,3.13,15.52,4.27,2.34,10.61,3.52,18.93,3.52"/>
      <path class="cls-30" d="m195.83,506.63c.9-.02,1.82-.06,2.77-.13,2.14-.86,4.37-1.69,6.67-2.48-.91-.14-1.78-.28-2.63-.44-1.04.03-2.05.05-3.04.05-8.32,0-14.66-1.18-18.93-3.52-3.69-7.07-4.77-12.43-3.13-15.52.81-1.53,2.41-2.68,4.78-3.45-.05,0-.11.01-.16.02,1.42-1.17,3.07-2.12,4.95-2.83.83-1.47,1.81-2.99,2.93-4.58,0,0,0,0,0,0-8.06,2.7-13.25,6.16-15.58,10.38-.91,2.63-.96,5.71-.16,9.24,2.08,2.45,3.38,4.51,3.91,6.17.17-.03.35-.04.52-.04.64,0,1.29.18,1.86.57,1.8,1.21,3.59,2.4,5.35,3.56,3.17.45,6.47,1.45,9.9,3"/>
      <path class="cls-23" d="m182.31,481.15c1.21-.14,2.37-.25,3.5-.34.07-.15.15-.31.22-.46-1.4.19-2.64.45-3.72.8"/>
      <path class="cls-20" d="m182.15,481.17c.06,0,.11-.01.16-.02,1.08-.35,2.32-.62,3.72-.8.32-.66.67-1.32,1.06-2.01-1.88.71-3.53,1.66-4.95,2.83"/>
      <path class="cls-12" d="m185.93,503.64c-1.77-1.16-3.55-2.34-5.35-3.56-.57-.39-1.22-.57-1.86-.57-.17,0-.35.01-.52.04.35,1.09.37,2.02.06,2.78.62.4,1.26.77,1.92,1.11.63-.05,1.27-.07,1.92-.07,1.26,0,2.53.09,3.83.28"/>
      <path class="cls-12" d="m198.59,506.5c3.53-.27,7.33-.9,11.4-1.91-1.66-.16-3.23-.35-4.73-.57-2.3.79-4.53,1.61-6.67,2.48"/>
      <path class="cls-35" d="m176.74,500.16c.43-.32.94-.52,1.46-.6-.53-1.67-1.84-3.73-3.91-6.17-.8-3.53-.75-6.61.16-9.24-2.48,4.48-1.71,9.83,2.3,16.02"/>
      <path class="cls-12" d="m178.25,502.33c.31-.76.29-1.68-.06-2.78-.52.08-1.02.29-1.46.6.46.71.96,1.44,1.51,2.17h0"/>
      <polyline class="cls-35" points="190.02 473.76 190.03 473.76 190.03 473.76 190.02 473.76"/>
      <path class="cls-13" d="m192.37,538.96c1.12,0,2.25-.02,3.37-.07-20.54-11-24.06-20.26-10.55-27.79-2.55-1.64-5.15-3.34-7.77-5.11-7.26,1.29-13.72,6.67-17.87,14.94-.39.78-.75,1.57-1.09,2.37.41,4.69,3.73,8.49,9.86,11.3,6.42,2.95,15.17,4.35,24.04,4.35"/>
      <path class="cls-30" d="m158.47,523.31c.33-.8.7-1.59,1.09-2.37,4.15-8.27,10.61-13.65,17.87-14.94-.16-.11-.32-.21-.48-.32-.18-.11-.36-.21-.53-.32-.39-.24-.73-.56-.99-.94-.39.11-.81.2-1.27.27-6.44,2.24-12.21,7.32-17.32,15.22.94.57,1.56,1.59,1.59,2.74,0,.22.02.44.04.65"/>
      <path class="cls-12" d="m184.33,541.7c4.06,0,8.18-.78,12.16-2.41-.25-.13-.5-.26-.75-.4-1.12.05-2.25.07-3.37.07-8.87,0-17.62-1.4-24.04-4.35-6.13-2.82-9.45-6.62-9.86-11.3-.02-.21-.03-.43-.04-.65-.04-1.15-.66-2.17-1.59-2.74-.59.91-1.17,1.86-1.74,2.85,4.15,9.26,12.18,15.61,21.34,17.94,0,0,0,0,.02,0,.02,0,.04.01.05.01,0,0,0,0,.01,0,2.54.64,5.17.97,7.83.97"/>
      <path class="cls-30" d="m192.46,507.82c1.07-.4,2.19-.8,3.37-1.18h0c-.31,0-.62.01-.93.01-1.64,0-3.21-.09-4.72-.27.77.49,1.53.97,2.28,1.44m-15.52-2.14s-.07-.05-.1-.07c-.5-.34-.88-.78-1.12-1.29-.1.03-.2.06-.3.09.26.38.6.7.99.94.18.11.35.22.53.32"/>
      <path class="cls-12" d="m185.19,511.11c2.04-1.13,4.46-2.23,7.27-3.29-.76-.47-1.52-.96-2.28-1.44-3.73-.44-7.06-1.42-10-2.94-1.23.1-2.44.28-3.63.56-.25.12-.53.23-.83.33.25.5.63.95,1.12,1.29.03.02.07.05.1.07.16.11.32.21.48.32,2.62,1.76,5.22,3.47,7.77,5.11"/>
      <path class="cls-35" d="m174.15,504.69c.46-.07.88-.16,1.27-.27-.03-.04-.05-.07-.07-.11-.4.12-.8.24-1.2.38"/>
      <path class="cls-35" d="m175.42,504.42c.1-.03.2-.06.3-.09-.02-.04-.04-.07-.05-.11-.11.03-.22.06-.32.09.02.04.05.07.07.11"/>
      <path class="cls-12" d="m175.72,504.32c.3-.1.57-.21.83-.33-.29.07-.58.14-.88.22.02.04.03.07.05.11"/>
      <path class="cls-35" d="m194.89,506.64c.31,0,.62,0,.93-.01-3.43-1.55-6.73-2.55-9.9-3,1.43.93,2.84,1.84,4.25,2.74,1.51.18,3.08.27,4.72.27"/>
      <path class="cls-12" d="m190.18,506.38c-1.41-.89-2.82-1.81-4.25-2.74-1.3-.19-2.58-.28-3.83-.28-.65,0-1.29.03-1.92.07,2.94,1.52,6.28,2.5,10,2.94"/>
      <path class="cls-3" d="m194.76,557.53c1.93,0,3.88-.05,5.85-.15,7.3-.36,13.56-1.4,18.35-2.98-2.79.24-5.34.36-7.68.36-11.81,0-17.89-3.03-18.24-9.09-.22,0-.44,0-.66,0-9.78,0-19.46-1.61-26.84-5-4.16-1.91-7.42-4.3-9.72-7.09-.62,5.92.37,11.58,2.94,16.13,3.24,4.01,18.55,7.82,36,7.82"/>
      <path class="cls-12" d="m188.42,560.4c11.73,0,25.06-2.37,40-7.12-3.4.51-6.55.88-9.46,1.13-4.79,1.58-11.05,2.62-18.35,2.98-1.97.1-3.92.15-5.85.15-17.45,0-32.76-3.81-36-7.82-2.57-4.55-3.55-10.21-2.94-16.13,2.3,2.79,5.56,5.18,9.72,7.09,7.38,3.39,17.06,5,26.84,5,.22,0,.44,0,.66,0-.08-1.32.12-2.79.59-4.4-2.34.5-4.73.75-7.18.75-3.22,0-6.54-.43-9.95-1.29,0,0,0,0-.01,0-.02,0-.03,0-.05-.01,0,0,0,0-.02,0-7.31-1.86-15.07-5.7-23.27-11.52-1.27,5.41-1.09,12.54.56,21.39,9.36,6.55,20.92,9.82,34.7,9.82"/>
      <path class="cls-12" d="m176.51,540.72s0,0-.01,0c0,0,0,0,.01,0m-.06-.02s-.01,0-.02,0c0,0,0,0,.02,0"/>
      <path class="cls-13" d="m240.96,534.15c12.13,0,28.71-.8,49.4-2.39,4.81-.41,8.54-1.33,11.15-2.74-7.01,1.14-13.14,1.7-18.37,1.7-15,0-22.71-4.66-23.13-13.99-.09.09-.19.18-.3.26h0s0,.01,0,.01c-4.15,3.55-9.46,5.48-14.87,5.48-2.64,0-5.3-.46-7.87-1.42-.75-.28-1.48-.59-2.18-.95,2.17,4.67,3.34,9.34,3.51,14.01.87.01,1.76.01,2.67.01"/>
      <path class="cls-30" d="m238.28,534.14c-.17-4.67-1.34-9.34-3.51-14.01.71.35,1.43.67,2.18.95,2.56.96,5.23,1.42,7.87,1.42,5.41,0,10.72-1.93,14.87-5.48-.6.46-1.31.68-2.01.68-.86,0-1.7-.33-2.34-.96-1.75,1.21-4.07,1.92-6.95,2.12-1.44-.18-2.81-.4-4.11-.66-.29.02-.57.03-.85.03-2.56,0-4.76-.73-6.6-2.18h0c-5.3,5.5-5.1,11.53.6,18.1.28,0,.56,0,.85.01"/>
      <path class="cls-12" d="m266.78,537.01c3.47,0,6.73-.11,9.78-.32,0,0,0,0,.01,0h0c12.5-.88,21.54-3.56,27.15-8.03-.74.13-1.48.25-2.2.37-2.61,1.41-6.35,2.32-11.15,2.74-20.69,1.59-37.27,2.39-49.4,2.39-.92,0-1.81,0-2.67-.01-.28,0-.57,0-.85-.01.3.34.61.69.94,1.04.61.07,1.22.14,1.83.21h0c9.9,1.09,18.75,1.64,26.56,1.64"/>
      <path class="cls-30" d="m257.69,517.68c.7,0,1.41-.22,2.01-.68,0,0,0,0,0,0h0c.11-.09.2-.17.3-.26-.03-.68-.02-1.4.03-2.13-.76-.11-1.43-.45-1.94-.96-.66,1.25-1.58,2.28-2.75,3.08.64.63,1.48.96,2.34.96"/>
      <path class="cls-12" d="m260.03,514.61c.07-1.05.22-2.15.44-3.3-.63.43-1.26.84-1.88,1.23-.15.39-.31.76-.5,1.11.5.51,1.18.86,1.94.96"/>
      <path class="cls-35" d="m248.4,518.85c2.88-.21,5.2-.91,6.95-2.12-.09-.09-.18-.19-.27-.3-.12-.15-.22-.3-.31-.46-.18-.32-.3-.66-.36-1.01-3.81,1.98-7.19,3.05-10.12,3.23,1.3.26,2.67.48,4.11.66"/>
      <path class="cls-35" d="m255.35,516.73c1.17-.8,2.08-1.83,2.75-3.08-.16-.16-.3-.34-.43-.53-1.12.68-2.21,1.3-3.26,1.84.07.35.19.69.36,1.01.09.16.19.32.31.46.08.11.17.2.27.3"/>
      <path class="cls-12" d="m258.1,513.65c.19-.35.36-.72.5-1.11-.31.2-.62.39-.93.58.12.19.27.37.43.53"/>
      <polyline class="cls-35" points="236.84 516.03 236.83 516.03 236.83 516.03 236.84 516.03"/>
      <path class="cls-3" d="m241.97,547.32c2.78,0,5.87-.06,9.24-.13,4.1-.08,8.61-.18,13.55-.18,1.58,0,3.21.01,4.88.03,2.19.03,4.36.05,6.5.05,9.9,0,19.05-.37,25.4-1.76-3.86.39-7.27.59-10.25.59-9.89,0-14.93-2.16-15.15-6.46-14.15.91-25.94,1.37-35.21,1.37-1.07,0-2.11,0-3.11-.02-.35,2.13-.92,4.27-1.68,6.39,1.76.1,3.7.14,5.82.14"/>
      <path class="cls-12" d="m263.4,550.86c16.23,0,30.68-2.05,43.35-6.14-1.82.24-3.56.44-5.22.61-6.34,1.4-15.5,1.76-25.4,1.76-2.14,0-4.31-.02-6.5-.05-1.67-.02-3.3-.03-4.88-.03-4.94,0-9.45.09-13.55.18-3.37.07-6.46.13-9.24.13-2.12,0-4.06-.04-5.82-.14.77-2.12,1.33-4.25,1.68-6.39,1,.01,2.04.02,3.11.02,9.27,0,21.05-.46,35.21-1.37-.04-.84.1-1.76.43-2.77,0,0,0,0-.01,0-7.66.75-14.2,1.12-19.62,1.12-8,0-13.57-.81-16.72-2.43h0c-4.97,5.34-7.72,9.75-8.24,13.23,11.13,1.5,21.6,2.25,31.42,2.25"/>
      <path class="cls-12" d="m276.56,536.68s0,0,.01,0h0s0,0-.01,0m-36.34-1.31h0"/>
      <path class="cls-21" d="m262.78,506.59c2.82-1.27,6.04-2.1,9.64-2.46-3.96-2.17-6.66-6.14-7.19-10.68-.5-4.3,1.02-8.55,4.03-11.55h0c.03-.07.07-.15.1-.22-2.36.7-4.14,1.89-5.41,3.62-2.93,4-3.32,11.32-1.18,21.3"/>
      <path class="cls-30" d="m262.93,507.93c2.58,0,6.19-1.05,10.83-3.15-.46-.19-.91-.41-1.34-.65-3.6.37-6.81,1.19-9.64,2.46-2.15-9.98-1.75-17.3,1.18-21.3,1.26-1.73,3.05-2.93,5.41-3.62.22-.45.46-.89.72-1.31-.55-.06-1.09-.08-1.6-.08-8.05,0-11.36,6.83-9.93,20.49.51,2.21.8,4.22.86,6.03,0,0,0,0,0,0,.8.75,1.97,1.12,3.51,1.12"/>
      <path class="cls-23" d="m269.26,481.89h0c.09-.09.18-.18.28-.27-.06.02-.12.03-.18.05-.03.07-.07.15-.1.22"/>
      <path class="cls-20" d="m269.36,481.67c.06-.02.12-.03.18-.05.44-.41.9-.8,1.4-1.16-.29-.04-.58-.08-.86-.11-.26.42-.5.86-.72,1.31"/>
      <path class="cls-35" d="m259.41,506.8c-.06-1.81-.35-3.82-.86-6.03.2,1.88.48,3.89.86,6.03"/>
      <path class="cls-3" d="m97.87,214.1c5.6,0,10.66-3.47,14.23-9.02-.93.1-1.86.14-2.79.14-8.89,0-17.43-4.3-22.69-11.84-6.37-9.14-6.62-21.17-.74-30.53-4.6,5.25-7.56,13.43-7.56,22.61v.07c.23,7.16,2.1,13.78,5.15,19.28,3.58,5.71,8.71,9.29,14.4,9.29"/>
      <path class="cls-12" d="m83.47,204.81c-3.05-5.5-4.92-12.13-5.15-19.28.01,7.43,1.96,14.2,5.15,19.28"/>
      <path class="cls-12" d="m94.31,216.29c6.11,0,13.46-3.99,22.04-11.98-1.41.37-2.83.63-4.26.77-3.57,5.55-8.63,9.02-14.23,9.02s-10.82-3.59-14.4-9.29c-3.18-5.09-5.14-11.86-5.15-19.28v-.07c0-9.18,2.96-17.36,7.56-22.61.24-.39.5-.77.76-1.15-9.37,5.1-13.14,14.58-11.3,28.44,3.62,17.43,9.94,26.15,18.96,26.14"/>
      <path class="cls-37" d="m271.44,389.07c.97,0,1.88-.24,2.68-.66-1.86-.45-3.5-1.64-4.49-3.36-1.34-2.33-1.24-5.19.21-7.41-2.49.71-4.23,3-4.23,5.6,0,3.21,2.61,5.82,5.82,5.82"/>
      <path class="cls-17" d="m271.44,390.99c1.99,0,3.94-.86,5.3-2.44-.32.04-.64.07-.96.07-.56,0-1.12-.07-1.65-.2-.8.42-1.72.66-2.68.66-3.21,0-5.82-2.61-5.82-5.82,0-2.61,1.73-4.89,4.23-5.6.11-.16.22-.32.34-.48-3.02.55-5.31,3.01-5.67,6.05-.35,3.04,1.33,5.96,4.14,7.19.9.39,1.84.58,2.78.58"/>
      <path class="cls-37" d="m232.42,392.17c1.37,0,2.63-.47,3.62-1.27-2.29-.19-4.39-1.48-5.57-3.53-1.14-1.98-1.24-4.35-.35-6.38-.03.01-.05.03-.08.04-2.09.94-3.45,3.03-3.45,5.32,0,3.21,2.61,5.82,5.82,5.82"/>
      <path class="cls-17" d="m232.28,393.3c1.99,0,3.94-.86,5.3-2.44-.32.04-.64.07-.96.07-.19,0-.38,0-.57-.02-1,.79-2.25,1.27-3.62,1.27-3.21,0-5.82-2.61-5.82-5.82,0-2.29,1.35-4.38,3.45-5.32.03-.01.05-.02.08-.04.23-.53.53-1.04.9-1.51-3.01.55-5.31,3.01-5.67,6.05-.35,3.04,1.32,5.96,4.13,7.18.9.39,1.85.58,2.78.58"/>
      <path class="cls-12" d="m228.37,548.44c-3.03,4.89-13.38,8.23-27.76,8.95-19.77.98-38.26-3.22-41.85-7.68-4.39-7.79-4.08-19.05.79-28.77,4.36-8.69,11.29-14.2,19-15.11,1.1-.13,2.06-.8,2.57-1.77.51-.98.5-2.15-.03-3.12-4.04-7.47-5.27-13.13-3.56-16.34,1.28-2.4,4.5-3.87,9.59-4.38,18.26-1.8,23.61,1.78,25.16,4.08,2.28,3.36.15,9.12-2.04,13.36-.72,1.39-.38,3.08.82,4.09,19.21,16.08,24.87,31.36,17.31,46.69h0Zm-33.36,15.76c2,0,3.99-.05,5.93-.15,9.96-.5,27.53-2.75,33.21-12.3.04-.07.08-.15.12-.22,8.82-17.72,3.12-35.61-16.96-53.2,3.31-7.39,3.47-13.36.48-17.77-4.31-6.35-14.56-8.63-31.34-6.98-7.44.73-12.43,3.38-14.82,7.88-2.48,4.68-1.96,10.81,1.61,18.69-8.09,2.43-15.1,8.72-19.66,17.8-5.98,11.92-6.18,25.44-.5,35.28.06.11.13.22.21.32,5.16,6.98,24.2,10.65,41.72,10.65h0Z"/>
      <path class="cls-12" d="m176.77,502.91h0,0Zm28.44.87c-11.82.79-20.54-.31-25.94-3.27-3.69-7.07-4.78-12.43-3.13-15.53,1.28-2.4,4.5-3.87,9.59-4.38,18.26-1.8,23.61,1.79,25.16,4.08,2.28,3.37.15,9.12-2.04,13.36-.11.22-.2.44-.26.66-1.11,2.24-2.25,3.93-3.39,5.07h0Zm-7.05,6.92c2.71,0,5.59-.12,8.66-.35.66-.05,1.29-.29,1.81-.7,2.31-1.82,4.35-4.63,6.25-8.59.08-.17.15-.34.19-.51,4.13-8.24,4.58-14.83,1.35-19.6-4.31-6.35-14.56-8.63-31.34-6.98-7.44.73-12.43,3.38-14.82,7.88-2.89,5.43-1.71,12.84,3.58,22.64.28.51.69.95,1.18,1.25,5.37,3.31,12.99,4.95,23.13,4.95h0Z"/>
      <path class="cls-12" d="m276.92,503.91c-5.46,0-10.19.9-14.14,2.68-2.15-9.98-1.75-17.3,1.18-21.3,1.94-2.66,5.12-4.07,9.72-4.31.12,0,.24-.02.36-.04,2.79-.46,3.68.49,4.02.84,1.19,1.27,3.49,5.93.17,22.13-.44-.01-.87-.02-1.3-.02h0Zm-19.23,13.77c.7,0,1.41-.22,2.01-.68h0c.45-.35.79-.79,1.01-1.27.29-.13.57-.31.82-.53,4.15-3.63,10.57-5.14,19.08-4.48,1.64.12,3.14-.98,3.51-2.59,3.68-16.29,3.29-26.11-1.22-30.91-1.65-1.75-4.67-3.66-9.76-2.88-6.54.38-11.45,2.74-14.58,7.02-4.47,6.1-5.04,15.65-1.74,29.14-.22.25-.39.52-.52.8-.23.1-.44.23-.65.39-1.34,1.02-1.69,2.85-.9,4.28.09.16.19.32.31.46.66.82,1.63,1.25,2.6,1.25h0Z"/>
      <path class="cls-12" d="m222.23,501.44c.04.56.11,1.12.19,1.67-.54-.55-1.1-1.09-1.67-1.64.46-.02.95-.04,1.48-.03h0Zm42.53,45.58c-4.94,0-9.46.09-13.55.18-5.94.12-10.98.22-15.05,0,3.27-9.01,2.81-18.05-1.38-27.06.71.35,1.43.67,2.18.95,9.44,3.52,20.21.32,26.2-7.78.6-.81.8-1.85.54-2.83-3.13-11.96-3.04-20.67.25-25.17,1.94-2.66,5.12-4.07,9.72-4.31.12,0,.24-.02.36-.04,2.79-.46,3.68.49,4.02.84,1.26,1.34,3.74,6.44-.43,24.87-.22.95,0,1.95.58,2.74.59.78,1.49,1.27,2.46,1.33,11.68.72,19.96,3.92,24.58,9.51,4.03,4.87,5.55,11.89,4.51,20.89-3.37,5.61-21.24,6.16-40.13,5.92-1.67-.02-3.3-.03-4.88-.03h0Zm-22.77,6.97c2.84,0,5.96-.06,9.35-.13,5.36-.11,11.43-.23,18.21-.14,26.93.36,42.32-1.16,46.48-10.19.14-.31.24-.64.28-.98,1.41-11.18-.58-20.11-5.92-26.56-5.29-6.38-13.84-10.27-25.47-11.58,2.8-14.07,2.15-22.76-2.01-27.18-1.65-1.75-4.67-3.66-9.76-2.88-6.54.38-11.45,2.74-14.58,7.02-4.47,6.1-5.04,15.65-1.74,29.14-4.36,4.84-11.36,6.63-17.55,4.32-6.67-2.48-10.95-9.17-10.4-16.27.14-1.81-1.19-3.39-2.99-3.57-5.93-.6-10.39.07-13.62,2.03-.92.56-1.51,1.52-1.59,2.58-.09,1.07.35,2.11,1.16,2.81,18.64,15.89,24.03,30.99,16.48,46.16-.47.95-.47,2.07.02,3.01.48.94,1.39,1.6,2.43,1.77,3.14.5,6.86.65,11.22.65h0Z"/>
      <path class="cls-19" d="m330.42,177.11c6.32,0,13.06,2.24,18.35,5.9,10.71,7.42,15.27,20.97,10.84,32.21-7.16,18.14-25.8,30.06-46.37,29.71-18.64-.33-35.26-10.92-43.5-27.35,17.67-2.59,30.69-14.99,45.45-33.81h0c3.66-4.67,9.26-6.66,15.23-6.66h0Zm-16.27,74.5c22.93,0,43.6-13.54,51.65-33.94,5.56-14.09,0-30.98-13.24-40.14-12.76-8.84-32.69-10.54-42.63,2.13h0c-15.27,19.48-27.58,30.92-45.28,31.72-1.08.05-2.06.61-2.65,1.52-.59.9-.7,2.03-.3,3.04,8.38,21.26,28.56,35.26,51.41,35.67.34,0,.69,0,1.03,0h0Z"/>
      <path class="cls-5" d="m343.96,194.21c.91,0,1.82-.37,2.48-1.1,1.23-1.37,1.12-3.48-.25-4.71-.47-.42-.96-.83-1.47-1.2-6.85-5.1-16.28-5.44-23.47-.84-1.55.99-2.01,3.05-1.01,4.61.99,1.55,3.05,2,4.6,1.01,4.87-3.11,11.26-2.88,15.9.57.34.25.67.53.99.81.64.57,1.43.86,2.23.86h0Zm5.07,17.65c1.45,0,2.79-.95,3.2-2.42.41-1.45.67-2.94.76-4.43.11-1.84-1.29-3.42-3.13-3.53-1.83-.12-3.42,1.29-3.53,3.13-.06,1-.23,2.01-.51,3-.51,1.77.52,3.62,2.29,4.12.31.09.61.13.92.13h0Z"/>
    </g>
  </g>
  <g>
    <path class="cls-36" d="m0,266.45c29.54,0,33.69-27.93,33.69-53,0-20.06-1.66-40.11-3.33-60.17-1.66-20.06-3.33-39.39-3.33-59.45C27.04,27.93,52,0,87.36,0h8.74v39.39h-7.49c-24.54,0-32.86,22.92-32.86,61.6,0,16.47,1.25,33.66,2.91,50.85,1.66,17.91,2.91,35.1,2.91,54.44.42,45.84-11.23,68.76-29.95,77.35v1.43c18.72,7.88,30.37,32.23,29.95,78.07,0,19.34-1.25,37.25-2.91,54.44-1.66,17.91-2.91,34.38-2.91,51.57,0,40.11,9.57,62.31,32.86,62.31h7.49v39.39h-8.74c-34.53,0-60.32-25.79-60.32-98.13,0-19.34,1.66-39.39,3.33-58.73,1.66-19.34,3.33-38.68,3.33-58.02,0-22.2-4.16-53-33.69-53v-36.53Z"/>
    <path class="cls-24" d="m653.91,302.98c-29.54,0-33.69,30.8-33.69,53,0,19.34,1.66,38.68,3.33,58.02,1.66,19.34,3.33,39.39,3.33,58.73,0,72.34-26.21,98.13-60.32,98.13h-8.74v-39.39h7.07c23.29-.72,33.28-22.2,33.28-62.31,0-17.19-1.66-33.66-2.91-51.57-1.66-17.19-3.33-35.1-3.33-54.44,0-45.84,11.65-70.19,29.95-78.07v-1.43c-18.3-8.59-29.95-31.51-29.95-77.35,0-19.34,1.66-36.53,3.33-54.44,1.25-17.19,2.91-34.38,2.91-50.85,0-38.68-8.74-60.88-32.86-61.6h-7.49V0h8.32c35.36,0,60.73,27.93,60.73,93.83,0,20.06-1.66,39.39-3.33,59.45-1.66,20.06-3.33,40.11-3.33,60.17,0,25.07,4.16,53,33.69,53v36.53Z"/>
  </g>
</svg>